<svg width="73" height="73" viewBox="0 0 73 73" fill="none" xmlns="http://www.w3.org/2000/svg">
<path fill-rule="evenodd" clip-rule="evenodd" d="M19.6533 21.6967L20.45 21.3893C23.5627 20.1879 26.5964 18.6579 29.5514 16.7977C32.4793 14.8993 35.1691 12.5368 37.6199 9.70471L37.8691 9.41669H44.5834V68.8334H35.1667V22.7619C34.7955 23.0394 34.3969 23.3201 33.9716 23.6039C32.9977 24.2906 31.9157 24.9449 30.7275 25.5676C29.5957 26.1898 28.3824 26.7821 27.0885 27.3449C25.8443 27.9102 24.6249 28.3924 23.4302 28.7906L22.6939 29.036L19.6533 21.6967ZM30.3334 24.8334C31.5 24.2222 32.5556 23.5834 33.5 22.9167C34.1196 22.5037 34.6751 22.1013 35.1667 21.7096C35.4686 21.4691 35.7464 21.2325 36 21V68H43.75V10.25H38.25C35.75 13.1389 33 15.5556 30 17.5C27.2453 19.2345 24.4203 20.6879 21.5251 21.8602C21.2673 21.9646 21.0089 22.0668 20.75 22.1667L23.1667 28C24.3334 27.6111 25.5278 27.1389 26.75 26.5834C28.0278 26.0278 29.2223 25.4445 30.3334 24.8334Z" fill="black"/>
</svg>
