<svg width="73" height="73" viewBox="0 0 73 73" fill="none" xmlns="http://www.w3.org/2000/svg">
<path fill-rule="evenodd" clip-rule="evenodd" d="M17.6667 15.8333C18.1667 15.2778 18.9167 14.6111 19.9167 13.8333C20.9167 13 22.1112 12.2222 23.5001 11.5C24.889 10.7778 26.4445 10.1666 28.1667 9.66665C29.889 9.16665 31.7501 8.91665 33.7501 8.91665C39.8056 8.91665 44.3334 10.3333 47.3334 13.1666C50.389 15.9444 51.9167 19.8889 51.9167 25C51.9167 27 51.5001 28.9444 50.6667 30.8333C49.889 32.6666 48.8334 34.5 47.5001 36.3333C46.1667 38.1111 44.6667 39.8889 43.0001 41.6666C41.3334 43.3889 39.6667 45.0833 38.0001 46.75L34.6667 50.0833C33.4445 51.3611 32.2778 52.6944 31.1667 54.0833C30.0556 55.4722 29.1112 56.8055 28.3334 58.0833C27.8136 59.003 27.4808 59.8363 27.3352 60.5833C27.2784 60.8742 27.2501 61.152 27.2501 61.4166H53.8334V68H18.8334C18.7778 67.6666 18.7501 67.3333 18.7501 67V66.0833C18.7501 63.4722 19.1667 61.0555 20.0001 58.8333C20.889 56.5555 22.0278 54.4166 23.4167 52.4166C24.8056 50.4166 26.3612 48.5278 28.0834 46.75C29.8056 44.9722 31.5001 43.25 33.1667 41.5833C34.5556 40.25 35.8612 38.9444 37.0834 37.6666C38.3612 36.3333 39.4723 35.0278 40.4167 33.75C41.4167 32.4166 42.1945 31.0555 42.7501 29.6666C43.3612 28.2778 43.6667 26.8055 43.6667 25.25C43.6667 23.5833 43.389 22.1666 42.8334 21C42.3334 19.8333 41.639 18.8611 40.7501 18.0833C39.8612 17.3055 38.8056 16.75 37.5834 16.4166C36.4167 16.0278 35.1667 15.8333 33.8334 15.8333C32.2223 15.8333 30.7501 16.0555 29.4167 16.5C28.0834 16.9444 26.889 17.4722 25.8334 18.0833C24.7778 18.6389 23.889 19.25 23.1667 19.9166C22.7743 20.2487 22.4311 20.5398 22.137 20.7898C21.89 20.9999 21.6776 21.1811 21.5001 21.3333L17.6667 15.8333ZM28.1872 60.5833H54.6667V68.8333H18.1275L18.0114 68.137C17.9484 67.759 17.9167 67.3798 17.9167 67V66.0833C17.9167 63.3823 18.348 60.8654 19.2198 58.5407L19.2237 58.5303C20.1362 56.192 21.3059 53.9952 22.7323 51.9413C24.1473 49.9036 25.7317 47.9798 27.4849 46.1702C29.21 44.3894 30.9075 42.664 32.5775 40.9941L32.5835 40.988L32.5896 40.9822C33.9707 39.6563 35.2678 38.3591 36.4812 37.0906C37.7383 35.7789 38.8263 34.4998 39.7466 33.2547L39.75 33.25C40.7111 31.9686 41.4508 30.6709 41.9763 29.3572L41.9816 29.344L41.9873 29.331C42.5507 28.0506 42.8334 26.693 42.8334 25.25C42.8334 23.6727 42.5702 22.3855 42.081 21.3583L42.0739 21.3434L42.0674 21.3282C41.6128 20.2675 40.9895 19.4001 40.2013 18.7105C39.4142 18.0218 38.4736 17.5232 37.3641 17.2206L37.3418 17.2145L37.3199 17.2072C36.245 16.8489 35.0847 16.6666 33.8334 16.6666C32.299 16.6666 30.9172 16.8782 29.6803 17.2906C28.3926 17.7198 27.2509 18.2256 26.2509 18.8045L26.2364 18.8129L26.2215 18.8207C25.217 19.3494 24.3909 19.9207 23.732 20.529L23.7188 20.5412L23.705 20.5528C22.9832 21.1636 22.4293 21.6344 22.0424 21.966L21.3431 22.5655L16.605 15.7673L17.0473 15.2758C17.5931 14.6694 18.3833 13.9709 19.3941 13.1841C20.4459 12.3091 21.6888 11.5025 23.1156 10.7606C24.5595 10.0098 26.167 9.37947 27.9344 8.86636C29.7402 8.34208 31.6804 8.08331 33.7501 8.08331C39.9164 8.08331 44.6861 9.52382 47.8999 12.5554C51.1651 15.5271 52.7501 19.7173 52.7501 25C52.7501 27.1176 52.3085 29.1744 51.4317 31.164C50.6263 33.0612 49.5383 34.9476 48.174 36.8235L48.1668 36.8334C46.8135 38.6377 45.2936 40.4387 43.608 42.2366L43.599 42.2462C41.9292 43.9717 40.2593 45.6693 38.5893 47.3392L35.2625 50.666C34.0597 51.9239 32.9114 53.2365 31.8175 54.6039C30.7279 55.9658 29.8072 57.2661 29.0523 58.505C28.602 59.3035 28.3242 59.9936 28.1872 60.5833Z" fill="black"/>
</svg>
