<svg width="73" height="73" viewBox="0 0 73 73" fill="none" xmlns="http://www.w3.org/2000/svg">
<path fill-rule="evenodd" clip-rule="evenodd" d="M41.8521 58.8037L41.86 58.7964C43.8273 57.0308 44.8333 54.6575 44.8333 51.5833C44.8333 49.5889 44.414 47.9712 43.6236 46.6867C42.806 45.3581 41.7393 44.3181 40.4169 43.5551L40.4066 43.5492L40.3965 43.543C39.0562 42.7182 37.4656 42.1396 35.6092 41.8213L35.5955 41.819L35.5819 41.8162C33.7503 41.4391 31.8623 41.25 29.9166 41.25H27.0833V33.25H30.6666C31.9997 33.25 33.3636 33.1167 34.7593 32.8483L34.7649 32.8472C36.1761 32.5859 37.4439 32.1182 38.576 31.4492C39.6805 30.7966 40.5843 29.9202 41.2924 28.8097C41.9696 27.6937 42.3333 26.2721 42.3333 24.5C42.3333 23.0419 42.0729 21.8426 41.5879 20.8727C41.0865 19.8697 40.4163 19.0537 39.5771 18.4119L39.5673 18.4045L39.5578 18.3967C38.7774 17.7626 37.8413 17.3147 36.7319 17.0626L36.7097 17.0575L36.6877 17.0513C35.6024 16.7412 34.4301 16.5833 33.1666 16.5833C30.5792 16.5833 28.4166 16.9608 26.6547 17.6855C24.8555 18.449 23.3473 19.2321 22.1219 20.0313L21.3436 20.5389L17.5888 13.1337L18.2044 12.7233C18.9068 12.255 19.7698 11.767 20.7863 11.2585C21.8811 10.6828 23.084 10.1682 24.3929 9.7129C25.7083 9.25537 27.1046 8.88499 28.5809 8.60057C30.1394 8.25515 31.7518 8.08331 33.4166 8.08331C36.5356 8.08331 39.2691 8.47935 41.5997 9.29367C43.9149 10.0473 45.8585 11.1586 47.4047 12.6434C48.9422 14.0643 50.0945 15.7809 50.8602 17.7818C51.6233 19.7205 52 21.824 52 24.0833C52 27.2548 51.0851 30.0251 49.2356 32.3519L49.2291 32.3601C47.8491 34.0516 46.2442 35.4395 44.4172 36.52C45.3322 36.8967 46.225 37.3465 47.0954 37.8687C48.5688 38.7528 49.838 39.8736 50.8995 41.2278C52.0135 42.5784 52.8886 44.1278 53.5282 45.8685C54.2365 47.6438 54.5833 49.6082 54.5833 51.75C54.5833 54.3492 54.1211 56.7891 53.1896 59.0614C52.3035 61.3035 50.8881 63.2447 48.9606 64.8814C47.0831 66.5228 44.7298 67.7931 41.9253 68.7088C39.0988 69.6317 35.7852 70.0833 32 70.0833C30.5128 70.0833 28.9733 69.9689 27.3821 69.7416L27.3778 69.741C25.8536 69.5152 24.4101 69.2323 23.0479 68.8918C21.6996 68.5547 20.5117 68.2156 19.4864 67.8739C18.4808 67.5387 17.7112 67.2456 17.2106 66.9953L16.6287 66.7044L18.4957 58.3025L19.4381 58.746C20.3344 59.1677 21.8489 59.7378 24.0103 60.4583C26.1252 61.1453 28.7265 61.5 31.8333 61.5C36.7078 61.5 39.9733 60.5342 41.8521 58.8037ZM23.75 61.25C22.0988 60.6996 20.8026 60.2299 19.8612 59.8408C19.5673 59.7193 19.308 59.6057 19.0833 59.5L17.5833 66.25C18.0277 66.4722 18.75 66.75 19.75 67.0833C20.75 67.4166 21.9166 67.75 23.25 68.0833C24.5833 68.4166 26 68.6944 27.5 68.9166C29.0555 69.1389 30.5555 69.25 32 69.25C35.7222 69.25 38.9444 68.8055 41.6666 67.9166C44.3889 67.0278 46.6389 65.8055 48.4166 64.25C50.25 62.6944 51.5833 60.8611 52.4166 58.75C53.3055 56.5833 53.75 54.25 53.75 51.75C53.75 49.6944 53.4166 47.8333 52.75 46.1666C52.1389 44.5 51.3055 43.0278 50.25 41.75C49.25 40.4722 48.0555 39.4166 46.6666 38.5833C45.6312 37.962 44.5648 37.4488 43.4676 37.0437C43.0931 36.9054 42.715 36.7797 42.3333 36.6666C42.6981 36.5008 43.055 36.3238 43.4037 36.1357C45.3916 35.0635 47.1181 33.6293 48.5833 31.8333C50.3055 29.6666 51.1666 27.0833 51.1666 24.0833C51.1666 21.9166 50.8055 19.9166 50.0833 18.0833C49.3611 16.1944 48.2777 14.5833 46.8333 13.25C45.3889 11.8611 43.5555 10.8055 41.3333 10.0833C39.1111 9.30554 36.4722 8.91665 33.4166 8.91665C31.8055 8.91665 30.25 9.08331 28.75 9.41665C27.3055 9.69443 25.9444 10.0555 24.6666 10.5C23.3889 10.9444 22.2222 11.4444 21.1666 12C20.1666 12.5 19.3333 12.9722 18.6666 13.4166L21.6666 19.3333C21.8944 19.1848 22.131 19.0371 22.3764 18.8904C23.5078 18.2137 24.8267 17.5558 26.3333 16.9166C28.2222 16.1389 30.5 15.75 33.1666 15.75C34.5 15.75 35.75 15.9166 36.9166 16.25C38.1389 16.5278 39.1944 17.0278 40.0833 17.75C41.0277 18.4722 41.7777 19.3889 42.3333 20.5C42.8889 21.6111 43.1666 22.9444 43.1666 24.5C43.1666 26.3889 42.7777 27.9722 42 29.25C41.2222 30.4722 40.2222 31.4444 39 32.1666C37.7777 32.8889 36.4166 33.3889 34.9166 33.6666C33.4722 33.9444 32.0555 34.0833 30.6666 34.0833H27.9166V40.4166H29.9166C31.9166 40.4166 33.8611 40.6111 35.75 41C37.6944 41.3333 39.3889 41.9444 40.8333 42.8333C42.2777 43.6666 43.4444 44.8055 44.3333 46.25C45.2222 47.6944 45.6666 49.4722 45.6666 51.5833C45.6666 54.8611 44.5833 57.4722 42.4166 59.4166C40.3055 61.3611 36.7777 62.3333 31.8333 62.3333C28.6666 62.3333 25.9722 61.9722 23.75 61.25Z" fill="black"/>
</svg>
