<svg width="73" height="73" viewBox="0 0 73 73" fill="none" xmlns="http://www.w3.org/2000/svg">
<path fill-rule="evenodd" clip-rule="evenodd" d="M19.5 47.8278L19.5683 47.6697C20.6393 45.1895 22.0985 42.3288 23.9409 39.0906C25.7848 35.7939 27.8508 32.4161 30.1382 28.957L30.1434 28.9493C32.4876 25.4887 34.9712 22.0843 37.594 18.7361L37.5992 18.7294C40.2827 15.3751 42.9697 12.3518 45.6607 9.66076L45.9048 9.41669H54.5V46.0834H61.3333V54.0834H54.5V68.8334H45.3333V54.0834H19.5V47.8278ZM46.1667 53.25V68H53.6667V53.25H60.5V46.9167H53.6667V10.25H46.25C43.5833 12.9167 40.9167 15.9167 38.25 19.25C35.6389 22.5834 33.1667 25.9722 30.8333 29.4167C28.5556 32.8611 26.5 36.2222 24.6667 39.5C22.8333 42.7222 21.3889 45.5556 20.3333 48V53.25H46.1667ZM41.7429 25.926C40.0877 28.0779 38.4592 30.3411 36.8576 32.716C35.2586 35.0869 33.7422 37.513 32.3084 39.9942C31.1588 42.0637 30.1058 44.0934 29.1493 46.0834H45.3333V21.5721C44.1522 22.9105 42.9554 24.3616 41.7429 25.926ZM45.3333 20.3215C43.936 21.8654 42.5193 23.5638 41.0833 25.4167C39.4167 27.5834 37.7778 29.8611 36.1667 32.25C34.5556 34.6389 33.0278 37.0834 31.5833 39.5834C30.3555 41.7934 29.2362 43.9601 28.2255 46.0834C28.0929 46.3619 27.9622 46.6397 27.8333 46.9167H46.1667V19.4167C45.8897 19.7122 45.6119 20.0138 45.3333 20.3215Z" fill="black"/>
</svg>
