<svg width="43" height="73" viewBox="0 0 43 73" fill="none" xmlns="http://www.w3.org/2000/svg">
<path d="M7.96718 65.5565C7.96718 65.5565 9.29474 60.2968 7.46113 54.8922C6.43214 51.8727 4.35225 50.3461 3.03482 50.1099C1.55882 49.8468 -0.0116436 50.9719 1.19446 53.0062C2.34152 54.9394 4.71493 55.8739 5.8603 60.7658C6.61432 63.991 6.35117 66.0625 6.35117 66.0625L7.96718 65.5565Z" fill="#2196F3"/>
<path opacity="0.5" d="M7.96718 65.5565C7.96718 65.5565 9.29474 60.2968 7.46113 54.8922C6.43214 51.8727 4.35225 50.3461 3.03482 50.1099C1.55882 49.8468 -0.0116436 50.9719 1.19446 53.0062C2.34152 54.9394 4.71493 55.8739 5.8603 60.7658C6.61432 63.991 6.35117 66.0625 6.35117 66.0625L7.96718 65.5565Z" fill="white"/>
<path d="M7.12346 64.1311C7.11191 64.1299 7.10072 64.1263 7.09055 64.1207C7.08038 64.1151 7.07143 64.1075 7.06421 64.0984C7.05699 64.0893 7.05165 64.0789 7.0485 64.0677C7.04535 64.0565 7.04445 64.0448 7.04586 64.0333C8.01749 58.2389 5.12116 53.0923 2.75956 51.2942C2.75016 51.2881 2.74221 51.28 2.7363 51.2705C2.73038 51.261 2.72665 51.2503 2.72536 51.2391C2.72407 51.228 2.72526 51.2167 2.72884 51.2061C2.73242 51.1955 2.7383 51.1858 2.74607 51.1778C2.76424 51.1617 2.78763 51.1529 2.81186 51.1529C2.83608 51.1529 2.85947 51.1617 2.87764 51.1778C5.27635 53.0063 8.21485 58.2153 7.23142 64.0738C7.22374 64.095 7.20844 64.1126 7.18849 64.1232C7.16854 64.1338 7.14536 64.1367 7.12346 64.1311Z" fill="white"/>
<path d="M6.34647 66.0676C6.20477 64.7063 5.444 63.259 3.73016 61.6514C2.01631 60.0438 -0.38071 58.5105 0.0511253 57.2369C0.48296 55.9633 2.42116 56.3833 3.76221 57.2015C5.10326 58.0196 8.02489 61.093 7.16291 65.8129L6.34647 66.0676Z" fill="#2196F3"/>
<path opacity="0.65" d="M6.34647 66.0676C6.20477 64.7063 5.444 63.259 3.73016 61.6514C2.01631 60.0438 -0.38071 58.5105 0.0511253 57.2369C0.48296 55.9633 2.42116 56.3833 3.76221 57.2015C5.10326 58.0196 8.02489 61.093 7.16291 65.8129L6.34647 66.0676Z" fill="white"/>
<path d="M6.80834 64.5932C6.7878 64.5909 6.76868 64.5816 6.75423 64.5669C6.73977 64.5521 6.73088 64.5328 6.72905 64.5122C6.62278 61.6446 3.11918 57.8053 1.44245 57.1305C1.4317 57.127 1.42179 57.1213 1.41335 57.1137C1.4049 57.1062 1.39809 57.097 1.39335 57.0867C1.3886 57.0764 1.38602 57.0653 1.38576 57.054C1.3855 57.0426 1.38757 57.0314 1.39184 57.0209C1.40301 56.9998 1.42186 56.9839 1.44447 56.9763C1.46708 56.9688 1.49173 56.9703 1.5133 56.9804C3.271 57.6889 6.80496 61.5349 6.91123 64.5122C6.91127 64.5237 6.90893 64.535 6.90436 64.5455C6.89979 64.556 6.89309 64.5654 6.88469 64.5732C6.87628 64.581 6.86636 64.5869 6.85554 64.5906C6.84472 64.5944 6.83324 64.5958 6.82183 64.5949L6.80834 64.5932Z" fill="white"/>
<path d="M17.5092 62.6906L17.1331 59.354L20.9335 59.0167C20.9335 59.0167 20.7733 61.5891 20.7969 62.7682C20.807 63.3249 21.2001 64.3707 21.2001 64.3707C21.2001 64.3707 19.6094 65.1956 18.7845 64.8582C17.9596 64.5209 17.4114 63.2186 17.435 62.9808C17.4586 62.7429 17.5092 62.6906 17.5092 62.6906Z" fill="#FFB573"/>
<path d="M25.6045 67.9366C25.6568 67.9366 25.6973 68.4207 25.4071 68.6586C25.0698 68.9319 24.0121 69.4548 22.7402 69.2709C21.4683 69.0871 20.7835 68.6856 20.2808 68.2588C19.7781 67.832 19.0747 67.2231 18.4995 67.0881C17.9828 66.9392 17.5002 66.6905 17.0791 66.356C16.9104 66.1873 16.9476 65.4654 16.9476 65.4654L25.6045 67.9366Z" fill="#263238"/>
<path d="M17.5082 62.6853C17.4611 62.6863 17.4157 62.7036 17.38 62.7344C17.3443 62.7652 17.3204 62.8075 17.3126 62.854C17.2704 63.0531 17.2164 63.6334 17.1253 63.9606C17.0005 64.4144 16.9043 65.3472 16.9684 65.72C17.0325 66.0928 18.0413 66.5634 18.5946 66.7777C19.2456 67.0701 19.8485 67.4597 20.3826 67.9332C20.973 68.4392 22.2247 68.9588 23.0563 68.9672C24.0397 68.9773 25.1531 68.6821 25.4179 68.2368C25.7418 67.6869 25.983 67.0459 24.5374 66.3543C24.2624 66.2244 23.3043 65.6424 22.977 65.4315C22.0931 64.8614 21.474 64.3418 21.081 63.3533C21.0489 63.2321 20.977 63.1252 20.8769 63.0497C20.7876 63.0114 20.6887 63.0014 20.5935 63.021C20.3489 63.0497 19.3773 63.1644 19.1546 63.2639C18.9572 63.3533 18.6772 63.4562 18.6772 63.7025C18.6805 63.7885 18.6976 63.8733 18.7278 63.9539C18.743 64.0045 18.7565 64.0719 18.711 64.1006C18.6654 64.1293 18.6131 64.1006 18.5743 64.0618C18.4339 63.9152 18.3058 63.7572 18.1914 63.5895C18.0775 63.44 17.9547 63.2975 17.8237 63.1627C17.7374 63.1121 17.6545 63.0557 17.5757 62.994C17.488 62.908 17.5116 62.8001 17.5082 62.6853Z" fill="#455A64"/>
<path d="M20.3818 67.9365C20.1321 67.7257 19.8656 67.5215 19.5974 67.3377C19.5974 67.3377 21.2944 68.3869 21.9911 67.9365C22.4431 67.6447 22.2373 67.277 22.2289 67.1589C22.2205 67.0408 23.8112 66.2463 24.2531 66.2041C24.3729 66.2716 24.4707 66.3289 24.5365 66.3559C25.6667 66.8249 25.8067 67.4052 25.6043 68.1288C25.3428 68.5741 24.3459 69.0195 23.074 68.9975C22.2407 68.979 20.9789 68.4274 20.3818 67.9365Z" fill="#37474F"/>
<path d="M22.1189 66.8133C23.0196 67.1861 22.6249 67.3463 22.3753 67.3767C22.1256 67.4071 20.6108 66.5046 19.6932 65.7624C18.7367 64.9898 18.0063 63.9608 17.642 63.6757C17.5104 63.5712 17.367 63.4413 17.2405 63.3198C17.2692 63.1241 17.2911 62.9453 17.3113 62.8509C17.3192 62.8044 17.343 62.762 17.3788 62.7312C17.4145 62.7004 17.4598 62.6831 17.507 62.6822C17.507 62.7969 17.4868 62.9048 17.5728 62.9926C17.6516 63.0542 17.7344 63.1106 17.8208 63.1612C17.9518 63.296 18.0746 63.4385 18.1885 63.588C18.3029 63.7557 18.431 63.9137 18.5714 64.0603C19.3457 65.0691 21.2198 66.4405 22.1189 66.8133Z" fill="#37474F"/>
<path d="M22.3135 67.245C22.2932 67.2436 22.2737 67.2359 22.2579 67.223C22.2487 67.2157 22.2412 67.2066 22.2356 67.1962C22.2301 67.1859 22.2268 67.1745 22.2259 67.1628C22.2249 67.1511 22.2264 67.1394 22.2301 67.1283C22.2339 67.1172 22.2399 67.1069 22.2478 67.0982C22.5092 66.7946 23.7356 66.0861 24.4019 66.1671C24.4151 66.1655 24.4286 66.167 24.4412 66.1714C24.4538 66.1758 24.4652 66.183 24.4746 66.1925C24.4839 66.202 24.491 66.2135 24.4953 66.2262C24.4996 66.2388 24.5009 66.2523 24.4992 66.2655C24.4974 66.2787 24.4927 66.2914 24.4854 66.3025C24.478 66.3137 24.4682 66.323 24.4567 66.3298C24.4452 66.3365 24.4323 66.3406 24.419 66.3416C24.4057 66.3427 24.3924 66.3407 24.3799 66.3358C23.7575 66.2582 22.5919 66.965 22.3844 67.2062C22.3764 67.2177 22.3658 67.2271 22.3535 67.2339C22.3412 67.2406 22.3275 67.2444 22.3135 67.245Z" fill="#263238"/>
<path d="M21.5323 66.7559C21.5114 66.7559 21.4911 66.7487 21.4749 66.7356C21.466 66.7282 21.4586 66.719 21.4532 66.7086C21.4478 66.6983 21.4446 66.687 21.4436 66.6753C21.4427 66.6637 21.4441 66.652 21.4477 66.6409C21.4513 66.6298 21.4572 66.6196 21.4648 66.6108C21.7263 66.3072 22.9526 65.5987 23.6189 65.6796C23.6305 65.6809 23.6416 65.6844 23.6518 65.6901C23.662 65.6957 23.6709 65.7032 23.6782 65.7123C23.6854 65.7214 23.6907 65.7319 23.6939 65.7431C23.697 65.7543 23.6979 65.766 23.6965 65.7775C23.6953 65.7892 23.6917 65.8005 23.6859 65.8108C23.6802 65.8211 23.6725 65.8302 23.6632 65.8374C23.6539 65.8447 23.6433 65.8499 23.6319 65.853C23.6205 65.856 23.6086 65.8567 23.597 65.8551C22.9745 65.7792 21.8089 66.4843 21.6014 66.7255C21.5929 66.7354 21.5822 66.7433 21.5703 66.7485C21.5583 66.7538 21.5453 66.7563 21.5323 66.7559Z" fill="#263238"/>
<path d="M20.7488 66.2835C20.7285 66.2832 20.709 66.276 20.6932 66.2633C20.6842 66.2558 20.6768 66.2466 20.6715 66.2363C20.6661 66.2259 20.6629 66.2146 20.6619 66.203C20.661 66.1914 20.6623 66.1797 20.666 66.1686C20.6696 66.1575 20.6754 66.1473 20.6831 66.1384C20.9445 65.8331 22.1709 65.1263 22.8372 65.2056C22.8606 65.2086 22.882 65.2207 22.8965 65.2393C22.9111 65.258 22.9176 65.2817 22.9148 65.3051C22.9135 65.3168 22.9099 65.3281 22.9042 65.3383C22.8985 65.3485 22.8907 65.3575 22.8814 65.3646C22.8721 65.3717 22.8614 65.3768 22.85 65.3796C22.8386 65.3825 22.8268 65.3829 22.8152 65.381C22.1928 65.3051 21.0272 66.0119 20.8197 66.2531C20.8107 66.2629 20.7997 66.2707 20.7875 66.2759C20.7753 66.2811 20.7621 66.2837 20.7488 66.2835Z" fill="#263238"/>
<path d="M20.0269 65.7522C20.006 65.7522 19.9858 65.7451 19.9695 65.732C19.9606 65.7245 19.9532 65.7153 19.9478 65.705C19.9425 65.6946 19.9392 65.6833 19.9383 65.6717C19.9373 65.6601 19.9387 65.6484 19.9423 65.6373C19.946 65.6262 19.9518 65.616 19.9594 65.6071C20.2209 65.3018 21.4506 64.595 22.1135 64.6743C22.137 64.6773 22.1583 64.6894 22.1729 64.708C22.1874 64.7267 22.194 64.7504 22.1911 64.7738C22.1899 64.7855 22.1863 64.7968 22.1806 64.807C22.1748 64.8172 22.1671 64.8261 22.1577 64.8333C22.1484 64.8404 22.1377 64.8455 22.1264 64.8483C22.115 64.8512 22.1032 64.8516 22.0916 64.8497C21.4692 64.7738 20.3035 65.4806 20.0961 65.7218C20.0873 65.7315 20.0766 65.7392 20.0647 65.7444C20.0528 65.7496 20.0399 65.7523 20.0269 65.7522Z" fill="#263238"/>
<path d="M19.3159 65.2208C19.2961 65.2207 19.2769 65.2136 19.2619 65.2006C19.2528 65.1935 19.2452 65.1846 19.2395 65.1746C19.2339 65.1645 19.2303 65.1533 19.229 65.1418C19.2278 65.1304 19.2288 65.1187 19.2322 65.1077C19.2355 65.0966 19.241 65.0863 19.2484 65.0774C19.6094 64.6456 20.8914 64.0552 21.5561 64.1395C21.5693 64.1379 21.5828 64.1394 21.5954 64.1438C21.6079 64.1482 21.6194 64.1555 21.6288 64.165C21.6381 64.1744 21.6452 64.186 21.6495 64.1986C21.6538 64.2113 21.6551 64.2247 21.6534 64.2379C21.6516 64.2512 21.6469 64.2638 21.6396 64.275C21.6322 64.2861 21.6224 64.2954 21.6109 64.3022C21.5994 64.309 21.5865 64.313 21.5732 64.3141C21.5599 64.3151 21.5465 64.3131 21.5341 64.3082C20.9353 64.234 19.7073 64.8008 19.3868 65.1837C19.3791 65.1954 19.3685 65.2049 19.3561 65.2114C19.3437 65.2179 19.3299 65.2211 19.3159 65.2208Z" fill="#263238"/>
<path d="M11.2111 64.2577L12.1153 60.2497L8.1596 59.6323L8.0955 63.5897C8.0955 63.5897 7.79356 64.6524 8.01622 65.0184C8.23889 65.3845 10.614 65.7691 10.8316 65.5245C11.0492 65.2799 11.2111 64.2577 11.2111 64.2577Z" fill="#FFB573"/>
<path d="M10.8158 70.5714C10.7129 71.4705 10.524 72.0525 10.141 72.5383C9.75813 73.0241 9.05977 73.1085 8.37322 72.8757C7.68667 72.6429 6.80951 72.1031 6.65263 71.2968C6.49576 70.4905 6.55986 69.9608 6.75722 69.1393L10.8158 70.5714Z" fill="#263238"/>
<path d="M8.0976 63.5896C7.81083 63.5745 7.88843 64.2812 7.76023 65.4941C7.61347 66.8048 7.02307 67.8321 6.81221 68.883C6.57268 70.084 6.61823 70.639 7.06524 71.4386C7.51226 72.2381 9.19068 73.1727 10.0864 72.2162C10.8168 71.4369 10.891 70.4838 10.8893 69.2541C10.8893 67.9839 10.8725 67.0882 10.9787 66.1385C11.0783 65.2293 11.4595 64.3892 11.2166 64.2576C11.1913 64.3892 10.9467 65.3102 10.7864 65.295C10.7803 65.1824 10.7854 65.0694 10.8016 64.9577C10.8121 64.9051 10.8119 64.8509 10.8009 64.7984C10.7899 64.746 10.7683 64.6963 10.7375 64.6524C10.6003 64.5456 10.444 64.466 10.277 64.4179C9.997 64.3352 9.49937 64.2306 9.2143 64.1733C9.0726 64.1446 8.93091 64.121 8.78752 64.1041C8.66665 64.0873 8.54403 64.0873 8.42316 64.1041C8.38865 64.1073 8.35536 64.1185 8.32604 64.137C8.29672 64.1555 8.2722 64.1806 8.25448 64.2104C8.2378 64.2539 8.23034 64.3005 8.23255 64.347C8.22915 64.4312 8.21264 64.5143 8.18363 64.5933C8.17182 64.6287 8.14146 64.6692 8.10097 64.6557C8.08659 64.6485 8.07481 64.637 8.06725 64.6228C8.0597 64.6086 8.05674 64.5924 8.0588 64.5764C8.06555 64.4213 8.08748 63.6672 8.0976 63.5896Z" fill="#455A64"/>
<path d="M6.88877 68.544C6.85166 68.7126 6.62562 69.8631 6.9748 70.1178C7.35265 70.3944 7.61074 69.5021 7.61074 69.5021C7.61074 69.5021 8.53514 69.3655 9.8357 70.0419C9.75811 70.2241 9.93354 70.8735 10.303 70.7858C10.6724 70.6981 10.8799 69.3773 10.8832 69.3604C10.8832 70.5412 10.7888 71.4605 10.0803 72.2162C9.18458 73.1727 7.50616 72.2365 7.05914 71.4386C6.61212 70.6407 6.56658 70.0891 6.80611 68.883C6.82973 68.7632 6.8584 68.6502 6.88877 68.544Z" fill="#37474F"/>
<path d="M7.71065 69.5932C7.68366 70.0335 7.20459 69.8243 7.20459 69.1968C7.20459 68.5693 7.54196 67.0477 7.66679 66.0238C7.74944 64.5478 7.80848 63.5745 8.09525 63.5897C8.09525 63.6032 8.09525 63.6184 8.09525 63.6335C8.09525 63.6487 8.06489 64.477 8.06151 64.5697C8.00922 65.4705 7.99741 67.2215 7.86921 68.0345C7.78393 68.5503 7.73098 69.0709 7.71065 69.5932Z" fill="#37474F"/>
<path d="M9.67747 70.0115C9.82601 69.5134 9.94264 69.0063 10.0267 68.4933C10.165 67.6887 10.6474 66.0761 10.8853 65.209C10.9629 65.0673 11.2058 64.2576 11.2058 64.2576C11.4048 64.3133 11.2058 65.0859 11.113 65.4469C11.0202 65.8079 10.9072 66.1958 10.7908 66.7137C10.4939 67.7359 10.4652 69.271 10.2746 69.8597C10.084 70.4484 9.56783 70.4349 9.67747 70.0115Z" fill="#37474F"/>
<path d="M9.86264 70.0824C9.84908 70.0791 9.83603 70.074 9.82384 70.0672C9.15434 69.6999 8.39228 69.5357 7.63093 69.5949C7.6039 69.5984 7.57648 69.5922 7.55361 69.5774C7.53073 69.5625 7.51389 69.54 7.5061 69.5139C7.50311 69.5016 7.50287 69.4888 7.5054 69.4764C7.50792 69.4639 7.51316 69.4522 7.52074 69.4421C7.52831 69.4319 7.53803 69.4236 7.54921 69.4176C7.56038 69.4117 7.57274 69.4083 7.58539 69.4076C8.39938 69.339 9.21532 69.5152 9.92843 69.9137C9.94004 69.9193 9.95035 69.9273 9.9587 69.9372C9.96704 69.947 9.97324 69.9585 9.97689 69.9709C9.98054 69.9833 9.98157 69.9963 9.9799 70.0091C9.97824 70.0219 9.97392 70.0342 9.96723 70.0452C9.95516 70.0608 9.9389 70.0725 9.92036 70.0791C9.90183 70.0857 9.8818 70.0868 9.86264 70.0824Z" fill="#263238"/>
<path d="M10.1481 69.1513C10.1363 69.1491 10.125 69.1452 10.1144 69.1395C9.35479 68.75 8.50582 68.5678 7.65328 68.6115C7.6259 68.614 7.59851 68.6068 7.57597 68.591C7.55343 68.5753 7.53719 68.552 7.53014 68.5255C7.52795 68.513 7.52847 68.5003 7.53167 68.488C7.53487 68.4758 7.54068 68.4644 7.54869 68.4547C7.55669 68.4449 7.56672 68.437 7.57808 68.4314C7.58943 68.4259 7.60185 68.4229 7.61448 68.4226C8.51309 68.3735 9.40842 68.5663 10.2072 68.9809C10.2189 68.9865 10.2293 68.9943 10.2379 69.004C10.2465 69.0137 10.253 69.0251 10.2571 69.0374C10.2612 69.0497 10.2628 69.0626 10.2618 69.0756C10.2607 69.0885 10.2571 69.101 10.251 69.1125C10.2394 69.1282 10.2236 69.1402 10.2053 69.1471C10.1871 69.154 10.1672 69.1554 10.1481 69.1513Z" fill="#263238"/>
<path d="M7.7743 67.7089C7.75463 67.7049 7.73629 67.696 7.72096 67.683C7.70564 67.67 7.69381 67.6534 7.68659 67.6347C7.68277 67.6226 7.68169 67.6098 7.68341 67.5972C7.68514 67.5846 7.68963 67.5725 7.69657 67.5619C7.7035 67.5513 7.71271 67.5423 7.72352 67.5356C7.73434 67.529 7.7465 67.5248 7.75912 67.5234C9.05969 67.2956 10.2894 68.0294 10.3484 68.0598C10.3599 68.0656 10.37 68.0737 10.3782 68.0836C10.3864 68.0935 10.3925 68.1049 10.3961 68.1172C10.3998 68.1295 10.4009 68.1425 10.3993 68.1552C10.3978 68.168 10.3937 68.1803 10.3872 68.1914C10.3698 68.212 10.3455 68.2256 10.3188 68.2296C10.2921 68.2336 10.2649 68.2278 10.2422 68.2133C10.2304 68.2133 9.02764 67.4964 7.81985 67.7072C7.80498 67.7112 7.78942 67.7118 7.7743 67.7089Z" fill="#263238"/>
<path d="M7.89015 66.8587C7.87103 66.8545 7.85321 66.8457 7.83823 66.833C7.82325 66.8204 7.81155 66.8043 7.80412 66.7862C7.80002 66.7741 7.79866 66.7612 7.80014 66.7486C7.80163 66.7359 7.80591 66.7237 7.8127 66.7128C7.81948 66.702 7.82859 66.6929 7.83936 66.686C7.85013 66.6791 7.8623 66.6748 7.87497 66.6732C9.30543 66.3982 10.4677 67.1792 10.5166 67.2079C10.5278 67.2142 10.5376 67.2229 10.5452 67.2332C10.5528 67.2436 10.5582 67.2555 10.5609 67.2681C10.5636 67.2807 10.5636 67.2937 10.5609 67.3063C10.5582 67.3189 10.5529 67.3308 10.5453 67.3412C10.5268 67.3612 10.5016 67.3738 10.4745 67.3762C10.4474 67.3787 10.4203 67.371 10.3985 67.3547C10.3884 67.3547 9.26831 66.604 7.93739 66.8587C7.92174 66.8612 7.9058 66.8612 7.89015 66.8587Z" fill="#263238"/>
<path d="M8.02445 65.9022C8.00527 65.8987 7.98731 65.8904 7.97225 65.878C7.9572 65.8656 7.94556 65.8495 7.93842 65.8314C7.93401 65.8196 7.93231 65.8069 7.93345 65.7943C7.9346 65.7817 7.93855 65.7695 7.94503 65.7587C7.95151 65.7478 7.96034 65.7386 7.97088 65.7316C7.98141 65.7246 7.99338 65.7201 8.0059 65.7184C9.35538 65.4417 10.6138 66.2464 10.6661 66.2818C10.6774 66.288 10.6872 66.2965 10.6951 66.3068C10.7029 66.317 10.7085 66.3288 10.7115 66.3413C10.7145 66.3539 10.7149 66.3669 10.7126 66.3796C10.7103 66.3923 10.7053 66.4044 10.6981 66.415C10.6802 66.4352 10.6556 66.448 10.6288 66.4511C10.602 66.4543 10.5751 66.4474 10.553 66.4319C10.5396 66.4235 9.31827 65.6458 8.07168 65.9039C8.05595 65.9059 8.04 65.9053 8.02445 65.9022Z" fill="#263238"/>
<path d="M9.61666 33.3561C8.35995 36.4363 9.18482 40.5556 9.05662 43.9124C8.90312 47.9288 8.83396 51.0765 8.83396 51.0765C8.78673 51.6163 8.47803 52.372 8.22838 55.0356C7.96185 57.8459 7.97197 61.8639 7.97197 61.8639C7.97197 61.8639 10.3471 62.8761 11.8231 62.3548C11.8231 62.3548 13.4104 56.3361 14.1847 53.0282C14.9066 49.8873 15.4397 44.9954 15.4397 44.9954L16.3017 49.7186C16.3017 49.7186 16.1937 51.7428 16.2443 53.1631C16.3034 54.8146 17.194 61.1318 17.194 61.1318C17.194 61.1318 19.4004 62.4527 20.9355 61.1926C20.9355 61.1926 21.6844 51.9149 21.7333 49.9362C21.8312 46.0429 21.9425 38.3863 21.482 33.3645L9.61666 33.3561Z" fill="#37474F"/>
<path d="M15.4399 44.9954L16.4251 38.8181C16.4251 38.8181 18.5505 38.4639 19.4614 37.58C18.9458 38.475 18.0967 39.1295 17.0998 39.4001L16.0675 45.1152L16.3019 49.7186L15.4399 44.9954Z" fill="#263238"/>
<path d="M7.9314 61.9956C8.59433 62.5151 10.5258 62.9588 11.8483 62.4797L12.1148 61.3579C11.1162 61.6953 9.0599 61.4811 7.95333 60.7979L7.9314 61.9956Z" fill="#455A64"/>
<path d="M17.1933 61.2533C17.6403 61.7071 19.7151 62.0816 20.9415 61.3646L21.0309 60.2446C20.1014 60.7607 17.9675 60.673 17.0566 60.1417L17.1933 61.2533Z" fill="#455A64"/>
<path d="M8.98762 44.4641C8.98762 44.4641 8.78182 49.4673 8.79531 49.8317C8.80881 50.196 11.5331 50.9163 11.6006 50.6852C11.7186 50.3006 11.6883 49.4403 11.9227 45.2873C9.66742 45.0039 8.98762 44.4641 8.98762 44.4641Z" fill="#455A64"/>
<path d="M11.4988 46.7211C11.4149 46.7012 11.3285 46.6938 11.2424 46.6992C11.1423 46.6992 11.0428 46.6941 10.9438 46.684C10.7326 46.6671 10.5229 46.6349 10.3163 46.5878C10.083 46.5346 9.85355 46.4653 9.62977 46.3804C9.44759 46.3095 9.27553 46.2117 9.09166 46.1476C9.07479 46.1476 9.07311 46.1746 9.09166 46.1813C9.27067 46.3023 9.46386 46.4009 9.66688 46.4748C9.85133 46.5487 10.0407 46.6096 10.2337 46.657C10.4396 46.7076 10.6487 46.7448 10.8595 46.7683C10.9641 46.7802 11.0703 46.7869 11.1749 46.7903C11.2876 46.8112 11.4037 46.803 11.5123 46.7667C11.514 46.7599 11.5157 46.7262 11.4988 46.7211Z" fill="#37474F"/>
<path d="M10.3152 46.0227C10.2899 45.9705 10.2697 45.9384 10.2107 45.9317C10.1623 45.9262 10.1137 45.9388 10.0741 45.9671C10.0558 45.9804 10.0404 45.9973 10.0289 46.0167C10.0173 46.0361 10.0097 46.0577 10.0066 46.0801C10.0025 46.1159 10.0086 46.1521 10.0241 46.1847C10.0397 46.2172 10.064 46.2447 10.0945 46.2641C10.1249 46.2834 10.1601 46.2938 10.1962 46.2941C10.2323 46.2944 10.2677 46.2845 10.2984 46.2656C10.3149 46.2517 10.3279 46.2341 10.3361 46.2141C10.3444 46.1941 10.3476 46.1724 10.3456 46.1509C10.3457 46.1064 10.3353 46.0625 10.3152 46.0227ZM10.2646 46.1745C10.2483 46.1939 10.2259 46.2071 10.2011 46.212C10.1762 46.2169 10.1505 46.2132 10.128 46.2015C10.0572 46.161 10.0724 46.0329 10.1567 46.0177C10.1834 46.0142 10.2105 46.0208 10.2326 46.0362C10.2536 46.052 10.2683 46.0747 10.2742 46.1004C10.2801 46.126 10.2767 46.1528 10.2646 46.1762V46.1745Z" fill="#37474F"/>
<path d="M18.1379 20.3252C19.5077 20.5715 20.1723 20.9206 21.2013 22.5721C22.2303 24.2235 24.322 28.9383 24.322 28.9383L26.8337 34.0646L24.8866 35.1841C24.8866 35.1841 23.379 33.4017 22.4242 32.231C21.7174 31.3657 21.2434 30.7331 20.319 29.1171C19.3946 27.5011 18.5782 25.8328 18.5782 25.8328L18.1379 20.3252Z" fill="#FFB573"/>
<path d="M10.6792 30.0212C10.6792 30.3754 9.77676 32.1567 9.28589 34.078C12.2396 37.887 20.9927 35.8088 21.6337 33.6648C21.4953 31.1176 21.3773 24.6823 20.8189 23.5183C20.2008 22.2503 19.2803 21.1536 18.1385 20.3251C17.5214 20.2063 16.8979 20.1235 16.2712 20.0771C15.3392 19.9804 14.3986 20.0042 13.4727 20.148C12.6444 20.2762 11.2798 20.6355 11.2798 20.6355C10.7602 21.0741 9.323 22.9212 9.65531 25.1478C9.8105 26.1701 10.6894 27.5044 10.6792 30.0212Z" fill="#2196F3"/>
<path opacity="0.2" d="M10.6792 30.0212C10.6792 30.3754 9.77676 32.1567 9.28589 34.078C12.2396 37.887 20.9927 35.8088 21.6337 33.6648C21.4953 31.1176 21.3773 24.6823 20.8189 23.5183C20.2008 22.2503 19.2803 21.1536 18.1385 20.3251C17.5214 20.2063 16.8979 20.1235 16.2712 20.0771C15.3392 19.9804 14.3986 20.0042 13.4727 20.148C12.6444 20.2762 11.2798 20.6355 11.2798 20.6355C10.7602 21.0741 9.323 22.9212 9.65531 25.1478C9.8105 26.1701 10.6894 27.5044 10.6792 30.0212Z" fill="white"/>
<path d="M15.641 34.4188C15.5414 34.2012 16.5789 34.0224 16.9601 33.5501C17.149 33.3156 17.1288 32.8619 16.7357 33.0171C15.9244 33.3443 15.4605 33.2633 14.9224 33.4017" fill="#FFB573"/>
<path d="M14.9223 33.4018C14.3859 33.5401 13.9574 33.557 13.1494 33.3461C12.2908 33.1218 9.35904 30.7062 9.35904 30.7062L11.3748 25.6456C11.3748 25.6456 12.3279 23.4072 11.2821 20.6374C9.28987 21.0658 8.81249 21.8081 8.44139 22.4491C8.07028 23.0901 7.87292 23.6754 6.90297 26.3288C6.06123 28.6331 5.62771 29.9826 5.4371 30.9238C5.20262 32.081 5.96002 32.6866 7.41072 33.5334C8.86141 34.3802 9.82461 34.8255 11.9433 35.8376C12.9554 36.3251 13.588 36.4398 14.5208 36.7047C14.8713 36.8173 15.2373 36.8742 15.6055 36.8734C15.9426 36.8806 16.2763 36.8047 16.5771 36.6524C16.629 36.6176 16.6859 36.5909 16.7458 36.5731C16.8067 36.5648 16.8681 36.5608 16.9296 36.5613C17.0439 36.5614 17.1575 36.5449 17.267 36.5124C17.3782 36.4608 17.4839 36.3981 17.5825 36.3251C17.6286 36.2928 17.6765 36.2629 17.7258 36.2357C17.7803 36.2126 17.8368 36.1945 17.8945 36.1817C18.046 36.1576 18.1921 36.1074 18.3264 36.0333C18.3602 36.0111 18.3876 35.9804 18.406 35.9443C18.4243 35.9082 18.4329 35.8679 18.4309 35.8275C18.4309 35.8275 18.6283 35.8106 18.6958 35.8005C18.789 35.7868 18.8806 35.7637 18.969 35.7314C18.987 35.727 19.0038 35.7189 19.0183 35.7075C19.0328 35.6962 19.0448 35.6819 19.0534 35.6656C19.0593 35.644 19.0593 35.6213 19.0534 35.5998C18.9758 35.2624 18.6351 35.1561 18.3348 35.0937C17.5521 34.925 17.0258 34.9841 16.2616 34.7294C15.8467 34.591 15.7438 34.5506 15.6459 34.4291" fill="#FFB573"/>
<path d="M9.35868 30.7061C8.9042 30.2726 8.40619 29.887 7.87256 29.5557C7.87256 29.5557 8.45115 29.5 9.48013 30.3991L9.35868 30.7061Z" fill="#F0997A"/>
<path d="M18.3908 35.8409C18.1925 35.8634 17.9932 35.8758 17.7936 35.878C17.5929 35.878 17.3939 35.878 17.1948 35.8864C17.097 35.8864 16.9974 35.8864 16.8945 35.8864C16.7916 35.8864 16.6938 35.8763 16.5943 35.8645C16.3952 35.8426 16.1979 35.8139 16.0022 35.7734L16.3008 35.7903L16.5993 35.8071C16.6989 35.8071 16.7984 35.8071 16.8962 35.8071C16.9941 35.8071 17.0936 35.8071 17.1948 35.8071C17.3939 35.8071 17.5946 35.8071 17.7936 35.8156L18.3908 35.8409Z" fill="#F0997A"/>
<path d="M17.7481 36.2237C17.5996 36.2737 17.4465 36.3087 17.291 36.3283C17.1392 36.3469 16.9857 36.3587 16.8322 36.3654C16.6787 36.3722 16.5251 36.3654 16.37 36.3654C16.2163 36.3626 16.0631 36.3497 15.9111 36.3266C16.0646 36.3266 16.2165 36.3131 16.37 36.3064L16.8288 36.2878L17.2859 36.2676C17.4361 36.2541 17.5946 36.2372 17.7481 36.2237Z" fill="#F0997A"/>
<path d="M27.8311 34.1894C28.3017 34.1101 28.3203 34.0545 28.354 33.8082C28.3863 33.6165 28.3725 33.4198 28.3139 33.2344C28.2552 33.0491 28.1533 32.8803 28.0166 32.7421C27.767 32.5076 27.5274 32.2596 27.3419 32.1989C27.1563 32.1382 26.9961 32.5076 27.2424 32.8939C27.6286 33.5012 27.4903 33.6327 27.4903 33.6327C27.3269 33.373 27.1501 33.1219 26.9606 32.8804C26.792 32.6864 26.3635 32.4401 26.1172 32.263C25.8709 32.0859 25.5622 32.317 25.8254 32.7691L25.3801 32.4486C25.068 32.2225 24.8335 32.2799 24.874 32.6527C24.8843 32.7793 24.9379 32.8984 25.0258 32.99C25.0258 32.99 24.7391 32.7033 24.6378 32.7927C24.3494 33.0491 24.4557 33.2987 24.8673 34.0443C25.2181 34.6786 25.1776 35.0379 24.928 35.183L24.7593 35.2606C24.7593 35.2606 25.1102 35.3533 25.4459 35.4141C25.6904 35.4579 25.9266 35.468 26.0869 35.1762C26.0869 35.1762 26.3956 35.4967 26.6098 35.3213C26.7563 35.1826 26.8714 35.014 26.9472 34.827C27.0356 34.8514 27.129 34.8502 27.2168 34.8236C27.3046 34.797 27.383 34.7462 27.4431 34.6769C27.5676 34.5533 27.6476 34.392 27.6708 34.2181L27.8311 34.1894Z" fill="#FFB573"/>
<path d="M26.3892 32.764C26.5276 32.8548 26.657 32.9587 26.7754 33.0744C26.876 33.2094 26.954 33.3598 27.0065 33.5197C27.1281 33.8219 27.2235 34.134 27.2916 34.4525C27.1279 34.1712 26.9879 33.8767 26.8733 33.572C26.825 33.4237 26.7629 33.2802 26.6877 33.1436C26.6 33.0187 26.4786 32.899 26.3892 32.764Z" fill="#F0997A"/>
<path d="M25.5952 32.9817C25.753 33.0694 25.8868 33.1946 25.9849 33.3461C26.0815 33.4955 26.1639 33.6536 26.2312 33.8184C26.3691 34.1439 26.4721 34.4832 26.5382 34.8305C26.3755 34.5206 26.2291 34.2025 26.0996 33.8774C25.9889 33.55 25.8178 33.2462 25.5952 32.9817Z" fill="#F0997A"/>
<path d="M38.9468 17.0481C38.8246 16.9899 38.6909 16.9599 38.5555 16.9604C38.3285 16.969 38.1079 17.0377 37.9162 17.1595C37.6712 17.3034 37.4522 17.4876 37.2684 17.7043C37.0682 17.9364 36.8951 18.1905 36.7522 18.4617C36.6066 18.7426 36.4934 19.0391 36.4149 19.3456C36.3346 19.645 36.2932 19.9534 36.2917 20.2633C36.2849 20.5295 36.3266 20.7947 36.4149 21.046C36.4795 21.2364 36.5964 21.4047 36.7522 21.5318L36.8028 21.5672C36.6105 21.4593 35.2408 20.6816 35.1059 20.5804C34.9505 20.4529 34.8337 20.2847 34.7685 20.0946C34.681 19.8431 34.6393 19.5781 34.6453 19.3119C34.6476 19.002 34.6889 18.6937 34.7685 18.3942C34.8471 18.0878 34.9603 17.7912 35.1059 17.5103C35.2471 17.2382 35.4204 16.9839 35.622 16.7529C35.8057 16.5368 36.0241 16.3527 36.2681 16.2081C36.4598 16.0863 36.6805 16.0177 36.9074 16.009C37.0667 16.0073 37.2235 16.0487 37.3612 16.1288C37.3797 16.1406 38.5555 16.817 38.9468 17.0481Z" fill="#263238"/>
<path d="M39.5407 4.41367C39.351 4.31302 39.1329 4.27915 38.9216 4.31752C38.7499 4.34331 38.5829 4.39388 38.4257 4.46765C38.4361 4.56852 38.4412 4.66987 38.4409 4.77128C38.4436 5.29246 38.358 5.81033 38.1879 6.30295C38.0187 6.79064 37.8082 7.26299 37.5587 7.71484C37.3073 8.16861 37.0391 8.61225 36.7523 9.04071C36.4656 9.46917 36.2058 9.89257 35.9713 10.3092C35.7469 10.7095 35.56 11.1296 35.413 11.5642C35.2745 11.9713 35.2245 12.4032 35.2662 12.8311L35.4501 15.0678L37.0965 16.0209L36.916 13.7858C36.8731 13.3582 36.922 12.9263 37.0594 12.519C37.2055 12.0835 37.3937 11.6632 37.6211 11.264C37.8527 10.8468 38.1125 10.4239 38.4004 9.99547C38.6855 9.56701 38.9554 9.12337 39.205 8.6696C39.4554 8.21794 39.6665 7.74556 39.8359 7.25771C40.0054 6.76555 40.0904 6.24825 40.0873 5.72773C40.0989 5.43966 40.0501 5.15234 39.9439 4.8843C39.866 4.68669 39.724 4.52095 39.5407 4.41367Z" fill="#263238"/>
<path d="M39.6029 0.171141C39.2355 0.0125073 38.8304 -0.0372618 38.4356 0.0277578C37.8308 0.127659 37.2515 0.344841 36.7301 0.667077C36.2766 0.928693 35.8481 1.23134 35.4498 1.57123C35.0583 1.9066 34.6913 2.26964 34.3517 2.65756C34.0143 3.04468 33.7 3.45136 33.4104 3.87547C33.1203 4.30056 32.8537 4.72733 32.6108 5.1558L33.3092 6.23032C33.3405 6.30187 33.3944 6.36114 33.4627 6.39901C33.5656 6.45299 34.9606 7.26774 35.1057 7.34871C35.0398 7.30893 34.9874 7.25012 34.9556 7.18002L34.2572 6.1055C34.5001 5.67703 34.7672 5.25026 35.0585 4.82517C35.3469 4.40028 35.6613 3.99354 35.9997 3.60726C36.3387 3.21936 36.7052 2.85632 37.0962 2.52093C37.4946 2.18127 37.9232 1.87863 38.3765 1.61678C38.8981 1.29374 39.4781 1.07651 40.0836 0.977458C40.4951 0.911472 40.917 0.970224 41.2948 1.14614C40.8241 0.867812 39.6467 0.189697 39.6029 0.171141Z" fill="#37474F"/>
<path d="M33.4627 6.3975C33.5656 6.45148 34.9606 7.26623 35.1057 7.3472C35.0398 7.30743 34.9874 7.24862 34.9556 7.17852L34.2572 6.10399L32.6108 5.1526L33.3092 6.22713C33.3402 6.2993 33.3941 6.3592 33.4627 6.3975Z" fill="#263238"/>
<path d="M34.2568 6.10724C34.4997 5.67878 34.7668 5.252 35.0581 4.82691C35.347 4.40232 35.6613 3.99561 35.9994 3.60901C36.3385 3.22068 36.7055 2.8576 37.0975 2.52267C37.495 2.18185 37.9237 1.87914 38.3778 1.61851C38.8988 1.29553 39.4783 1.07829 40.0832 0.979199C40.5347 0.90166 40.9992 0.979563 41.4007 1.20018C41.7905 1.44737 42.0871 1.81702 42.2441 2.25108C42.4638 2.84426 42.5663 3.47441 42.546 4.10662C42.5514 4.78864 42.4715 5.46865 42.3082 6.13085C42.1618 6.72208 41.9642 7.29947 41.7178 7.8565C41.492 8.36384 41.231 8.85478 40.9368 9.32575L40.1355 10.5993C39.8836 10.9974 39.6666 11.3713 39.4844 11.7211C39.3136 12.0354 39.2021 12.3785 39.1555 12.7332L38.9092 14.9717L37.0908 16.0209L36.9069 13.7875C36.8654 13.3597 36.9149 12.928 37.052 12.5207C37.1989 12.0857 37.3864 11.6655 37.612 11.2656C37.8448 10.8484 38.1051 10.4256 38.393 9.99712C38.6809 9.56866 38.9497 9.12615 39.1993 8.66957C39.4485 8.2181 39.659 7.74634 39.8285 7.25936C39.9984 6.76725 40.084 6.24999 40.0815 5.72938C40.0919 5.44124 40.0425 5.15408 39.9365 4.88596C39.8622 4.68484 39.718 4.51712 39.5304 4.41339C39.3428 4.30966 39.1241 4.27682 38.9142 4.32086C38.6375 4.36781 38.3724 4.46745 38.1332 4.61437C37.7554 4.82789 37.4067 5.08926 37.0958 5.39201C36.8367 5.64782 36.5954 5.92117 36.3738 6.21013C36.1782 6.47328 36.0112 6.7027 35.8678 6.90174C35.7738 7.0554 35.6492 7.18805 35.5017 7.29141C35.2436 7.44154 35.0564 7.40443 34.9417 7.18513L34.2568 6.10724ZM36.2895 20.2633C36.2916 19.9534 36.3335 19.6449 36.4143 19.3457C36.4914 19.0387 36.6047 18.742 36.7517 18.4618C36.8934 18.1899 37.0666 17.9357 37.2679 17.7044C37.4508 17.4874 37.6693 17.3032 37.9139 17.1595C38.1054 17.0375 38.3263 16.9693 38.5533 16.9621C38.7381 16.9585 38.9192 17.0147 39.0694 17.1224C39.2304 17.2478 39.3517 17.4171 39.4186 17.6099C39.5107 17.8562 39.5548 18.1179 39.5485 18.3808C39.5481 18.6946 39.5044 19.0068 39.4186 19.3086C39.3355 19.6153 39.2184 19.9118 39.0694 20.1925C38.9274 20.462 38.7541 20.714 38.5533 20.9431C38.3706 21.1549 38.1547 21.3355 37.9139 21.4779C37.7186 21.5984 37.4969 21.6697 37.2679 21.6853C37.0831 21.6964 36.9004 21.6421 36.7517 21.5318C36.5946 21.4059 36.4774 21.2372 36.4143 21.046C36.3255 20.7949 36.2832 20.5296 36.2895 20.2633Z" fill="#B1DAFB"/>
<path d="M11.5681 11.567C11.5238 11.7046 11.4944 11.8466 11.4804 11.9904C11.4694 12.0823 11.4694 12.1752 11.4804 12.2671C11.5223 12.4788 11.636 12.6696 11.8022 12.8073C11.9685 12.945 12.1771 13.0211 12.393 13.0228C12.6078 13.0148 12.8179 12.9581 13.0075 12.857C13.1972 12.7559 13.3614 12.613 13.4878 12.4392C13.8437 11.9854 14.375 10.921 13.6834 10.5347C13.4514 10.4176 13.1915 10.3669 12.9325 10.3884C12.6735 10.4098 12.4255 10.5025 12.2159 10.6561C11.9093 10.8838 11.6825 11.2027 11.5681 11.567Z" fill="#2196F3"/>
<path opacity="0.25" d="M11.5681 11.567C11.5238 11.7046 11.4944 11.8466 11.4804 11.9904C11.4694 12.0823 11.4694 12.1752 11.4804 12.2671C11.5223 12.4788 11.636 12.6696 11.8022 12.8073C11.9685 12.945 12.1771 13.0211 12.393 13.0228C12.6078 13.0148 12.8179 12.9581 13.0075 12.857C13.1972 12.7559 13.3614 12.613 13.4878 12.4392C13.8437 11.9854 14.375 10.921 13.6834 10.5347C13.4514 10.4176 13.1915 10.3669 12.9325 10.3884C12.6735 10.4098 12.4255 10.5025 12.2159 10.6561C11.9093 10.8838 11.6825 11.2027 11.5681 11.567Z" fill="black"/>
<path d="M19.9946 11.0509C19.5324 10.3761 18.7109 10.1501 18.2487 10.3761C17.8304 9.81104 16.9836 9.48716 16.2852 9.44499C13.6183 9.2763 12.7563 10.5937 12.6113 11.0829C11.3495 11.2516 10.442 13.1443 11.2061 15.7454C11.5435 16.8773 13.2573 18.2268 13.3602 18.8307L14.5781 18.4224C14.6386 17.8701 14.8512 17.3454 15.1922 16.9067C15.5332 16.4681 15.9893 16.1326 16.5096 15.9377C18.3415 15.2191 19.3772 14.7721 19.6572 14.401C20.7891 13.2573 20.4585 11.7189 19.9946 11.0509Z" fill="#263238"/>
<path d="M12.3411 9.16666C11.6326 9.251 11.1856 9.6103 11.0506 10.2952C10.4181 10.2041 9.72308 10.3205 9.25414 10.8012C9.09913 10.9645 8.98204 11.16 8.91119 11.3737C8.84034 11.5874 8.81748 11.8141 8.84423 12.0377C8.87628 12.4611 9.09557 12.6854 9.35029 12.9806C9.12061 13.0794 8.93562 13.2597 8.83097 13.4868C8.72632 13.7138 8.70941 13.9716 8.7835 14.2104C8.86953 14.5056 9.98117 15.5969 9.08882 15.6847C9.49536 15.9664 10.1836 15.7268 10.1364 15.1786C10.1305 15.3418 10.1571 15.5044 10.2145 15.6572C10.2719 15.8101 10.3591 15.95 10.4709 16.0689C10.5828 16.1878 10.7171 16.2833 10.8661 16.35C11.0151 16.4167 11.1759 16.4531 11.3391 16.4572C12.3343 16.5011 13.1423 15.9512 13.3802 14.9863L13.8609 10.0438C13.6653 9.41294 13.0327 9.08232 12.3411 9.16666Z" fill="#263238"/>
<path d="M19.6472 13.1139C19.7074 13.4034 19.7491 13.6963 19.772 13.9911C19.8268 14.5792 19.8437 15.1703 19.8226 15.7606C19.7349 17.8624 19.1479 18.6434 18.5946 18.9083C18.0395 19.1388 17.4291 19.2022 16.8385 19.0904L16.8638 20.3607C16.8638 20.3607 18.7751 21.6477 17.0646 22.1403C16.4118 22.3275 15.0606 22.0492 14.3049 21.4554C13.5492 20.8616 13.3468 20.4939 13.3468 20.4939L13.313 17.4576C13.313 17.4576 12.6535 18.0733 11.8455 17.2113C11.2686 16.599 11.1353 15.2967 11.8961 14.8936C12.0184 14.818 12.155 14.7686 12.2973 14.7486C12.4397 14.7285 12.5847 14.7382 12.7231 14.7771C12.8615 14.8159 12.9903 14.883 13.1014 14.9742C13.2126 15.0654 13.3036 15.1787 13.3687 15.3068C13.6555 15.8281 14.1851 15.629 14.1767 15.0285C14.1683 14.428 14.2071 14.2441 14.4044 13.9354C15.0792 12.8913 14.6035 12.5758 15.2293 11.9736C15.5886 11.6362 16.5619 11.4996 17.2991 12.0579C18.1543 11.3006 19.3182 11.6278 19.6472 13.1139Z" fill="#FFB573"/>
<path d="M17.1987 13.8594L17.6441 16.2295L18.8232 15.6762L17.1987 13.8594Z" fill="#F0997A"/>
<path d="M16.838 19.082C15.2304 18.7446 14.3077 18.1036 14.0159 17.4559C14.1202 17.9992 14.4341 18.4797 14.8897 18.7936C15.6656 19.2861 16.8464 19.4919 16.8464 19.4919L16.838 19.082Z" fill="#F0997A"/>
<path d="M18.5294 13.2421L19.2581 13.62C19.236 13.6686 19.2042 13.7122 19.1647 13.7482C19.1252 13.7841 19.0788 13.8117 19.0283 13.8292C18.9778 13.8467 18.9243 13.8538 18.8711 13.85C18.8178 13.8462 18.7658 13.8317 18.7183 13.8072C18.6206 13.755 18.5465 13.6674 18.5114 13.5623C18.4762 13.4572 18.4827 13.3426 18.5294 13.2421Z" fill="#263238"/>
<path d="M15.3877 13.7244L16.194 13.3785C16.2203 13.4302 16.2356 13.4867 16.2389 13.5446C16.2422 13.6024 16.2336 13.6604 16.2135 13.7147C16.1933 13.7691 16.1622 13.8186 16.122 13.8604C16.0818 13.9021 16.0334 13.935 15.9798 13.9571C15.8701 14.002 15.7474 14.0028 15.6371 13.9594C15.5268 13.9161 15.4375 13.8319 15.3877 13.7244Z" fill="#263238"/>
<path d="M19.0299 14.4851C19.0906 14.6538 18.9743 14.7078 18.8141 14.7651C18.6538 14.8224 18.5088 14.8579 18.4498 14.6909C18.4327 14.652 18.4237 14.6101 18.4236 14.5676C18.4234 14.5252 18.432 14.4831 18.4489 14.4441C18.4657 14.4052 18.4904 14.3701 18.5214 14.3411C18.5524 14.3121 18.589 14.2898 18.6291 14.2756C18.6691 14.2614 18.7116 14.2556 18.7539 14.2586C18.7963 14.2616 18.8376 14.2733 18.8752 14.2929C18.9128 14.3126 18.946 14.3398 18.9726 14.3729C18.9992 14.406 19.0187 14.4442 19.0299 14.4851Z" fill="#263238"/>
<path d="M18.4785 14.3486C18.5508 14.3083 18.6287 14.2793 18.7096 14.2626C18.7879 14.2432 18.8691 14.2381 18.9492 14.2474C19.034 14.2564 19.1168 14.2798 19.1938 14.3165C19.1938 14.3165 19.2056 14.3368 19.1938 14.3368C19.128 14.3368 19.0706 14.3199 18.9745 14.3165C18.7752 14.3218 18.5799 14.3738 18.4043 14.4683L18.3065 14.524C18.3065 14.524 18.2913 14.5071 18.2947 14.4987C18.3446 14.4361 18.4073 14.385 18.4785 14.3486Z" fill="#263238"/>
<path d="M15.9165 14.5965C15.8794 14.7651 16.0026 14.809 16.1695 14.8444C16.3365 14.8798 16.4832 14.8967 16.5203 14.723C16.5302 14.6827 16.532 14.6409 16.5254 14.6C16.5188 14.5591 16.504 14.5199 16.4819 14.4848C16.4599 14.4497 16.431 14.4194 16.397 14.3957C16.363 14.3721 16.3245 14.3555 16.2839 14.347C16.2434 14.3385 16.2015 14.3383 16.1609 14.3463C16.1202 14.3543 16.0816 14.3705 16.0473 14.3937C16.013 14.417 15.9837 14.447 15.9613 14.4818C15.9388 14.5166 15.9236 14.5556 15.9165 14.5965Z" fill="#263238"/>
<path d="M16.4457 14.3874C16.3684 14.3577 16.2871 14.3395 16.2045 14.3334C16.1248 14.3255 16.0444 14.3312 15.9667 14.3503C15.8839 14.3722 15.8049 14.4063 15.7322 14.4515C15.7322 14.4515 15.7322 14.4734 15.7322 14.4718C15.7963 14.4566 15.8519 14.438 15.9464 14.4228C16.036 14.4119 16.1267 14.4119 16.2163 14.4228C16.3246 14.4317 16.4309 14.4567 16.5317 14.4971L16.6363 14.5375C16.6465 14.5375 16.6498 14.519 16.6363 14.5122C16.5822 14.4578 16.5173 14.4153 16.4457 14.3874Z" fill="#263238"/>
<path d="M17.3118 16.9937C17.3506 16.9532 17.273 16.8487 17.2443 16.825C17.2091 16.7958 17.1712 16.7698 17.1313 16.7474C17.0558 16.7033 16.9747 16.6698 16.89 16.6479C16.716 16.5987 16.5306 16.6076 16.3621 16.6732C16.33 16.685 16.3384 16.7323 16.3621 16.7525C16.3715 16.7666 16.3842 16.7782 16.3992 16.7862C16.4156 16.7914 16.4333 16.7914 16.4498 16.7862C16.4751 16.7862 16.5004 16.7744 16.5257 16.7711C16.5656 16.7623 16.6063 16.7578 16.6471 16.7576C16.7235 16.7562 16.7996 16.7658 16.8732 16.7862C16.9435 16.8047 17.0106 16.8337 17.0722 16.8723C17.1245 16.9043 17.1751 16.9397 17.2257 16.9752C17.2493 16.992 17.2713 17.0123 17.3016 16.9971C17.3052 16.9966 17.3086 16.9954 17.3118 16.9937Z" fill="#B16668"/>
</svg>
