<svg width="60" height="70" viewBox="0 0 60 70" fill="none" xmlns="http://www.w3.org/2000/svg">
<path d="M2.71631 49.6196C2.78509 56.4177 2.71631 66.1002 2.71631 66.1002H31.9036L25.0825 48.2691L2.71631 49.6196Z" fill="#263238"/>
<path d="M40.176 46.091C41.476 46.5243 44.1976 46.8774 45.305 47.0631C46.0112 47.3383 47.1805 47.9802 47.5817 48.2095C47.983 48.4388 47.2814 49.0716 46.401 48.7621C45.5205 48.4525 42.0447 47.751 42.0447 47.751L40.176 46.091Z" fill="#F28F8F"/>
<path d="M48.7899 51.3806C48.4574 50.7753 48.1318 50.1402 47.7879 49.567C47.6458 49.3377 46.2838 48.2211 45.6258 47.7969C45.466 47.6861 45.2955 47.5916 45.1168 47.5149C44.4194 47.2836 43.7089 47.0937 42.9891 46.9463C42.2164 46.7423 41.446 46.5267 40.6963 46.2791C40.0786 46.1305 39.5307 45.7744 39.1441 45.2703C38.4173 44.454 37.5391 43.5782 36.8283 42.7482C35.6819 41.3725 32.0135 37.2272 31.2775 36.3284L25.9124 39.0339C25.9124 39.6071 25.9124 40.5884 27.4256 41.8838C30.9542 44.9057 32.6715 46.1576 34.5057 47.68C36.0648 48.9731 36.0121 49.5784 36.8742 49.9407C37.4248 50.1541 37.9967 50.3079 38.58 50.3993C38.8408 50.4492 39.0987 50.5127 39.3527 50.5896C39.6095 50.6652 41.187 51.227 41.3979 51.3072C42.0519 51.5332 42.6906 51.8013 43.3101 52.1097C43.4 52.1547 43.4852 52.2085 43.5646 52.2702C43.6378 52.3304 43.7047 52.398 43.7641 52.4719C43.9521 52.6898 44.0873 52.9557 44.2731 53.1735C44.3519 53.2634 44.4361 53.3484 44.5253 53.428C44.8463 53.7032 45.3071 53.9279 45.7359 53.788C45.8826 53.7399 45.9995 53.6665 45.9651 53.4945C45.9303 53.3541 45.873 53.2201 45.7955 53.0979C45.6143 52.7425 45.4997 52.5362 45.2246 52.0317C45.1214 51.812 44.9978 51.6024 44.8554 51.4058C44.5918 51.1467 44.5321 51.0573 44.312 50.8372C44.5413 50.9518 45.6739 51.7153 45.7473 51.7933C45.8872 51.9446 46.1554 52.4972 46.3251 52.7563C46.4128 52.9131 46.5307 53.0509 46.6719 53.1619C46.8132 53.2729 46.9751 53.3548 47.1482 53.4028C47.6618 53.4945 47.8361 53.2698 47.8361 53.2423C47.7001 52.8332 47.529 52.4366 47.3248 52.057C47.1345 51.6236 46.9717 51.2522 46.8249 50.9954C46.6148 50.6714 46.3686 50.3722 46.0912 50.1035C46.3045 50.2135 46.9144 50.6056 46.9923 50.6652C47.1222 50.7804 47.2363 50.9122 47.3316 51.0573C47.5609 51.4127 47.7191 51.6695 48.0378 51.83C48.1348 51.8868 48.2422 51.9237 48.3536 51.9382C48.4651 51.9528 48.5784 51.9448 48.6867 51.9148C48.7776 51.8819 48.8545 51.8188 48.9045 51.736C48.8926 51.6106 48.8534 51.4893 48.7899 51.3806Z" fill="#FFB573"/>
<path d="M26.2586 19.9001C27.8934 20.3197 28.8334 20.5582 29.6061 22.0187C30.1174 22.9862 30.6997 25.9371 30.9818 29.6789C31.3509 34.4938 31.3532 36.0804 31.3532 36.0804L33.176 38.4374C33.176 38.4374 30.0348 39.3041 28.4849 42.9198C28.4849 42.9198 27.4463 42.076 26.3595 41.0672C25.2727 40.0584 25.0595 39.3912 24.711 37.291C24.2799 34.6932 24.0071 27.3517 24.0071 27.3517L26.2586 19.9001Z" fill="#37474F"/>
<path d="M28.4922 42.9294C30.0421 39.3137 33.1764 38.4378 33.1764 38.4378L34.7813 40.3546C34.7813 40.3546 31.6081 41.2075 30.425 44.3899L28.4922 42.9294Z" fill="#263238"/>
<path d="M34.5793 47.7418C34.8561 47.989 35.1108 48.2598 35.3406 48.5512C35.8518 49.2711 35.9459 50.2272 36.487 50.9265C36.9455 51.5249 37.67 51.8436 38.2937 52.2793C38.8328 52.6504 39.3082 53.1065 39.7015 53.6297C39.8367 53.8086 39.9307 54.0126 40.0614 54.1915C40.0936 54.2402 40.1354 54.2819 40.1843 54.3138C40.2332 54.3458 40.2881 54.3673 40.3457 54.3772C40.4252 54.382 40.5044 54.3649 40.5748 54.3277C40.6452 54.2905 40.704 54.2347 40.7447 54.1662C40.8118 54.0633 40.8657 53.9524 40.9052 53.8361C40.9323 53.7452 40.9469 53.6511 40.9487 53.5564C40.9808 52.7974 40.6163 52.2816 40.2219 51.6854C39.8286 51.0866 39.5582 50.4156 39.4263 49.7113" fill="#FFB573"/>
<path d="M45.0298 53.5334C44.6034 53.2353 44.2801 52.6162 44.0233 52.2425C43.7665 51.8688 42.9113 51.5547 42.3037 51.275C41.6961 50.9952 40.3296 50.1286 39.9284 49.9451C39.5271 49.7617 39.5684 50.3051 39.7105 50.7109C40.2677 50.9012 41.2353 51.2474 41.398 51.3093C42.0521 51.5353 42.6908 51.8034 43.3102 52.1118C43.4006 52.1574 43.4865 52.2111 43.567 52.2723C43.639 52.3332 43.705 52.4008 43.7642 52.4741C43.9522 52.6919 44.0875 52.9579 44.2732 53.1757C44.352 53.2656 44.4362 53.3506 44.5254 53.4302C44.8441 53.7053 45.3073 53.93 45.736 53.7901C45.7897 53.7739 45.8402 53.7482 45.885 53.7145C45.7377 53.7442 45.5858 53.7434 45.4387 53.7123C45.2917 53.6811 45.1525 53.6202 45.0298 53.5334Z" fill="#F28F8F"/>
<path d="M46.9331 53.1114C46.4883 52.7858 46.3713 52.1667 46.181 51.8228C45.9907 51.4789 45.7225 51.1923 45.1057 50.8048C44.3383 50.39 43.5501 50.015 42.7441 49.6813C42.7441 49.6813 43.9983 50.5985 44.317 50.8484C44.5463 50.963 45.6789 51.7265 45.7523 51.8045C45.8921 51.9558 46.1604 52.5083 46.3301 52.7674C46.4177 52.9242 46.5356 53.0621 46.6769 53.1731C46.8182 53.2841 46.9801 53.366 47.1532 53.414C47.2588 53.444 47.3696 53.4513 47.4782 53.4355C47.5869 53.4197 47.691 53.3811 47.7837 53.3223C47.6351 53.3499 47.4823 53.3453 47.3356 53.3089C47.1888 53.2725 47.0516 53.2052 46.9331 53.1114Z" fill="#F28F8F"/>
<path d="M48.1484 51.6647C47.8503 51.4354 47.4261 50.3303 47.002 50.1056C46.7727 49.9818 45.6561 49.2274 44.5051 48.8996C45.0875 49.3306 45.7134 49.7938 46.1101 50.1056C46.3233 50.2156 46.9332 50.6077 47.0112 50.6673C47.1411 50.7824 47.2552 50.9143 47.3505 51.0594C47.5798 51.4148 47.738 51.6716 48.0567 51.8321C48.1536 51.8889 48.261 51.9257 48.3725 51.9403C48.4839 51.9549 48.5972 51.9469 48.7055 51.9169C48.7468 51.9015 48.7855 51.8798 48.8202 51.8527C48.733 51.9169 48.4419 51.894 48.1484 51.6647Z" fill="#F28F8F"/>
<path d="M15.1404 19.9C12.905 20.4985 9.25254 21.7641 9.25254 21.7641C9.25254 21.7641 6.4645 24.5659 4.83661 30.1076C3.69022 33.9801 2.4544 42.6285 2.71578 49.6192C5.92569 53.7715 18.3595 54.5809 25.082 48.2688C25.082 48.2688 24.4767 43.6832 26.3545 37.4101C28.7184 29.5183 28.6473 25.4876 27.8379 23.0687C27.3542 21.638 26.8474 20.3609 26.2582 19.9C25.8891 19.6364 19.5678 18.7193 15.1404 19.9Z" fill="#455A64"/>
<path d="M12.9443 59.9645C14.8634 59.9507 15.8378 59.6893 16.5165 59.8086C17.1952 59.9278 18.3851 59.7833 18.7061 59.8269C18.9469 60.1364 18.7061 60.744 17.8211 61.0696C16.81 61.4387 15.3334 61.8239 15.3334 61.8239L12.9443 59.9645Z" fill="#F28F8F"/>
<path d="M7.68283 44.2176L10.5098 31.5591C10.5098 31.5591 11.9841 26.1435 9.26256 22.3879C5.23871 23.5778 3.82864 24.4514 2.87942 29.2663C2.32457 32.0933 1.55189 34.9134 0.357347 42.2458C0.155581 43.4862 -0.186046 43.4632 0.937424 46.7695C1.24007 47.6591 2.00128 50.1422 3.00094 52.7009C4.14734 55.6609 5.39691 58.9557 5.98157 60.7532C6.15353 61.276 6.27734 61.6703 6.42408 62.2389C6.74278 63.4839 7.18758 64.197 7.88689 64.7106C8.98284 65.5199 10.6726 65.7171 12.2822 66.6182C13.479 67.29 14.2586 68.6817 14.8432 68.8926C15.742 69.2067 16.0905 68.8376 16.0905 68.8376C16.0905 68.8376 15.0152 66.5907 14.3113 65.857C13.9325 65.4839 13.5329 65.1325 13.1145 64.8046C13.7221 64.9446 14.3195 65.1254 14.9028 65.3457C15.5127 65.6116 16.682 67.4344 17.7413 67.9663C18.4062 68.3011 19.3463 67.9663 19.3027 67.7371C19.1899 67.4717 19.0272 67.2304 18.8235 67.0263C18.9362 67.1509 19.0816 67.2415 19.2431 67.2877C19.5939 67.3817 19.9309 67.4069 20.2359 67.1524C20.3918 67.0171 19.9447 66.3453 19.383 65.4397C18.6126 64.1901 18.6951 64.0892 17.6817 63.3051C17.5808 63.2271 17.2231 62.9979 17.2231 62.9979C17.2231 62.9979 17.7665 63.1331 18.2228 63.2753C18.6791 63.4174 19.3692 64.4354 20.002 64.8023C20.1903 64.9213 20.4136 64.9725 20.6349 64.9475C20.8563 64.9225 21.0625 64.8227 21.2195 64.6647C21.2195 64.6647 19.5641 62.1679 19.1835 61.8996C18.8029 61.6313 17.8078 61.2668 16.9686 60.9825C16.1295 60.6982 12.9242 59.9874 12.2707 59.7581C11.31 59.4211 11.2642 59.0703 11.161 58.7791C10.2255 56.241 7.68283 44.2176 7.68283 44.2176Z" fill="#FFB573"/>
<path d="M17.2339 67.1617C16.6584 66.6022 15.5304 65.2059 15.2094 64.9973C14.8884 64.7886 13.9185 64.5708 13.1459 64.4676C12.3732 64.3644 13.1183 64.807 13.1183 64.807C13.7259 64.947 14.3234 65.1278 14.9067 65.3481C15.5166 65.614 16.6859 67.4368 17.7452 67.9687C17.9504 68.059 18.1715 68.1071 18.3956 68.1102C18.6197 68.1134 18.8422 68.0715 19.0498 67.9871C18.2473 68.12 17.814 67.7211 17.2339 67.1617Z" fill="#F28F8F"/>
<path d="M18.8234 67.0379C18.4907 66.6904 18.1841 66.3187 17.9063 65.9259C17.622 65.5384 17.3583 65.1326 17.0969 64.7382L17.0488 64.6695C17.0327 64.6511 17.0236 64.6465 17.0075 64.6305C16.9915 64.6144 16.9204 64.5686 16.87 64.5365C16.7714 64.4746 16.6682 64.4173 16.565 64.3576L15.9414 64.0046C15.5226 63.7737 15.1068 63.533 14.6941 63.2823C15.1527 63.4428 15.5952 63.6239 16.0308 63.828C16.2601 63.9266 16.4664 64.0367 16.6819 64.1467C16.7897 64.2017 16.8952 64.2613 17.0006 64.3255C17.0534 64.3554 17.1084 64.3943 17.1611 64.431C17.1942 64.4557 17.2242 64.4842 17.2506 64.5158L17.3079 64.5938C17.826 65.4054 18.3075 66.224 18.8234 67.0379Z" fill="#F28F8F"/>
<path d="M19.3547 63.7203C18.8733 63.1677 18.793 63.1058 18.1052 62.8742C17.4173 62.6427 16.0967 62.2987 16.0967 62.2987L17.2431 63.0095C17.2431 63.0095 17.7865 63.1448 18.2427 63.2869C18.699 63.4291 19.3891 64.4471 20.0219 64.8139C20.1785 64.9147 20.3608 64.9683 20.547 64.9683C20.7332 64.9683 20.9155 64.9147 21.072 64.8139C20.1412 64.8919 19.8362 64.2728 19.3547 63.7203Z" fill="#F28F8F"/>
<path d="M9.25322 21.7644C7.41898 22.388 5.76129 22.9108 4.62636 24.5455C3.41806 26.2949 2.86549 28.0948 2.01028 32.5313C1.15507 36.9679 0.21273 41.6337 0.0522342 42.8329C-0.108261 44.032 0.118726 44.6786 0.492451 45.8341C0.866177 46.9897 1.81539 49.6585 1.81539 49.6585C1.81539 49.6585 2.92281 48.5121 5.32108 47.8243C7.71934 47.1364 8.56538 47.5606 8.56538 47.5606L7.83169 44.181C7.83169 44.181 10.2024 33.8222 10.6128 32.1095C11.0233 30.3967 11.906 25.3549 9.25322 21.7644Z" fill="#37474F"/>
<path d="M8.56566 47.5653C8.56566 47.5653 7.7265 47.1504 5.32136 47.8382C2.91622 48.526 1.81567 49.6724 1.81567 49.6724L2.76489 52.3367C2.76489 52.3367 5.1173 50.7317 9.10906 50.4497L8.56566 47.5653Z" fill="#263238"/>
<path d="M29.1702 9.00512C30.2249 7.0998 29.6288 4.38514 28.7116 3.04385C27.3841 1.11332 25.1303 0.120536 21.604 0.00589663C18.9191 -0.0812296 16.1884 0.776277 15.4295 3.46802C12.7263 4.05956 12.6208 7.23508 12.9991 8.83774C13.781 12.0958 15.6129 14.7807 16.0669 16.8304L29.1702 9.00512Z" fill="#263238"/>
<path d="M28.4644 16.4267C27.8981 17.9101 26.9099 18.9488 25.4838 19.029C24.6309 19.0818 23.0833 18.8181 23.0833 18.8181L22.439 21.3402C23.2896 23.4725 22.5926 24.8665 21.4783 26.7191C19.1144 22.6425 16.0857 23.1469 14.8017 20.7807L16.0857 13.8679C16.0857 13.8679 15.2717 14.8172 13.9373 13.7579C13.0202 13.0265 12.4814 11.3184 13.3343 9.86014C14.1872 8.40192 15.5308 9.19064 15.9229 9.6813C16.3149 10.172 16.7368 11.0707 17.1105 10.9859C17.3248 10.9416 17.5246 10.8447 17.6919 10.7037C17.8593 10.5628 17.9888 10.3824 18.0689 10.1788C18.3807 9.56437 18.6398 8.7596 18.8003 7.34265C19.213 7.17986 19.6853 6.99185 19.9834 6.59749C20.3663 6.09308 20.4282 5.36855 21.3889 4.56378C22.8494 3.34402 27.9004 3.69252 28.9115 5.71018C29.5191 7.06064 29.2623 10.0436 29.2188 11.7723C29.1706 13.6364 28.9391 15.184 28.4644 16.4267Z" fill="#FFB573"/>
<path d="M23.1566 14.0973C22.5674 14.1959 21.6136 14.8814 21.836 15.2896C22.0584 15.6977 22.7347 15.4042 23.5143 15.7321C24.2938 16.0599 24.4131 16.5047 24.9565 16.3099C25.3944 16.1517 25.1857 14.9663 24.796 14.5857C24.5747 14.3898 24.3134 14.2447 24.0303 14.1603C23.7471 14.076 23.4489 14.0545 23.1566 14.0973Z" fill="#B16668"/>
<path d="M24.9514 14.7989C24.9106 14.7203 24.858 14.6484 24.7955 14.5857C24.5743 14.3898 24.313 14.2447 24.0298 14.1603C23.7466 14.076 23.4485 14.0545 23.1562 14.0973C23.0298 14.1209 22.9066 14.1594 22.7893 14.212C23.4552 14.5715 24.1951 14.7724 24.9514 14.7989Z" fill="#FAFAFA"/>
<path d="M23.5455 15.7391C23.5147 15.4119 23.3648 15.1074 23.1244 14.8834C22.8839 14.6594 22.5695 14.5315 22.2409 14.524C21.9245 14.7693 21.709 15.0628 21.8282 15.2806C22.0575 15.6864 22.727 15.3952 23.5066 15.7231L23.5455 15.7391Z" fill="#F28F8F"/>
<path d="M22.2136 10.8896C22.2136 11.245 21.7551 11.5247 21.2232 11.5156C20.6912 11.5064 20.251 11.2106 20.2579 10.8552C20.2648 10.4998 20.7165 10.2224 21.2461 10.2316C21.7757 10.2408 22.2205 10.5365 22.2136 10.8896Z" fill="#F28F8F"/>
<path d="M29.4688 11.176C29.4688 11.5314 29.0102 11.8111 28.4783 11.8019C27.9464 11.7928 27.5061 11.497 27.513 11.1416C27.5199 10.7862 27.9716 10.5065 28.5012 10.518C29.0308 10.5294 29.4757 10.8229 29.4688 11.176Z" fill="#F28F8F"/>
<path d="M23.0875 18.8136C21.5398 18.5843 18.6532 17.564 17.9012 16.6148C17.1491 15.6656 16.9634 13.8634 16.9634 13.8634C16.9634 13.8634 16.874 16.1218 17.422 17.1742C17.97 18.2266 19.5612 18.8136 20.5264 19.1529C21.4917 19.4922 22.8055 19.9095 22.8055 19.9095L23.0875 18.8136Z" fill="#F28F8F"/>
<path d="M23.1811 10.4034C23.1662 10.4829 23.1358 10.5586 23.0914 10.6262C23.0471 10.6938 22.9898 10.7519 22.9228 10.7971C22.8558 10.8423 22.7805 10.8738 22.7012 10.8896C22.622 10.9055 22.5403 10.9055 22.4611 10.8895C22.2915 10.8618 22.1377 10.7737 22.0281 10.6413C21.9185 10.509 21.8605 10.3414 21.865 10.1696C21.865 9.71101 22.2502 9.46339 22.7546 9.67662C23.1558 9.84858 23.2521 10.0756 23.1811 10.4034Z" fill="#263238"/>
<path d="M22.2662 8.20921L23.7612 9.27307C23.5886 9.37178 23.3915 9.41925 23.1929 9.40991C22.9943 9.40057 22.8025 9.33481 22.64 9.22033C22.4711 9.12028 22.3418 8.96518 22.2737 8.78107C22.2057 8.59696 22.203 8.39504 22.2662 8.20921Z" fill="#263238"/>
<path d="M26.6961 10.4653C26.7204 10.6239 26.8063 10.7665 26.935 10.8622C27.0638 10.9579 27.2251 10.999 27.3839 10.9766C27.5531 10.9558 27.7091 10.8749 27.8236 10.7486C27.938 10.6223 28.0033 10.4591 28.0075 10.2888C28.019 9.83022 27.6476 9.56884 27.1363 9.76602C26.7396 9.91275 26.6365 10.1374 26.6961 10.4653Z" fill="#263238"/>
<path d="M27.9022 8.31934L26.3638 9.31899C26.4578 9.45885 26.9943 9.62164 27.4827 9.28919C27.6497 9.19641 27.7815 9.05101 27.8574 8.87561C27.9332 8.7002 27.949 8.50464 27.9022 8.31934Z" fill="#263238"/>
<path d="M24.6577 8.95688L24.9764 13.4668L27.354 12.662L24.6577 8.95688Z" fill="#F28F8F"/>
<path d="M15.2577 18.3C15.0811 19.2446 15.3448 20.109 16.4637 21.1729C17.5826 22.2367 19.4214 23.2776 19.8479 23.7316C20.2743 24.1856 21.4758 26.7122 21.4758 26.7122C21.4758 26.7122 20.1941 24.9651 19.8708 24.7771C19.5475 24.5891 17.9792 26.9622 17.6858 27.5491C17.3923 28.1361 17.445 28.1361 16.6471 27.5491C15.0995 26.4027 13.6298 24.1374 13.2079 22.8191C12.7333 21.3265 12.9007 20.5423 12.9007 20.5423C13.5563 20.1281 14.0704 19.5244 14.375 18.8113C14.7647 17.94 15.0628 17.7543 15.3379 17.8414L15.2577 18.3Z" fill="#37474F"/>
<path d="M21.4824 26.7052C21.8493 25.9509 22.4706 24.5042 22.6288 23.8668C22.787 23.2294 22.45 21.3264 22.45 21.3264L23.0576 18.9602C23.2771 19.1395 23.4534 19.366 23.5734 19.6228C24.0183 20.517 24.7405 22.1449 24.8643 23.1789C25.0592 24.8183 24.8643 26.038 24.8001 26.1596C24.6488 26.4897 24.0779 24.096 23.5414 24.1213C23.1791 24.1419 21.4824 26.7052 21.4824 26.7052Z" fill="#37474F"/>
<path d="M13.9296 3.12877C13.8146 3.01672 13.6841 2.92175 13.5422 2.84676C13.4763 2.80049 13.4014 2.76862 13.3224 2.75321C13.2434 2.7378 13.162 2.73921 13.0836 2.75734C13.0732 2.76536 13.0645 2.77545 13.0581 2.78696C13.0517 2.79848 13.0477 2.81118 13.0464 2.82429C13.0451 2.8374 13.0465 2.85063 13.0506 2.86318C13.0546 2.87572 13.0612 2.8873 13.0698 2.8972C13.2097 3.00267 13.3794 3.04623 13.5284 3.12648C13.6547 3.20248 13.7684 3.29762 13.8654 3.4085C13.9713 3.52454 14.0511 3.66196 14.0994 3.81147C14.1476 3.96099 14.1632 4.11911 14.1452 4.27517C14.0282 5.04326 13.1501 5.1579 12.5173 5.13955C12.4921 5.13955 12.46 5.13956 12.46 5.17166C12.46 5.20375 12.46 5.19458 12.4829 5.20375C12.7099 5.34726 12.9801 5.4065 13.2464 5.37113C13.5651 5.32986 14.0603 5.20146 14.2873 4.80939C14.6037 4.25454 14.3515 3.53231 13.9296 3.12877Z" fill="#2196F3"/>
<path d="M16.7752 1.81022C16.7575 1.81051 16.7404 1.817 16.727 1.82856C16.6945 1.86355 16.6757 1.90918 16.6743 1.95695C16.6425 2.2884 16.5222 2.60519 16.3258 2.87407C16.2273 3.00684 16.0985 3.11418 15.9501 3.18716C15.8018 3.26014 15.6382 3.29665 15.4729 3.29365C15.3299 3.28449 15.1917 3.2387 15.0716 3.16067C14.9737 3.0786 14.904 2.96796 14.8721 2.84427C14.7402 2.47693 14.6787 2.08799 14.691 1.69787C14.691 1.61762 14.597 1.53049 14.5557 1.64055C14.5239 1.72192 14.4979 1.80543 14.4778 1.89046C14.4606 1.99732 14.456 2.10582 14.464 2.21375C14.469 2.39094 14.4936 2.56703 14.5374 2.7388C14.6268 3.07584 14.7919 3.42664 15.1335 3.57796C15.2829 3.62872 15.4409 3.64938 15.5983 3.63875C15.7557 3.62813 15.9094 3.58643 16.0506 3.51606C16.3367 3.38443 16.5713 3.16196 16.7178 2.88324C16.8161 2.69473 16.8739 2.48778 16.8875 2.27565C16.8967 2.22292 16.8967 1.81022 16.7752 1.81022Z" fill="#2196F3"/>
<path d="M18.0022 3.8531C17.3648 3.56879 16.4591 3.66738 16.0579 4.29102C15.6566 4.91466 16.0074 5.68046 16.5623 6.03355C16.7147 6.12952 16.8833 6.1971 17.0598 6.23302C17.1969 6.26189 17.3372 6.27268 17.4771 6.26512C17.4869 6.26562 17.4966 6.26404 17.5057 6.26048C17.5148 6.25692 17.523 6.25147 17.5298 6.24448C17.5528 6.21468 17.5092 6.17799 17.4702 6.16194C16.9566 5.96476 16.1496 5.51996 16.2482 4.85734C16.2823 4.70412 16.3532 4.56148 16.4546 4.44167C16.556 4.32186 16.6851 4.22846 16.8305 4.16951C16.9876 4.09748 17.1559 4.05326 17.3281 4.03882C17.5436 4.02047 17.7591 4.03882 17.9746 4.03882C18.0434 4.04569 18.0709 3.88291 18.0022 3.8531Z" fill="#2196F3"/>
<path d="M16.019 6.8773C16.055 6.50307 15.9602 6.12793 15.7507 5.81574C15.6502 5.65009 15.4967 5.52325 15.3151 5.45577C15.0979 5.37656 14.8623 5.36234 14.6371 5.41487C14.4119 5.4674 14.2069 5.58439 14.0472 5.75154C13.8808 5.94845 13.7497 6.17262 13.6597 6.41416C13.6301 6.47813 13.6049 6.544 13.584 6.61134C13.5624 6.68595 13.5501 6.76297 13.5474 6.84062C13.6116 6.84062 13.6551 6.77871 13.6826 6.72139C13.8494 6.37613 14.0991 6.07758 14.4095 5.85242C14.4898 5.78954 14.5806 5.74141 14.6777 5.71027C14.8452 5.66758 15.022 5.67963 15.1821 5.74466C15.3281 5.82344 15.452 5.93752 15.5425 6.0765C15.633 6.21548 15.6873 6.37492 15.7003 6.54026C15.7255 6.69617 15.7393 6.85208 15.7507 6.99882C15.7514 7.13135 15.759 7.26375 15.7737 7.39547C15.7754 7.40638 15.7806 7.41646 15.7884 7.42428C15.7962 7.4321 15.8063 7.43726 15.8172 7.43904C15.8425 7.43904 15.8608 7.4184 15.8746 7.39777C15.9152 7.33364 15.9446 7.26309 15.9617 7.18912C15.9907 7.08725 16.0099 6.98283 16.019 6.8773Z" fill="#2196F3"/>
<path d="M3.63062 12.9256L6.90243 12.6344L7.20279 13.6456L8.85131 12.7949L9.01639 13.7098L11.151 13.0838L8.2827 15.2069L8.13137 14.1844L6.20542 15.583L5.83858 14.166L4.00893 15.3445L3.63062 12.9256Z" fill="#2196F3"/>
<path opacity="0.3" d="M3.63062 12.9256L6.90243 12.6344L7.20279 13.6456L8.85131 12.7949L9.01639 13.7098L11.151 13.0838L8.2827 15.2069L8.13137 14.1844L6.20542 15.583L5.83858 14.166L4.00893 15.3445L3.63062 12.9256Z" fill="white"/>
<path d="M9.64919 10.0322L9.41991 11.1396L11.3894 12.176L8.33313 11.7701L8.45465 10.8668L6.09766 10.532L6.84511 8.83078L9.64919 10.0322Z" fill="#2196F3"/>
<path opacity="0.3" d="M9.64919 10.0322L9.41991 11.1396L11.3894 12.176L8.33313 11.7701L8.45465 10.8668L6.09766 10.532L6.84511 8.83078L9.64919 10.0322Z" fill="white"/>
<path d="M8.14767 16.0323L9.21153 16.4198L11.392 14.0421L9.82141 17.6235L8.8378 17.3025L7.83585 19.4165L6.37305 18.1279L8.14767 16.0323Z" fill="#2196F3"/>
<path opacity="0.3" d="M8.14767 16.0323L9.21153 16.4198L11.392 14.0421L9.82141 17.6235L8.8378 17.3025L7.83585 19.4165L6.37305 18.1279L8.14767 16.0323Z" fill="white"/>
<path d="M31.4075 16.2867C31.7308 16.2478 32.054 16.2248 32.3796 16.195L33.3518 16.1285C34.0006 16.0827 34.6495 16.0575 35.2983 16.0345C35.9472 16.0116 36.5984 15.9978 37.2472 15.9978H38.2217C38.5472 15.9978 38.8705 15.9978 39.1961 16.0277C38.8728 16.0666 38.5495 16.0896 38.2239 16.1194L37.2518 16.1882C36.6029 16.2317 35.9541 16.2569 35.3052 16.2799C34.6564 16.3028 34.0052 16.3165 33.3563 16.3165H32.3819C32.0586 16.3051 31.733 16.3051 31.4075 16.2867Z" fill="#2196F3"/>
<path d="M29.8599 15.6242C30.2313 15.5141 30.6073 15.4224 30.9787 15.3215L32.1045 15.0441C32.8543 14.8607 33.6086 14.6956 34.3629 14.5305C35.1172 14.3654 35.8762 14.2141 36.6351 14.072L37.7815 13.8633C38.1644 13.8037 38.5427 13.7349 38.9279 13.6799C38.5564 13.79 38.1804 13.8817 37.8067 13.9825L36.6809 14.26C35.9312 14.4434 35.1769 14.6085 34.4225 14.7736C33.6682 14.9386 32.9116 15.09 32.1527 15.2321L31.0063 15.4408C30.6234 15.5096 30.2428 15.5692 29.8599 15.6242Z" fill="#2196F3"/>
<path d="M30.8298 14.1062C31.1164 13.9778 31.4099 13.8632 31.7011 13.7417L32.5792 13.4046C33.1662 13.1754 33.76 12.9736 34.3539 12.765C34.9477 12.5563 35.5438 12.3637 36.1445 12.1826L37.0479 11.9097C37.3505 11.8272 37.6509 11.7378 37.965 11.6621C37.6761 11.7905 37.3849 11.9052 37.0938 12.0244L36.2133 12.3637C35.6264 12.593 35.0348 12.7948 34.441 13.0011C33.8472 13.2075 33.251 13.4024 32.648 13.5858L31.747 13.8563C31.4351 13.9389 31.1348 14.0306 30.8298 14.1062Z" fill="#2196F3"/>
<path d="M41.5437 18.9119C41.6616 19.4005 41.8501 19.8694 42.1031 20.3037C42.4866 20.941 43.0157 21.4783 43.647 21.8717C44.2783 22.2651 44.9938 22.5032 45.7349 22.5666C46.2203 22.5981 46.7077 22.5587 47.1817 22.4497C47.8816 22.2802 48.5309 21.9461 49.0756 21.4751C49.6204 21.0042 50.0448 20.41 50.3136 19.7419L50.88 19.9872C50.4299 20.9624 49.6816 21.7693 48.7431 22.2915C48.2816 22.5468 47.7824 22.7272 47.2642 22.8257C46.7488 22.9173 46.2229 22.9335 45.7028 22.8739C44.6688 22.7367 43.7053 22.2742 42.9515 21.5532C42.5813 21.2019 42.2715 20.7922 42.0344 20.3403C41.8012 19.8911 41.6358 19.4097 41.5437 18.9119Z" fill="#2196F3"/>
<path d="M49.2573 19.0932C49.8269 19.4483 50.4549 19.6998 51.1122 19.836C51.7501 19.9654 52.4068 19.9724 53.0473 19.8567C54.3144 19.6295 55.4447 18.9216 56.2022 17.8809C56.9597 16.8401 57.2858 15.5469 57.1124 14.2714C56.9211 12.9519 56.2461 11.7507 55.2186 10.901C55.8341 11.2278 56.3684 11.6885 56.7823 12.2492C57.2048 12.8231 57.5002 13.4804 57.649 14.1774C57.8014 14.8839 57.8014 15.6147 57.649 16.3212C57.496 17.0325 57.1955 17.7038 56.767 18.2919C56.3385 18.8799 55.7915 19.3716 55.1613 19.7351L54.932 19.8658C54.8517 19.9094 54.7669 19.9392 54.6844 19.9782L54.4367 20.0836C54.3542 20.1203 54.2648 20.141 54.18 20.1708C53.8404 20.2892 53.4878 20.3662 53.1299 20.4C52.4214 20.4741 51.7054 20.396 51.0297 20.1708C50.3669 19.946 49.7618 19.5781 49.2573 19.0932Z" fill="#2196F3"/>
<path d="M57.0728 12.9873L56.6395 12.437C57.5037 11.7617 58.1059 10.8064 58.3424 9.73539C58.579 8.66434 58.4352 7.54435 57.9358 6.56779C57.4364 5.59122 56.6125 4.81902 55.6057 4.38384C54.5989 3.94865 53.4719 3.87763 52.4184 4.18298C52.1167 4.26963 51.8241 4.38559 51.5449 4.5292L51.2239 3.90785C51.5434 3.74176 51.8792 3.60885 52.2258 3.5112C53.4353 3.16069 54.729 3.24222 55.8849 3.7418C57.0408 4.24138 57.9867 5.12783 58.5601 6.24891C59.1335 7.36999 59.2987 8.65575 59.0273 9.88538C58.7559 11.115 58.0649 12.2118 57.0728 12.9873Z" fill="#2196F3"/>
<path d="M43.1578 4.19239C42.3924 4.12168 41.621 4.23432 40.9077 4.521C40.1944 4.80767 39.5597 5.26013 39.056 5.84091C38.5402 6.439 38.1753 7.15215 37.9922 7.92047C37.8053 8.70277 37.8053 9.51809 37.9922 10.3004C37.6146 9.10296 37.6821 7.80948 38.1821 6.65779C38.6821 5.50611 39.5811 4.57366 40.7137 4.03189C41.4866 3.65468 42.3395 3.47058 43.1991 3.49538L43.1578 4.19239Z" fill="#2196F3"/>
<path d="M50.7955 7.77829C51.1414 7.14429 51.3309 6.43681 51.348 5.71477C51.3654 5.01935 51.2161 4.32986 50.9124 3.70399C50.6096 3.09241 50.1617 2.56422 49.6078 2.16553C49.3354 1.96803 49.0406 1.80334 48.7296 1.67487C48.0991 1.43611 47.4225 1.3436 46.751 1.40432C46.4175 1.44192 46.0896 1.51888 45.7742 1.6336C45.1348 1.87012 44.5627 2.25888 44.1074 2.76624C43.6481 3.28882 43.3189 3.91263 43.1467 4.58672C42.9728 5.28543 42.9673 6.01547 43.1306 6.71673C42.8221 6.0301 42.7109 5.27108 42.8096 4.52481C42.9177 3.7664 43.2194 3.04862 43.6855 2.44066C44.4163 1.50331 45.4874 0.892007 46.6661 0.73941C47.0581 0.688955 47.4549 0.688955 47.8469 0.73941C48.2401 0.794811 48.6251 0.897984 48.9933 1.04664C49.1743 1.12469 49.3503 1.2135 49.5207 1.31261L49.7729 1.46393C49.8554 1.52125 49.9311 1.58316 50.0021 1.64048C50.6222 2.11868 51.106 2.75113 51.4053 3.47471C51.6966 4.19116 51.7931 4.9719 51.6851 5.7377C51.5839 6.48735 51.2759 7.19399 50.7955 7.77829Z" fill="#2196F3"/>
<path d="M38.2831 17.1445C38.1793 17.6219 38.2308 18.1199 38.4299 18.566C38.6138 19.0033 38.9114 19.3833 39.292 19.6666C39.6603 19.9423 40.1026 20.102 40.5622 20.1251C41.0157 20.1405 41.4676 20.0625 41.8897 19.8958L42.0869 20.4782C41.5739 20.6254 41.0358 20.6637 40.5071 20.5906C39.9797 20.5049 39.4892 20.2657 39.0971 19.9027C38.7153 19.5551 38.4349 19.1106 38.2854 18.6165C38.1293 18.1383 38.1285 17.6231 38.2831 17.1445Z" fill="#2196F3"/>
<path d="M40.4844 13.7372C40.4807 13.7126 40.482 13.6876 40.4883 13.6635C40.4947 13.6395 40.5058 13.617 40.5211 13.5974C40.552 13.5575 40.5972 13.5312 40.6472 13.524L41.5299 13.4116C41.58 13.4058 41.6303 13.4198 41.6702 13.4506C41.7101 13.4815 41.7363 13.5268 41.7431 13.5767L41.8325 14.2829C41.8363 14.3077 41.8348 14.3329 41.8281 14.357C41.8214 14.3811 41.8096 14.4036 41.7936 14.4228C41.7788 14.4426 41.7603 14.4593 41.739 14.4719C41.7178 14.4845 41.6942 14.4928 41.6697 14.4961L40.787 14.6085C40.7623 14.6123 40.737 14.6108 40.7129 14.604C40.6888 14.5973 40.6664 14.5856 40.6472 14.5695C40.6273 14.5548 40.6106 14.5363 40.598 14.515C40.5854 14.4937 40.5772 14.4702 40.5738 14.4457L40.4844 13.7372ZM39.9914 9.9266C39.9881 9.90187 39.9898 9.8767 39.9965 9.85265C40.0032 9.8286 40.0147 9.80618 40.0304 9.78674C40.0447 9.7665 40.0632 9.74951 40.0845 9.73687C40.1058 9.72423 40.1296 9.71622 40.1542 9.71337L41.0369 9.59873C41.0617 9.59537 41.0868 9.59709 41.1109 9.60379C41.1349 9.6105 41.1574 9.62204 41.1768 9.63771C41.1967 9.65287 41.2135 9.67181 41.226 9.69345C41.2386 9.71509 41.2468 9.739 41.2502 9.76381L41.6399 12.7788C41.6432 12.8036 41.6414 12.8287 41.6347 12.8527C41.628 12.8768 41.6165 12.8992 41.601 12.9187C41.5858 12.9386 41.5669 12.9554 41.5452 12.9679C41.5236 12.9805 41.4997 12.9887 41.4749 12.9921L40.5944 13.1044C40.5697 13.1085 40.5443 13.1071 40.5202 13.1004C40.496 13.0937 40.4736 13.0817 40.4546 13.0654C40.434 13.0514 40.4168 13.0331 40.4041 13.0117C40.3914 12.9903 40.3836 12.9664 40.3812 12.9416L39.9914 9.9266Z" fill="#2196F3"/>
<path d="M42.658 14.2555C42.6583 14.2304 42.6638 14.2057 42.674 14.1828C42.6843 14.1599 42.6991 14.1394 42.7176 14.1225C42.7347 14.1046 42.7554 14.0905 42.7783 14.081C42.8012 14.0715 42.8258 14.0669 42.8506 14.0675L43.7402 14.0812C43.7651 14.0811 43.7898 14.0862 43.8127 14.096C43.8355 14.1059 43.8561 14.1204 43.8732 14.1385C43.9086 14.1747 43.9283 14.2233 43.9282 14.2738V14.9869C43.9283 15.0118 43.9233 15.0365 43.9134 15.0593C43.9035 15.0822 43.8891 15.1028 43.8709 15.1199C43.8348 15.1553 43.7862 15.175 43.7356 15.1749L42.846 15.1611C42.821 15.1605 42.7963 15.155 42.7735 15.1447C42.7507 15.1345 42.7301 15.1198 42.713 15.1015C42.6952 15.0839 42.6811 15.0628 42.6716 15.0395C42.6622 15.0163 42.6575 14.9913 42.658 14.9662V14.2555ZM42.7176 10.4128C42.7177 10.3875 42.7228 10.3626 42.7327 10.3394C42.7425 10.3161 42.7569 10.2951 42.7749 10.2775C42.7926 10.2598 42.8138 10.246 42.837 10.237C42.8603 10.2279 42.8852 10.2237 42.9102 10.2247L43.7998 10.2385C43.8247 10.2387 43.8493 10.2438 43.8721 10.2537C43.895 10.2635 43.9156 10.2778 43.9328 10.2958C43.9505 10.3136 43.9645 10.3347 43.974 10.3579C43.9834 10.3811 43.9881 10.406 43.9878 10.4311L43.9397 13.4713C43.9395 13.4962 43.9343 13.5208 43.9245 13.5437C43.9146 13.5665 43.9003 13.5871 43.8823 13.6043C43.8647 13.6221 43.8436 13.636 43.8203 13.645C43.797 13.6541 43.772 13.6582 43.7471 13.6571L42.8575 13.6433C42.8325 13.6434 42.8079 13.6384 42.785 13.6285C42.7621 13.6186 42.7415 13.6042 42.7245 13.586C42.7067 13.5684 42.6928 13.5472 42.6838 13.5239C42.6747 13.5006 42.6706 13.4757 42.6717 13.4507L42.7176 10.4128Z" fill="#2196F3"/>
<g opacity="0.2">
<path opacity="0.2" d="M42.6577 14.2556C42.6581 14.2305 42.6635 14.2058 42.6738 14.1829C42.684 14.1601 42.6989 14.1395 42.7174 14.1226C42.7345 14.1047 42.7552 14.0906 42.7781 14.0811C42.801 14.0717 42.8256 14.0671 42.8503 14.0676L43.7399 14.0813C43.7649 14.0812 43.7895 14.0863 43.8124 14.0961C43.8353 14.106 43.8559 14.1205 43.8729 14.1387C43.9083 14.1748 43.9281 14.2234 43.928 14.2739V14.987C43.9281 15.0119 43.923 15.0366 43.9132 15.0595C43.9033 15.0824 43.8888 15.103 43.8706 15.12C43.8345 15.1554 43.7859 15.1751 43.7354 15.175L42.8458 15.1613C42.8207 15.1607 42.7961 15.1551 42.7733 15.1449C42.7504 15.1346 42.7299 15.1199 42.7128 15.1016C42.6949 15.084 42.6809 15.0629 42.6714 15.0396C42.6619 15.0164 42.6573 14.9915 42.6577 14.9664V14.2556ZM42.7174 10.4129C42.7175 10.3877 42.7226 10.3627 42.7324 10.3395C42.7423 10.3163 42.7566 10.2952 42.7747 10.2776C42.7924 10.26 42.8135 10.2462 42.8368 10.2371C42.8601 10.228 42.885 10.2239 42.9099 10.2249L43.7996 10.2386C43.8244 10.2388 43.849 10.2439 43.8719 10.2538C43.8947 10.2636 43.9153 10.278 43.9325 10.2959C43.9503 10.3137 43.9643 10.3348 43.9737 10.358C43.9832 10.3813 43.9879 10.4061 43.9876 10.4312L43.9394 13.4715C43.9393 13.4963 43.9341 13.5209 43.9242 13.5438C43.9144 13.5666 43.9001 13.5872 43.8821 13.6044C43.8645 13.6222 43.8434 13.6361 43.82 13.6452C43.7967 13.6542 43.7718 13.6583 43.7468 13.6572L42.8572 13.6434C42.8323 13.6435 42.8076 13.6385 42.7847 13.6286C42.7619 13.6188 42.7413 13.6043 42.7242 13.5861C42.7065 13.5685 42.6926 13.5474 42.6835 13.5241C42.6744 13.5008 42.6703 13.4758 42.6715 13.4508L42.7174 10.4129Z" fill="white"/>
</g>
<path d="M48.6851 14.5123C48.0431 14.886 47.3346 15.1749 46.6009 14.8791C46.2977 14.7572 46.0394 14.5447 45.8614 14.2706C45.6833 13.9965 45.5941 13.6742 45.6059 13.3475C45.6288 12.9427 45.81 12.563 46.1103 12.2905C46.4213 12.0391 46.8136 11.9103 47.2131 11.9283C47.3866 11.9302 47.5574 11.9715 47.7125 12.049C47.8677 12.1266 48.0033 12.2383 48.109 12.3758C48.2148 12.5134 48.2879 12.6731 48.323 12.843C48.358 13.0129 48.3541 13.1885 48.3114 13.3567C48.1944 13.7831 47.5685 13.8657 47.2383 13.6593C47.152 13.594 47.0865 13.5052 47.0494 13.4035C47.0124 13.3018 47.0056 13.1916 47.0297 13.0861C47.0583 13.0064 47.1144 12.9394 47.188 12.8974C47.2615 12.8553 47.3477 12.841 47.4309 12.8569C47.5387 12.8912 47.5181 12.6918 47.4676 12.6505C47.3837 12.5927 47.283 12.5645 47.1813 12.5703C47.0795 12.5761 46.9826 12.6156 46.9059 12.6826C46.8196 12.7456 46.7489 12.8276 46.6992 12.9222C46.6495 13.0168 46.6222 13.1215 46.6193 13.2283C46.6193 13.6639 46.9288 14.1225 47.6648 14.111C47.9062 14.1213 48.1429 14.0423 48.3298 13.8893C48.5167 13.7362 48.6407 13.5197 48.6782 13.281C48.7015 13.0529 48.6734 12.8225 48.5961 12.6067C48.5187 12.3909 48.394 12.1951 48.2311 12.0337C48.0592 11.8542 47.848 11.7171 47.614 11.6331C47.3801 11.5492 47.1298 11.5207 46.883 11.55C46.5076 11.5891 46.153 11.7417 45.8666 11.9874C45.5801 12.2332 45.3753 12.5603 45.2794 12.9254C45.1835 13.2904 45.2012 13.676 45.33 14.0308C45.4587 14.3855 45.6925 14.6926 46.0002 14.9112C46.3995 15.247 46.9096 15.4219 47.4309 15.4019C47.6981 15.405 47.9625 15.3484 48.2049 15.2362C48.4473 15.1239 48.6615 14.9588 48.8318 14.753C48.8937 14.659 48.8066 14.4412 48.6851 14.5123Z" fill="#2196F3"/>
<path d="M52.8379 14.5214C52.4711 13.8084 52.1501 13.077 51.8451 12.3364C51.6961 11.9764 51.5585 11.6119 51.4278 11.245C51.2966 10.8256 51.1294 10.4182 50.928 10.0276C50.8799 9.94503 50.7996 9.9863 50.7927 10.0688C50.8009 10.4959 50.8871 10.9178 51.0472 11.3138C51.1817 11.7326 51.3285 12.1484 51.4874 12.5611C51.6388 12.9532 51.8107 13.3407 51.9896 13.7236C52.0767 13.9139 52.1684 14.1042 52.2624 14.2945C52.3564 14.4848 52.4229 14.6865 52.6361 14.7851C52.6551 14.7991 52.678 14.8066 52.7015 14.8066C52.725 14.8066 52.7479 14.7991 52.7668 14.7851L52.8173 14.7416C52.8432 14.7116 52.8591 14.6743 52.8628 14.6348C52.8665 14.5953 52.8578 14.5557 52.8379 14.5214Z" fill="#2196F3"/>
<path d="M54.5342 13.9047C54.1696 13.1916 53.8463 12.4602 53.5414 11.7196C53.3924 11.3597 53.2548 10.9951 53.1241 10.6283C52.9939 10.2084 52.8266 9.80101 52.6243 9.41079C52.5761 9.32825 52.4959 9.36951 52.489 9.45435C52.4974 9.88063 52.5836 10.3018 52.7435 10.697C52.8795 11.1174 53.0263 11.5331 53.1837 11.9443C53.3373 12.3364 53.507 12.7239 53.6859 13.1068C53.7753 13.2971 53.8647 13.4874 53.9587 13.6777C54.0527 13.868 54.1215 14.0697 54.3324 14.1683C54.3513 14.1823 54.3742 14.1898 54.3978 14.1898C54.4213 14.1898 54.4442 14.1823 54.4631 14.1683L54.5135 14.1248C54.5395 14.0948 54.5554 14.0575 54.5591 14.018C54.5628 13.9786 54.5541 13.9389 54.5342 13.9047Z" fill="#2196F3"/>
<path d="M54.8925 11.5202C54.2299 11.9787 53.5466 12.3845 52.8496 12.7812C52.5103 12.9738 52.1618 13.1549 51.8201 13.3315C51.4199 13.5142 51.0364 13.7313 50.6737 13.9803C50.5981 14.0376 50.6508 14.1133 50.7333 14.1087C51.1554 14.0472 51.5626 13.9089 51.9348 13.7006C52.336 13.5149 52.7281 13.3154 53.1156 13.1068C53.503 12.8981 53.8493 12.6872 54.2069 12.4625C54.3858 12.3501 54.5623 12.2332 54.7389 12.1186C54.9154 12.0039 55.108 11.9099 55.1791 11.6875C55.1891 11.6657 55.1918 11.6412 55.1868 11.6177C55.1819 11.5941 55.1695 11.5728 55.1516 11.5568L55.1057 11.5156C55.0738 11.4949 55.0364 11.4844 54.9984 11.4852C54.9604 11.486 54.9235 11.4982 54.8925 11.5202Z" fill="#2196F3"/>
<path d="M54.0653 9.91508C53.4027 10.3736 52.7195 10.7795 52.0224 11.1738C51.6831 11.3664 51.34 11.5506 50.993 11.7264C50.5919 11.9073 50.2082 12.1245 49.8466 12.3753C49.7709 12.4326 49.8237 12.5059 49.9062 12.5037C50.3284 12.4414 50.7356 12.3023 51.1076 12.0932C51.5089 11.9075 51.9009 11.7081 52.2884 11.4994C52.6759 11.2908 53.0221 11.0821 53.3798 10.8574C53.5586 10.7451 53.7352 10.6281 53.9117 10.5135C54.0882 10.3989 54.2808 10.3049 54.3519 10.0802C54.3621 10.0587 54.365 10.0345 54.36 10.0113C54.355 9.98807 54.3425 9.96715 54.3244 9.95177L54.2786 9.90821C54.2462 9.8885 54.2088 9.87866 54.1709 9.87988C54.133 9.8811 54.0963 9.89333 54.0653 9.91508Z" fill="#2196F3"/>
</svg>
