<svg width="51" height="72" viewBox="0 0 51 72" fill="none" xmlns="http://www.w3.org/2000/svg">
<path d="M16.0501 14.4483C16.0501 14.4483 13.9243 13.9389 13.6112 11.8188C14.6997 10.2793 15.1678 8.38592 14.9221 6.51651C14.6764 4.6471 13.7349 2.93904 12.2855 1.73308C10.8361 0.527119 8.98536 -0.088086 7.10243 0.0101937C5.21951 0.108473 3.44284 0.913012 2.12688 2.26331C0.810908 3.61361 0.0523808 5.4104 0.00261314 7.29523C-0.0471545 9.18007 0.615497 11.0144 1.85837 12.4322C3.10125 13.8501 4.83298 14.7473 6.7081 14.9448C8.58321 15.1423 10.4639 14.6256 11.9749 13.4978C12.5056 14.0086 13.1644 14.3665 13.8817 14.5338C14.599 14.7011 15.3482 14.6716 16.0501 14.4483V14.4483Z" fill="#2196F3"/>
<path d="M31.7776 70.3712C31.7378 70.3708 31.6984 70.3625 31.6617 70.3468C31.6251 70.3312 31.5919 70.3084 31.5641 70.2798C31.5363 70.2512 31.5145 70.2174 31.4999 70.1803C31.4852 70.1433 31.4781 70.1037 31.4788 70.0638V50.1773C31.4788 50.0985 31.5101 50.0228 31.5659 49.967C31.6217 49.9113 31.6973 49.8799 31.7762 49.8799C31.8551 49.8799 31.9307 49.9113 31.9865 49.967C32.0423 50.0228 32.0736 50.0985 32.0736 50.1773V70.0638C32.0743 70.1034 32.0673 70.1428 32.0528 70.1797C32.0383 70.2166 32.0168 70.2503 31.9893 70.2788C31.9618 70.3073 31.929 70.3302 31.8926 70.346C31.8563 70.3619 31.8172 70.3704 31.7776 70.3712Z" fill="#455A64"/>
<path d="M43.5827 63.1342C43.5203 63.1373 43.4586 63.1197 43.4072 63.0842C43.3558 63.0487 43.3174 62.9973 43.2981 62.9379L37.4557 47.5051C37.4262 47.4295 37.4273 47.3454 37.4586 47.2705C37.4899 47.1957 37.5491 47.1359 37.6236 47.1038C37.66 47.088 37.6994 47.08 37.7391 47.0803C37.7788 47.0806 37.818 47.0892 37.8542 47.1055C37.8903 47.1219 37.9227 47.1456 37.9492 47.1752C37.9756 47.2048 37.9956 47.2396 38.0078 47.2774L43.8588 62.7102C43.8883 62.7858 43.8872 62.8699 43.8559 62.9448C43.8246 63.0196 43.7654 63.0794 43.6909 63.1115C43.6571 63.1274 43.6201 63.1352 43.5827 63.1342V63.1342Z" fill="#455A64"/>
<path d="M42.8793 61.2817C42.8382 61.2817 42.7975 61.2728 42.7602 61.2556C42.7229 61.2384 42.6897 61.2134 42.663 61.1821L31.7778 49.1671L20.9097 61.1195C20.883 61.1484 20.8507 61.1714 20.8147 61.1872C20.7787 61.203 20.7398 61.2111 20.7005 61.2111C20.6612 61.2111 20.6223 61.203 20.5863 61.1872C20.5503 61.1714 20.518 61.1484 20.4913 61.1195C20.4353 61.0603 20.4041 60.9819 20.4041 60.9004C20.4041 60.8189 20.4353 60.7405 20.4913 60.6813L31.5729 48.487C31.6004 48.457 31.6338 48.4329 31.671 48.4163C31.7082 48.3996 31.7484 48.3908 31.7892 48.3902C31.8298 48.3906 31.8699 48.3997 31.9067 48.4169C31.9435 48.4341 31.9762 48.459 32.0026 48.4898L43.1012 60.7268C43.156 60.7866 43.1864 60.8648 43.1864 60.9459C43.1864 61.027 43.156 61.1052 43.1012 61.165C43.0756 61.2002 43.0423 61.2289 43.0038 61.2491C42.9653 61.2694 42.9227 61.2805 42.8793 61.2817Z" fill="#455A64"/>
<path d="M19.9731 63.1342C19.9349 63.1349 19.897 63.1272 19.8621 63.1115C19.7881 63.0789 19.7296 63.0189 19.6988 62.9441C19.6681 62.8693 19.6674 62.7855 19.6971 62.7102L25.5481 47.2774C25.5603 47.2396 25.5802 47.2048 25.6067 47.1752C25.6332 47.1456 25.6655 47.1219 25.7017 47.1055C25.7379 47.0892 25.7771 47.0806 25.8168 47.0803C25.8565 47.08 25.8958 47.088 25.9322 47.1038C26.0063 47.1364 26.0648 47.1964 26.0956 47.2712C26.1263 47.346 26.127 47.4298 26.0973 47.5051L20.2492 62.9379C20.2281 62.9945 20.1905 63.0435 20.1413 63.0785C20.0921 63.1135 20.0335 63.1329 19.9731 63.1342Z" fill="#455A64"/>
<path d="M43.178 60.8035L43.9521 62.9321C43.955 62.95 43.955 62.9683 43.9521 62.9862C43.9549 62.9984 43.9549 63.011 43.9521 63.0232C43.9325 63.0806 43.8918 63.1284 43.8382 63.1569C43.7656 63.1961 43.6845 63.2165 43.602 63.2165C43.5196 63.2165 43.4384 63.1961 43.3658 63.1569C43.3248 63.1354 43.2926 63.1001 43.2748 63.0573V63.0573V63.0289L42.5576 61.0368L43.178 60.8035Z" fill="#2196F3"/>
<path d="M20.3809 60.8035L19.6097 62.9321C19.6067 62.95 19.6067 62.9683 19.6097 62.9862V63.0232C19.6304 63.0808 19.6721 63.1285 19.7263 63.1569C19.7984 63.1961 19.8791 63.2165 19.9611 63.2165C20.0431 63.2165 20.1238 63.1961 20.1959 63.1569C20.2375 63.1353 20.2706 63.1002 20.2898 63.0573V63.0573V63.0289L21.0069 61.0368L20.3809 60.8035Z" fill="#2196F3"/>
<path d="M32.1198 68.5184V70.2771C32.1173 70.3079 32.1068 70.3375 32.0893 70.363C32.0719 70.3885 32.048 70.4089 32.0202 70.4222C31.9455 70.4614 31.8625 70.4818 31.7783 70.4818C31.694 70.4818 31.611 70.4614 31.5364 70.4222C31.5082 70.4094 31.484 70.3891 31.4664 70.3635C31.4489 70.3379 31.4386 70.3081 31.4368 70.2771V68.5184C31.541 68.4595 31.6586 68.4286 31.7783 68.4286C31.8979 68.4286 32.0156 68.4595 32.1198 68.5184V68.5184Z" fill="#2196F3"/>
<path d="M45.0456 47.2946C45.0456 46.7425 44.5789 46.1563 43.5971 45.4847C41.7758 44.2553 36.2862 41.3412 33.7392 39.8727C33.7388 39.8673 33.7366 39.8622 33.733 39.8581C33.7294 39.854 33.7246 39.8512 33.7193 39.85C31.7614 38.6121 31.3601 33.1567 30.0055 28.6745C29.5445 27.1463 28.9782 26.2812 28.2981 25.8742C28.1387 25.7803 27.5525 25.4417 27.4215 25.3591C26.0926 24.5282 24.3452 25.527 22.171 26.7678C20.179 27.9061 18.6024 29.3717 18.2894 33.2534C18.0958 35.6183 18.2894 40.1346 18.739 43.5552C19.4049 49.2724 20.2245 49.2838 21.4112 50.24C23.4573 51.8877 28.0618 54.2014 30.0027 54.9982C33.5229 56.441 36.4001 54.2156 38.5401 53.1114C40.5139 52.0709 42.4154 50.8986 44.2317 49.6025C44.7667 49.1956 45.0456 48.7858 45.0399 48.3532C45.0428 48.1768 45.0456 47.4739 45.0456 47.2946Z" fill="#2196F3"/>
<path opacity="0.2" d="M45.0456 47.2946C45.0456 46.7425 44.5789 46.1563 43.5971 45.4847C41.7758 44.2553 36.2862 41.3412 33.7392 39.8727C33.7388 39.8673 33.7366 39.8622 33.733 39.8581C33.7294 39.854 33.7246 39.8512 33.7193 39.85C31.7614 38.6121 31.3601 33.1567 30.0055 28.6745C29.5445 27.1463 28.9782 26.2812 28.2981 25.8742C28.1387 25.7803 27.5525 25.4417 27.4215 25.3591C26.0926 24.5282 24.3452 25.527 22.171 26.7678C20.179 27.9061 18.6024 29.3717 18.2894 33.2534C18.0958 35.6183 18.2894 40.1346 18.739 43.5552C19.4049 49.2724 20.2245 49.2838 21.4112 50.24C23.4573 51.8877 28.0618 54.2014 30.0027 54.9982C33.5229 56.441 36.4001 54.2156 38.5401 53.1114C40.5139 52.0709 42.4154 50.8986 44.2317 49.6025C44.7667 49.1956 45.0456 48.7858 45.0399 48.3532C45.0428 48.1768 45.0456 47.4739 45.0456 47.2946Z" fill="black"/>
<path d="M38.5545 52.0442C40.5284 51.0037 42.4299 49.8314 44.2461 48.5353C45.4641 47.6133 45.3531 46.6685 43.6058 45.4846C41.1556 43.8426 32.3336 39.0673 32.3336 39.0673C32.3336 39.0673 20.0198 46.6059 20.5576 48.0288C21.0955 49.4517 27.5697 52.9349 30.0114 53.9366C33.5317 55.3738 36.4088 53.1512 38.5545 52.0442Z" fill="#2196F3"/>
<g opacity="0.05">
<path opacity="0.05" d="M38.5533 52.0441C40.5271 51.0036 42.4286 49.8313 44.2449 48.5352C45.4629 47.6132 45.3519 46.6684 43.6046 45.4845C41.1544 43.8425 32.3324 39.0672 32.3324 39.0672C32.3324 39.0672 20.0186 46.6058 20.5564 48.0287C21.0943 49.4516 27.5685 52.9348 30.0102 53.9366C33.5304 55.3737 36.4076 53.1511 38.5533 52.0441Z" fill="black"/>
</g>
<path d="M28.2291 25.8314C26.9115 25.1114 25.1984 26.0903 23.0811 27.2998C21.7236 28.0767 20.5654 28.9931 19.8653 30.7148L18.9575 30.1712C19.6604 28.4637 20.8158 27.5417 22.1676 26.7563C24.3418 25.5155 26.0891 24.5195 27.4181 25.3476L28.2291 25.8314Z" fill="#2196F3"/>
<path opacity="0.6" d="M28.2291 25.8314C26.9115 25.1114 25.1984 26.0903 23.0811 27.2998C21.7236 28.0767 20.5654 28.9931 19.8653 30.7148L18.9575 30.1712C19.6604 28.4637 20.8158 27.5417 22.1676 26.7563C24.3418 25.5155 26.0891 24.5195 27.4181 25.3476L28.2291 25.8314Z" fill="white"/>
<path d="M23.0786 27.2971C26.3342 25.4416 28.6336 24.124 30.0053 28.6773C31.3599 33.1595 31.7611 38.6149 33.719 39.8528C33.719 39.8528 34.513 39.739 29.641 43.5751C28.09 44.7959 26.226 45.7948 24.9739 46.5632C22.5549 48.0658 21.0865 48.6691 20.8531 48.467C19.5754 47.3629 18.881 37.6701 19.1969 33.7884C19.5128 29.9067 21.0751 28.4411 23.0786 27.2971Z" fill="#2196F3"/>
<path d="M31.5842 41.9617C31.2255 42.714 30.8037 43.4347 30.3235 44.1159L30.6906 44.4204C30.6906 44.4204 31.5842 43.1911 31.5842 41.9617Z" fill="#263238"/>
<path d="M38.9842 62.7898C38.9842 62.7898 39.2489 65.8604 39.7099 66.8649C40.2012 68.0045 40.83 69.0797 41.5825 70.0665C41.7674 70.3027 42.1886 70.7438 42.3366 70.9344C42.3725 70.9721 42.3996 71.0173 42.416 71.0667C42.4324 71.1161 42.4377 71.1686 42.4314 71.2202C42.4251 71.2719 42.4075 71.3216 42.3798 71.3656C42.3521 71.4097 42.315 71.4471 42.2711 71.4752C41.8557 71.8337 40.1652 71.8366 39.2574 71.0796C38.3496 70.3226 37.6239 69.116 37.0918 68.5184L36.3889 67.7187C36.3021 67.6194 36.2427 67.4992 36.2162 67.3701C36.1898 67.2409 36.1973 67.107 36.238 66.9816C36.2608 66.9114 36.2864 66.8261 36.3149 66.7255C36.5824 65.8262 36.1384 63.2166 36.1384 63.2166C37.0121 62.1352 37.9711 62.5422 38.9842 62.7898Z" fill="#FFB573"/>
<path d="M36.1174 67.9095C36.0855 68.0626 36.0933 68.2213 36.1401 68.3705C36.2198 68.5839 36.7918 68.9909 37.0878 69.1559C37.4272 69.3627 37.6938 69.6701 37.8505 70.0353C38.1834 70.7416 38.7156 71.3351 39.3815 71.7428C40.2914 72.1865 41.3143 72.3442 42.3155 72.1953C43.5592 72.0359 43.6958 71.3131 43.6958 71.3131C43.6958 71.3131 43.7954 70.6329 43.4937 70.5106C43.192 70.3882 36.1174 67.9095 36.1174 67.9095Z" fill="#263238"/>
<path d="M36.2204 65.7977C36.2199 65.9078 36.2075 66.0175 36.1834 66.125C36.1294 66.4636 36.0867 66.6742 36.044 67.0613C36.0064 67.3478 36.0317 67.6392 36.118 67.915C36.4566 68.4358 37.3075 68.6464 37.7686 69.3578C38.2296 70.0693 38.7646 71.1592 40.3639 71.5633C41.9633 71.9674 43.2097 71.5121 43.5342 71.0681C43.8586 70.6242 43.6053 70.1774 42.6007 69.5656C41.5307 68.9167 40.3042 67.2662 40.3042 67.2662C40.1818 67.1011 40.0765 66.9161 39.9684 66.7397C39.8293 66.5473 39.7217 66.3341 39.6496 66.1079C39.5905 65.8678 39.5637 65.6209 39.5699 65.3737C39.5756 65.3542 39.5756 65.3335 39.5699 65.3139C39.554 65.2998 39.5342 65.2909 39.513 65.2883C38.9142 65.1929 38.3006 65.2927 37.7629 65.5729C37.706 65.5972 37.6553 65.6342 37.6149 65.681C37.5863 65.724 37.5642 65.771 37.5494 65.8205L37.4157 66.2018C37.3815 66.3014 37.3331 66.4153 37.2335 66.4494C37.1339 66.4836 36.9888 66.401 36.892 66.3157C36.7953 66.2303 36.7384 66.0311 36.6331 65.9457C36.5775 65.895 36.5124 65.8558 36.4416 65.8304C36.3707 65.805 36.2956 65.7939 36.2204 65.7977Z" fill="#2196F3"/>
<path opacity="0.5" d="M36.2204 65.7977C36.2199 65.9078 36.2075 66.0175 36.1834 66.125C36.1294 66.4636 36.0867 66.6742 36.044 67.0613C36.0064 67.3478 36.0317 67.6392 36.118 67.915C36.4566 68.4358 37.3075 68.6464 37.7686 69.3578C38.2296 70.0693 38.7646 71.1592 40.3639 71.5633C41.9633 71.9674 43.2097 71.5121 43.5342 71.0681C43.8586 70.6242 43.6053 70.1774 42.6007 69.5656C41.5307 68.9167 40.3042 67.2662 40.3042 67.2662C40.1818 67.1011 40.0765 66.9161 39.9684 66.7397C39.8293 66.5473 39.7217 66.3341 39.6496 66.1079C39.5905 65.8678 39.5637 65.6209 39.5699 65.3737C39.5756 65.3542 39.5756 65.3335 39.5699 65.3139C39.554 65.2998 39.5342 65.2909 39.513 65.2883C38.9142 65.1929 38.3006 65.2927 37.7629 65.5729C37.706 65.5972 37.6553 65.6342 37.6149 65.681C37.5863 65.724 37.5642 65.771 37.5494 65.8205L37.4157 66.2018C37.3815 66.3014 37.3331 66.4153 37.2335 66.4494C37.1339 66.4836 36.9888 66.401 36.892 66.3157C36.7953 66.2303 36.7384 66.0311 36.6331 65.9457C36.5775 65.895 36.5124 65.8558 36.4416 65.8304C36.3707 65.805 36.2956 65.7939 36.2204 65.7977Z" fill="black"/>
<path d="M21.6128 39.8727C21.3282 41.2302 20.7306 45.1375 22.1335 46.8877C23.0499 48.026 23.6674 48.6805 26.4705 50.0835C29.083 51.3897 33.9493 53.4985 33.9493 53.4985C33.8269 54.5856 33.5566 55.7922 34.3876 58.7632C34.9084 60.63 35.3865 61.7257 36.0324 63.9966C36.5817 64.3694 38.7018 64.2385 39.1628 63.6466C39.1628 62.2578 38.827 51.6942 38.2095 50.3112C37.5919 48.9281 30.2412 44.6736 30.2412 44.6736C30.2412 44.6736 29.6066 42.4197 30.0022 40.7692L21.6128 39.8727Z" fill="#455A64"/>
<path d="M46.1952 59.6965C46.1952 59.6965 46.5281 62.8725 46.9436 63.8969C47.3837 65.0569 47.9638 66.1588 48.671 67.1782C48.8446 67.4229 49.2402 67.8811 49.3882 68.0803C49.4219 68.1196 49.4465 68.1659 49.4603 68.2158C49.4741 68.2657 49.4768 68.3181 49.4681 68.3691C49.4594 68.4202 49.4396 68.4687 49.41 68.5113C49.3805 68.5538 49.3419 68.5893 49.2971 68.6153C48.8645 68.9568 47.177 68.8828 46.3033 68.086C45.4296 67.2891 44.758 66.0512 44.2543 65.4308C43.9982 65.1178 43.762 64.8218 43.5884 64.6027C43.5057 64.4993 43.4513 64.3763 43.4303 64.2457C43.4094 64.115 43.4227 63.9811 43.4689 63.8571C43.4945 63.786 43.5258 63.7034 43.5599 63.6038C43.8645 62.7188 43.0676 60.2572 43.0676 60.2572C44.0011 59.2213 45.1934 59.412 46.1952 59.6965Z" fill="#FFB573"/>
<path d="M43.3095 64.7847C43.2705 64.9359 43.2705 65.0945 43.3095 65.2457C43.3806 65.462 43.9327 65.8946 44.223 66.0738C44.5522 66.2954 44.8047 66.6136 44.9458 66.9845C45.2464 67.7029 45.7523 68.3166 46.4 68.7489C47.2878 69.2341 48.3022 69.4376 49.3084 69.3323C50.5606 69.2298 50.7313 68.5127 50.7313 68.5127C50.7313 68.5127 50.8622 67.8382 50.5663 67.7016C50.2703 67.565 43.3095 64.7847 43.3095 64.7847Z" fill="#263238"/>
<path d="M43.5057 62.679C43.4999 62.7896 43.4827 62.8993 43.4545 63.0063C43.3833 63.3393 43.3321 63.5499 43.2752 63.934C43.2234 64.2176 43.235 64.5092 43.3093 64.7878C43.6252 65.3228 44.4647 65.5704 44.8916 66.3017C45.3185 67.0331 45.8079 68.1487 47.3874 68.6211C48.9668 69.0935 50.2332 68.7008 50.5775 68.271C50.9218 67.8413 50.6885 67.3832 49.7095 66.7258C48.6708 66.0314 47.5211 64.3268 47.5211 64.3268C47.4044 64.156 47.3077 63.9682 47.2081 63.7861C47.0802 63.5868 46.9842 63.3689 46.9235 63.1401C46.8742 62.8977 46.8589 62.6496 46.878 62.403C46.8849 62.3837 46.8849 62.3625 46.878 62.3432C46.8712 62.3354 46.8629 62.3291 46.8536 62.3247C46.8443 62.3203 46.8342 62.3179 46.8239 62.3176C46.2303 62.1924 45.6121 62.2633 45.0623 62.5197C45.0039 62.5415 44.9513 62.5766 44.9087 62.6221C44.8783 62.6628 44.8543 62.7079 44.8375 62.7559C44.7891 62.8811 44.7379 63.0063 44.6867 63.1315C44.6355 63.2567 44.5985 63.3393 44.496 63.3706C44.3936 63.4019 44.2513 63.3108 44.1602 63.2197C44.0692 63.1287 44.0179 62.9352 43.9183 62.8412C43.8073 62.7352 43.6592 62.677 43.5057 62.679V62.679Z" fill="#2196F3"/>
<path opacity="0.5" d="M43.5057 62.679C43.4999 62.7896 43.4827 62.8993 43.4545 63.0063C43.3833 63.3393 43.3321 63.5499 43.2752 63.934C43.2234 64.2176 43.235 64.5092 43.3093 64.7878C43.6252 65.3228 44.4647 65.5704 44.8916 66.3017C45.3185 67.0331 45.8079 68.1487 47.3874 68.6211C48.9668 69.0935 50.2332 68.7008 50.5775 68.271C50.9218 67.8413 50.6885 67.3832 49.7095 66.7258C48.6708 66.0314 47.5211 64.3268 47.5211 64.3268C47.4044 64.156 47.3077 63.9682 47.2081 63.7861C47.0802 63.5868 46.9842 63.3689 46.9235 63.1401C46.8742 62.8977 46.8589 62.6496 46.878 62.403C46.8849 62.3837 46.8849 62.3625 46.878 62.3432C46.8712 62.3354 46.8629 62.3291 46.8536 62.3247C46.8443 62.3203 46.8342 62.3179 46.8239 62.3176C46.2303 62.1924 45.6121 62.2633 45.0623 62.5197C45.0039 62.5415 44.9513 62.5766 44.9087 62.6221C44.8783 62.6628 44.8543 62.7079 44.8375 62.7559C44.7891 62.8811 44.7379 63.0063 44.6867 63.1315C44.6355 63.2567 44.5985 63.3393 44.496 63.3706C44.3936 63.4019 44.2513 63.3108 44.1602 63.2197C44.0692 63.1287 44.0179 62.9352 43.9183 62.8412C43.8073 62.7352 43.6592 62.677 43.5057 62.679V62.679Z" fill="black"/>
<path d="M21.8348 40.8034C21.5502 42.4568 29.3079 45.7892 29.3079 45.7892C30.3587 46.3311 31.4368 46.8184 32.5379 47.2491C35.7223 48.5411 41.5647 50.1974 41.5647 50.1974C41.3509 51.1224 41.318 52.08 41.468 53.0175C41.6416 54.0961 41.7156 54.4035 42.2734 56.8907C42.6974 58.7803 42.8425 59.654 43.2125 60.9886C43.9125 61.111 45.7737 61.0541 46.3429 60.5988C46.2347 59.0279 46.5961 48.7289 45.9672 47.3373C44.8801 44.9326 33.2351 39.4971 33.2351 39.4971L21.8348 40.8034Z" fill="#455A64"/>
<path d="M36.3175 48.5695L30.2417 44.6821C30.2417 44.6821 32.7574 43.4499 33.1928 41.2302C33.1894 41.899 33.0388 42.5588 32.7515 43.1628C32.4643 43.7668 32.0475 44.3001 31.5308 44.7248L36.3175 48.5695Z" fill="#37474F"/>
<path d="M47.0914 23.5691C46.9849 23.2024 46.7824 22.8708 46.5047 22.6086C46.227 22.3464 45.8843 22.1632 45.512 22.0779C45.4035 22.0474 45.2874 22.0597 45.1876 22.1121C45.104 22.1864 45.0479 22.2866 45.0282 22.3967C44.8632 22.9971 44.6754 23.5891 44.4591 24.1724C44.3604 24.4629 44.2464 24.7479 44.1176 25.0262C44.0806 25.0945 43.833 25.3961 43.8159 25.4274C43.8444 25.1154 43.8348 24.801 43.7875 24.4912C43.771 24.3514 43.7004 24.2236 43.5908 24.1353C43.4812 24.047 43.3413 24.0051 43.2012 24.0188C43.0789 24.0415 43.15 24.3375 43.0106 24.8184C42.8341 25.436 42.6292 25.8372 42.6093 26.5259C42.6007 26.7857 42.4998 27.0339 42.3247 27.226C41.4881 28.1423 39.1773 29.9893 37.5608 31.0764C36.6331 30.2226 35.5688 28.6489 34.2739 27.0581C32.6917 25.0945 31.7127 24.4314 29.4873 24.4798L30.0565 28.2989C31.5164 30.0974 32.8169 31.2983 35.6684 34.2295C36.3286 34.9097 36.8266 35.18 37.2734 35.2199C37.8739 35.2739 38.4402 34.7901 38.9809 34.3234C40.2188 33.279 41.4454 32.1948 42.6008 31.0621C44.1802 29.5169 46.2349 27.6073 46.9264 25.7803C47.2231 25.0815 47.2811 24.3043 47.0914 23.5691V23.5691Z" fill="#FFB573"/>
<path d="M29.1147 24.4939C29.9249 24.4031 30.7449 24.4678 31.5308 24.6846C32.2878 24.9379 32.9196 25.342 34.2343 26.9157C35.5491 28.4894 37.0232 30.3876 37.0232 30.3876C37.0232 30.3876 36.8468 32.1207 34.462 33.3557L29.3766 28.498L29.1147 24.4939Z" fill="#2196F3"/>
<path opacity="0.3" d="M29.1147 24.4939C29.9249 24.4031 30.7449 24.4678 31.5308 24.6846C32.2878 24.9379 32.9196 25.342 34.2343 26.9157C35.5491 28.4894 37.0232 30.3876 37.0232 30.3876C37.0232 30.3876 36.8468 32.1207 34.462 33.3557L29.3766 28.498L29.1147 24.4939Z" fill="black"/>
<path d="M25.5491 24.6417C25.5491 24.6417 22.8598 25.006 22.1341 25.4015L20.8535 31.8074L21.7386 36.762L21.1922 42.3369C22.8797 44.1696 32.4729 43.5321 33.5088 39.6362C33.5088 39.6362 33.0136 30.7146 32.9055 28.845C32.786 26.8358 31.3602 24.6901 29.3369 24.4795L25.5491 24.6417Z" fill="#F0F0F0"/>
<path d="M32.4584 17.1681C33.2567 16.2774 33.1818 14.9082 32.2912 14.1099C31.4005 13.3116 30.0313 13.3865 29.233 14.2771C28.4347 15.1678 28.5096 16.537 29.4003 17.3353C30.2909 18.1336 31.6601 18.0587 32.4584 17.1681Z" fill="#263238"/>
<path d="M22.6877 15.3874C22.866 15.1981 23.0987 15.0688 23.3536 15.0175L22.4828 14.5565C22.5225 14.4704 22.5793 14.3934 22.6497 14.33C22.7202 14.2666 22.8028 14.2183 22.8926 14.1879C22.9823 14.1576 23.0773 14.1458 23.1718 14.1534C23.2662 14.161 23.3581 14.1877 23.4419 14.232C23.6053 14.3232 23.7294 14.4714 23.7904 14.6484C23.8513 14.8254 23.8447 15.0186 23.772 15.1911L24.0964 18.5633L24.381 18.532L24.5119 20.4956L24.5574 22.3824C23.7691 22.3824 23.1744 21.3437 22.7105 18.7085C22.3348 16.725 22.2324 15.8712 22.6877 15.3874Z" fill="#263238"/>
<path d="M24.4415 18.868C24.2309 18.996 23.9293 18.5834 23.6674 18.3244C23.4056 18.0655 22.5604 17.6898 22.1421 18.5806C21.7238 19.4713 22.4267 20.6182 23.0357 20.9682C23.824 21.4207 24.3789 21.0792 24.3789 21.0792V25.2767C24.3789 25.2767 25.17 26.6342 27.33 26.7594C29.3818 26.8789 29.0375 25.5869 28.3573 24.7673V23.5066C28.7104 23.5926 29.0704 23.6468 29.433 23.6689C30.3209 23.7002 31.0779 23.5152 31.5788 21.8561C31.9558 20.504 32.1143 19.1004 32.0483 17.6984C32.0509 16.8064 31.9824 15.9157 31.8434 15.0347C31.4507 12.6499 27.6203 12.8889 25.6396 14.1525C23.6589 15.416 24.4415 18.868 24.4415 18.868Z" fill="#FFB573"/>
<path d="M23.6668 18.3241C23.3025 17.9969 23.7522 15.0059 23.7522 15.0059C23.7522 15.0059 23.3794 13.8676 24.0908 13.1192C24.8023 12.3707 26.1939 12.4845 27.2212 12.4419C28.4683 12.441 29.702 12.1853 30.8468 11.6906C32.2839 11.0559 32.392 10.982 32.5742 11.6137C32.6868 11.9819 32.7255 12.3688 32.688 12.752C32.6711 13.096 32.6302 13.4383 32.5656 13.7765C32.4558 14.2059 32.2473 14.6038 31.9565 14.9383C31.6658 15.2729 31.301 15.5349 30.8911 15.7035C30.4812 15.8721 30.0375 15.9426 29.5956 15.9095C29.1536 15.8763 28.7254 15.7404 28.3453 15.5125C28.2242 15.7301 28.0416 15.9071 27.8205 16.0215C27.5993 16.1359 27.3492 16.1826 27.1017 16.1556C26.6085 16.0998 26.1315 15.9459 25.6987 15.7031C25.6987 16.8842 25.2434 18.0111 24.788 19.101C24.5433 19.6958 23.8489 18.4863 23.6668 18.3241Z" fill="#263238"/>
<path d="M28.3486 23.5067C28.3486 23.5067 26.4618 23.1396 25.8016 22.7924C25.4119 22.5939 25.0922 22.2812 24.8853 21.896C24.9859 22.2817 25.164 22.6429 25.4089 22.9575C25.8927 23.5693 28.3514 24.0076 28.3514 24.0076L28.3486 23.5067Z" fill="#F28F8F"/>
<path d="M28.1024 18.717C28.1039 18.7705 28.0948 18.8237 28.0758 18.8736C28.0567 18.9236 28.028 18.9693 27.9913 19.0082C27.9545 19.047 27.9105 19.0782 27.8617 19.1001C27.8129 19.1219 27.7602 19.1339 27.7068 19.1354C27.5983 19.1331 27.4951 19.0883 27.4195 19.0105C27.3439 18.9327 27.3019 18.8283 27.3027 18.7199C27.298 18.6645 27.3049 18.6088 27.3229 18.5563C27.3408 18.5037 27.3695 18.4555 27.4071 18.4146C27.4447 18.3737 27.4903 18.341 27.5412 18.3187C27.592 18.2964 27.647 18.2849 27.7025 18.2849C27.7581 18.2849 27.813 18.2964 27.8639 18.3187C27.9147 18.341 27.9604 18.3737 27.998 18.4146C28.0355 18.4555 28.0642 18.5037 28.0822 18.5563C28.1002 18.6088 28.107 18.6645 28.1024 18.7199V18.717Z" fill="#263238"/>
<path d="M27.6183 17.1489L26.7646 17.6242C26.7032 17.5077 26.6891 17.372 26.7251 17.2454C26.7612 17.1187 26.8446 17.0108 26.9581 16.944C27.0144 16.9122 27.0767 16.8923 27.1411 16.8854C27.2055 16.8786 27.2705 16.8849 27.3324 16.9041C27.3942 16.9233 27.4514 16.9549 27.5006 16.997C27.5498 17.0391 27.5898 17.0908 27.6183 17.1489Z" fill="#263238"/>
<path d="M27.7489 21.2041L28.762 21.5769C28.7405 21.6448 28.7056 21.7076 28.6593 21.7616C28.613 21.8157 28.5563 21.8598 28.4925 21.8914C28.4288 21.9231 28.3593 21.9415 28.2882 21.9456C28.2172 21.9498 28.146 21.9396 28.079 21.9156C27.9433 21.8619 27.8333 21.7582 27.7719 21.6258C27.7104 21.4934 27.7022 21.3424 27.7489 21.2041V21.2041Z" fill="#F28F8F"/>
<path d="M31.4283 17.6299L30.6458 17.0351C30.682 16.9822 30.7287 16.9371 30.7829 16.9028C30.8371 16.8685 30.8978 16.8455 30.9611 16.8354C31.0245 16.8253 31.0893 16.8282 31.1515 16.8439C31.2138 16.8597 31.2721 16.8879 31.3231 16.927C31.4275 17.0082 31.4968 17.1265 31.5164 17.2574C31.536 17.3883 31.5044 17.5217 31.4283 17.6299Z" fill="#263238"/>
<path d="M31.1956 18.6116C31.1975 18.6652 31.1888 18.7185 31.1698 18.7687C31.1509 18.8188 31.1222 18.8646 31.0854 18.9036C31.0486 18.9425 31.0044 18.9737 30.9554 18.9954C30.9064 19.0171 30.8536 19.0289 30.8001 19.03C30.6916 19.0277 30.5884 18.9829 30.5128 18.9051C30.4372 18.8273 30.3952 18.7229 30.396 18.6145C30.3913 18.5591 30.3981 18.5034 30.4161 18.4509C30.4341 18.3983 30.4628 18.3501 30.5004 18.3092C30.5379 18.2683 30.5836 18.2356 30.6345 18.2133C30.6853 18.191 30.7402 18.1794 30.7958 18.1794C30.8513 18.1794 30.9063 18.191 30.9571 18.2133C31.008 18.2356 31.0536 18.2683 31.0912 18.3092C31.1288 18.3501 31.1575 18.3983 31.1755 18.4509C31.1934 18.5034 31.2003 18.5591 31.1956 18.6145V18.6116Z" fill="#263238"/>
<path d="M29.1599 18.1563L29.305 20.5582L30.5572 20.1228L29.1599 18.1563Z" fill="#F28F8F"/>
<path d="M16.112 36.913C16.5303 34.6051 18.104 30.5128 18.7529 28.6602C19.6977 25.9994 20.8702 25.453 22.498 25.2737C23.1639 25.914 23.3859 28.5691 22.0398 31.4377C21.3995 33.0114 20.0307 37.8521 20.0307 37.8521C20.1303 38.2506 22.4809 43.0543 23.3147 44.3605C23.4733 44.5954 23.7121 44.7644 23.9863 44.8357C24.7433 45.052 25.3608 45.57 25.9784 45.9228C26.465 46.2074 26.8179 46.2074 26.798 46.3383C26.7781 46.4692 26.5618 46.8107 26.0524 46.7908C25.6927 46.7518 25.3386 46.6726 24.9966 46.5546C25.3743 47.0441 25.83 47.4681 26.3455 47.8096C27.5379 48.6121 27.555 49.3776 25.6995 49.8301C24.5384 50.1147 23.4228 49.685 21.9402 47.5734C21.4178 46.8257 20.9343 46.0516 20.4917 45.2541C19.4216 43.3161 18.3459 41.9956 17.6459 40.7008C16.2884 38.2819 15.9384 37.8009 16.112 36.913Z" fill="#FFB573"/>
<path d="M22.6177 25.1939C22.6177 25.1939 21.2602 25.0829 20.3012 25.7175C19.3422 26.3522 18.9523 27.5616 18.2892 29.326C17.6261 31.0904 16.6216 33.8452 16.6216 33.8452C16.6216 33.8452 17.8168 35.9055 20.8078 35.5526C20.8078 35.5526 22.5323 30.5213 22.8454 29.7927C23.1584 29.0642 23.48 26.6851 22.6177 25.1939Z" fill="#2196F3"/>
<path opacity="0.3" d="M22.6177 25.1939C22.6177 25.1939 21.2602 25.0829 20.3012 25.7175C19.3422 26.3522 18.9523 27.5616 18.2892 29.326C17.6261 31.0904 16.6216 33.8452 16.6216 33.8452C16.6216 33.8452 17.8168 35.9055 20.8078 35.5526C20.8078 35.5526 22.5323 30.5213 22.8454 29.7927C23.1584 29.0642 23.48 26.6851 22.6177 25.1939Z" fill="black"/>
</svg>
