<svg width="71" height="71" viewBox="0 0 71 71" fill="none" xmlns="http://www.w3.org/2000/svg">
<path d="M3.63859 47.4398L0.559367 45.6628C0.396314 45.5567 0.260647 45.4136 0.163435 45.2451C0.0662236 45.0767 0.0102215 44.8876 0 44.6933V26.6011C0.0104993 26.4072 0.0666325 26.2185 0.163832 26.0503C0.261031 25.8822 0.396551 25.7394 0.559367 25.6335L25.6751 11.1313C25.8485 11.0434 26.0401 10.9977 26.2345 10.9977C26.4289 10.9977 26.6205 11.0434 26.7939 11.1313L29.8731 12.9065C30.0359 13.0124 30.1714 13.1552 30.2686 13.3234C30.3658 13.4915 30.422 13.6802 30.4325 13.8742V31.9718C30.422 32.1657 30.3658 32.3544 30.2686 32.5226C30.1714 32.6907 30.0359 32.8335 29.8731 32.9394L4.75732 47.4398C4.58395 47.5277 4.39232 47.5735 4.19795 47.5735C4.00359 47.5735 3.81196 47.5277 3.63859 47.4398Z" fill="#455A64"/>
<path d="M30.4327 13.8778V31.9718C30.4222 32.1657 30.3661 32.3544 30.2689 32.5226C30.1717 32.6907 30.0362 32.8335 29.8734 32.9394L4.75761 47.4398C4.44825 47.6197 4.19824 47.474 4.19824 47.1179V29.0256C4.20846 28.8314 4.26446 28.6423 4.36168 28.4738C4.45889 28.3054 4.59456 28.1623 4.75761 28.0562L29.8734 13.5558C30.1827 13.3777 30.4327 13.5216 30.4327 13.8778Z" fill="#263238"/>
<path d="M4.62782 47.5027C4.46762 47.5609 4.29719 47.5856 4.12706 47.5754C3.95693 47.5652 3.79069 47.5203 3.63859 47.4434L0.559367 45.6663C0.396614 45.56 0.261175 45.4168 0.164002 45.2484C0.0668288 45.0799 0.0106474 44.891 0 44.6969V26.6011C0.0071131 26.4067 0.063429 26.2174 0.163674 26.0507L4.36163 28.4734C4.26138 28.6401 4.20507 28.8295 4.19795 29.0238V47.1214C4.19616 47.4254 4.37602 47.5747 4.62782 47.5027Z" fill="#37474F"/>
<path d="M47.5006 64.2695L44.9124 62.7748C44.8258 62.7305 44.7299 62.7074 44.6327 62.7074C44.5354 62.7074 44.4396 62.7305 44.353 62.7748L41.763 64.2695C41.6803 64.3209 41.6121 64.3928 41.5652 64.4781C41.5562 64.4943 41.5508 64.5141 41.5418 64.5303C41.5065 64.5996 41.4862 64.6756 41.4824 64.7533V68.9549C41.4878 69.0472 41.5138 69.1372 41.5586 69.2182C41.6035 69.2991 41.6659 69.369 41.7414 69.4225C41.7414 69.4225 41.754 69.4351 41.7612 69.4387L44.3494 70.9333L44.3836 70.9459C44.4146 70.9617 44.4471 70.9744 44.4807 70.9837C44.5297 70.9945 44.5798 70.9999 44.63 70.9999C44.7271 71.002 44.8231 70.9791 44.9088 70.9333L47.4988 69.4387C47.5801 69.3857 47.6478 69.3143 47.6962 69.2302C47.7447 69.1461 47.7725 69.0518 47.7776 68.9549V64.7533C47.7727 64.6565 47.7452 64.5623 47.697 64.4782C47.6489 64.3941 47.5816 64.3226 47.5006 64.2695Z" fill="#455A64"/>
<path d="M44.9101 70.9332L47.5001 69.4386C47.5815 69.3857 47.6491 69.3142 47.6976 69.2301C47.746 69.1461 47.7739 69.0517 47.7789 68.9548V64.7532C47.7789 64.5734 47.6548 64.5032 47.5001 64.5913L44.9119 66.086C44.8305 66.1389 44.7626 66.2103 44.7139 66.2944C44.6651 66.3784 44.6368 66.4728 44.6313 66.5698V70.7714C44.6313 70.9512 44.7572 71.0232 44.9101 70.9332Z" fill="#37474F"/>
<path d="M69.5351 51.5462L66.947 50.0516C66.8604 50.0072 66.7645 49.9841 66.6673 49.9841C66.57 49.9841 66.4741 50.0072 66.3876 50.0516L63.7976 51.5462C63.7148 51.5977 63.6467 51.6695 63.5997 51.7549C63.5997 51.771 63.5853 51.7908 63.5764 51.807C63.5413 51.8764 63.5217 51.9524 63.5188 52.03V56.2316C63.5245 56.3239 63.5507 56.4137 63.5955 56.4946C63.6403 56.5755 63.7026 56.6454 63.7778 56.6992C63.7839 56.7052 63.7906 56.7106 63.7976 56.7154L66.3876 58.2101C66.3979 58.2153 66.4088 58.2195 66.42 58.2227C66.4512 58.2379 66.4837 58.2505 66.5171 58.2604C66.5661 58.2712 66.6162 58.2767 66.6664 58.2766C66.764 58.2788 66.8606 58.2558 66.947 58.2101L69.5351 56.7154C69.6165 56.6625 69.6842 56.5911 69.7326 56.507C69.7811 56.4229 69.8089 56.3285 69.8139 56.2316V52.03C69.8088 51.9332 69.7809 51.8389 69.7324 51.7548C69.684 51.6707 69.6164 51.5993 69.5351 51.5462Z" fill="#455A64"/>
<path d="M66.9474 58.2099L69.5356 56.7152C69.617 56.6623 69.6846 56.5909 69.7331 56.5068C69.7815 56.4227 69.8094 56.3283 69.8144 56.2314V52.0298C69.8144 51.85 69.6885 51.7798 69.5338 51.868L66.9456 53.3626C66.8639 53.4157 66.7959 53.4874 66.7471 53.5718C66.6984 53.6562 66.6703 53.7509 66.665 53.8482V58.0516C66.6668 58.2314 66.7873 58.2998 66.9474 58.2099Z" fill="#37474F"/>
<path d="M29.3139 27.1984L5.31682 41.0477C4.98991 41.2599 4.71793 41.5466 4.52316 41.8843C4.32839 42.2219 4.21638 42.6009 4.19629 42.9902V44.0513C4.21716 44.4397 4.32934 44.8177 4.52373 45.1546C4.71811 45.4915 4.98922 45.7778 5.31502 45.9902L43.5121 68.025C43.8586 68.2014 44.242 68.2934 44.6308 68.2934C45.0197 68.2934 45.403 68.2014 45.7496 68.025L69.7466 54.1757C70.0725 53.9638 70.3437 53.6778 70.5381 53.3412C70.7325 53.0046 70.8446 52.6268 70.8654 52.2386V51.1774C70.8445 50.789 70.7323 50.411 70.5379 50.0742C70.3435 49.7373 70.0724 49.451 69.7466 49.2385L31.5513 27.1984C31.2048 27.022 30.8215 26.93 30.4326 26.93C30.0438 26.93 29.6604 27.022 29.3139 27.1984Z" fill="#455A64"/>
<path d="M70.8652 51.1718V52.233C70.8439 52.6213 70.7315 52.9991 70.5371 53.336C70.3428 53.6728 70.0719 53.9591 69.7464 54.1719L45.744 68.0266C45.3998 68.2092 45.0147 68.3008 44.6252 68.2928V64.647C45.0147 64.6551 45.3998 64.5634 45.744 64.3808L69.741 50.5315C70.3166 50.197 70.3561 49.6718 69.8543 49.3121C70.1484 49.5294 70.3913 49.8086 70.5659 50.1299C70.7406 50.4512 70.8427 50.8068 70.8652 51.1718Z" fill="#263238"/>
<path d="M5.31682 42.3445C4.72868 42.0064 4.7017 41.4686 5.23229 41.1107C4.93034 41.3268 4.68059 41.6078 4.50133 41.933C4.32207 42.2583 4.21784 42.6195 4.19629 42.9902V44.0514C4.21716 44.4398 4.32934 44.8178 4.52373 45.1547C4.71811 45.4915 4.98922 45.7778 5.31502 45.9903L43.5121 68.025C43.8558 68.2089 44.2411 68.3012 44.6308 68.293V64.6473C44.2414 64.6548 43.8564 64.5632 43.5121 64.3811L5.31682 42.3445Z" fill="#37474F"/>
<path d="M29.3139 21.1499L5.31682 34.9992C4.98991 35.2114 4.71793 35.4981 4.52316 35.8358C4.32839 36.1734 4.21638 36.5524 4.19629 36.9417V39.2043C4.21708 39.5932 4.32941 39.9716 4.52413 40.3089C4.71884 40.6461 4.99045 40.9326 5.31682 41.145L43.5121 63.1798C43.8589 63.3554 44.2421 63.4468 44.6308 63.4468C45.0195 63.4468 45.4028 63.3554 45.7496 63.1798L69.7466 49.3305C70.0725 49.1185 70.3437 48.8326 70.5381 48.496C70.7325 48.1593 70.8446 47.7816 70.8654 47.3934V45.1235C70.8445 44.7351 70.7323 44.3571 70.5379 44.0203C70.3435 43.6834 70.0724 43.3971 69.7466 43.1846L31.5513 21.1499C31.2048 20.9735 30.8215 20.8815 30.4326 20.8815C30.0438 20.8815 29.6604 20.9735 29.3139 21.1499Z" fill="#2196F3"/>
<path opacity="0.8" d="M5.31682 36.2888L43.5121 58.3325C43.8589 58.5081 44.2421 58.5996 44.6308 58.5996C45.0195 58.5996 45.4028 58.5081 45.7496 58.3325L69.7466 44.4832C70.3653 44.1235 70.3653 43.5479 69.7466 43.19L31.5513 21.1499C31.2048 20.9735 30.8215 20.8815 30.4326 20.8815C30.0437 20.8815 29.6604 20.9735 29.3139 21.1499L5.31682 34.9992C4.6981 35.3607 4.6981 35.9398 5.31682 36.2888Z" fill="white"/>
<path opacity="0.05" d="M9.4449 33.8316L14.6609 36.8622C15.2796 37.2219 15.9019 37.132 16.7868 36.8622C17.6717 36.5924 20.6017 35.4233 20.6017 35.4233C20.6017 35.4233 21.0801 37.3155 23.082 39.8857C23.8446 40.8641 25.2906 42.7023 27.7188 44.0225L41.9709 35.6535L30.4275 28.9879L31.4761 28.3944C32.2567 27.9213 32.0948 27.5166 31.4761 27.1587L25.1216 23.5021L9.44131 32.6193C8.82438 32.9772 8.82618 33.4754 9.4449 33.8316Z" fill="black"/>
<path opacity="0.5" d="M70.8652 45.1232V47.3876C70.8439 47.7757 70.7315 48.1532 70.5371 48.4898C70.3428 48.8263 70.0719 49.1124 69.7464 49.3247L45.744 63.1794C45.3998 63.362 45.0147 63.4536 44.6252 63.4456V58.5912C45.0147 58.5992 45.3998 58.5076 45.744 58.325L69.741 44.4757C70.3166 44.1411 70.3561 43.6159 69.8543 43.2562C70.1493 43.4743 70.3928 43.7546 70.5674 44.0772C70.7421 44.3999 70.8437 44.7569 70.8652 45.1232Z" fill="white"/>
<path opacity="0.6" d="M5.31682 36.2886C4.72868 35.9505 4.7017 35.4127 5.23229 35.0548C4.92943 35.2717 4.67912 35.5539 4.49982 35.8804C4.32051 36.207 4.21679 36.5696 4.19629 36.9415V39.2042C4.21708 39.5931 4.32941 39.9715 4.52413 40.3087C4.71884 40.646 4.99045 40.9325 5.31682 41.1449L43.5121 63.1797C43.8563 63.362 44.2413 63.4537 44.6308 63.4458V58.5914C44.2414 58.599 43.8564 58.5074 43.5121 58.3252L5.31682 36.2886Z" fill="white"/>
<path d="M31.6016 26.4321C31.6898 25.7126 30.911 24.4536 29.8624 23.6317L25.6411 20.3168C25.0547 19.8564 24.5079 19.628 24.1248 19.6405C23.1356 19.5938 18.9089 21.6298 16.8009 22.8439C14.6929 24.0579 10.0705 27.0058 9.24673 28.308C8.97335 28.7343 15.8224 35.569 16.7865 35.3892C18.9322 34.9809 22.9503 33.0744 25.0475 31.7919C28.4757 29.7002 30.4901 27.9213 31.2167 27.1551C31.5621 26.7864 31.5837 26.585 31.6016 26.4321Z" fill="#FAFAFA"/>
<path d="M20.2961 24.8349C18.7781 25.7055 18.6774 26.79 19.422 28.0724C19.9184 28.9268 20.681 30.1085 21.9616 30.6678C22.7297 31.0042 23.0858 31.3369 23.6415 32.0186C23.6523 32.0312 23.6595 32.0456 23.6685 32.0581C24.4203 31.6804 25.156 31.2829 25.8269 30.9052L20.2961 24.8349Z" fill="#E0E0E0"/>
<path d="M10.8508 31.4323L15.0721 34.7471C16.1225 35.5709 17.0506 35.6464 17.1334 34.927C17.2161 34.2075 16.4427 32.9485 15.3941 32.1265L11.1728 28.8117C10.1242 27.9879 9.19429 27.9124 9.11156 28.6318C9.02882 29.3513 9.79863 30.6031 10.8508 31.4323Z" fill="#E0E0E0"/>
<path d="M36.0933 31.7631C35.5969 31.4718 35.0231 31.2074 32.8558 30.1444C31.1417 29.3098 30.4817 28.9483 29.6957 28.7684C28.7442 28.549 27.7064 28.8836 26.5823 29.2019L33.1058 33.4754L36.0933 31.7631Z" fill="#FFB573"/>
<path d="M26.4646 29.238C28.3316 28.621 29.2399 28.3387 30.8352 29.0941C32.9108 30.0725 35.2094 31.2974 35.2094 31.2974C34.4037 31.3315 33.2184 32.7758 33.2975 33.9809L26.4646 29.238Z" fill="#37474F"/>
<path d="M23.1734 30.6139C22.4536 31.0981 21.763 31.6242 21.105 32.1895C20.5654 32.7057 21.1302 32.8694 21.2849 33.5906C22.1842 37.8731 29.697 41.6844 29.697 41.6844L37.1432 35.8407C34.9056 34.3826 32.765 32.7808 30.7348 31.0456C28.9362 29.524 28.1412 28.6499 25.8371 29.4179C23.9414 30.0456 23.1734 30.6139 23.1734 30.6139Z" fill="#455A64"/>
<path d="M25.0143 22.9123C24.8571 22.6127 24.6408 22.3481 24.3785 22.1343C24.1162 21.9205 23.8133 21.762 23.4882 21.6684C23.163 21.5748 22.8223 21.548 22.4865 21.5895C22.1507 21.6311 21.8268 21.7402 21.5342 21.9102C21.2417 22.0803 20.9866 22.3078 20.7844 22.5791C20.5821 22.8504 20.4369 23.1598 20.3574 23.4887C20.2779 23.8176 20.2657 24.1591 20.3218 24.4928C20.3778 24.8265 20.5008 25.1455 20.6833 25.4304C20.7049 25.4681 20.7319 25.5041 20.7552 25.5419L20.2894 26.9934L19.1473 25.3854C19.1312 25.2497 19.0653 25.1248 18.9622 25.035C18.8591 24.9453 18.7264 24.897 18.5897 24.8998C18.5207 24.9024 18.4529 24.9191 18.3905 24.9487C18.3281 24.9783 18.2723 25.0203 18.2266 25.0721C18.1808 25.1239 18.1461 25.1844 18.1244 25.25C18.1027 25.3156 18.0946 25.3849 18.1005 25.4537L18.8199 25.4286C18.6761 25.5515 18.5742 25.7162 18.5286 25.8998C18.4134 26.3638 19.1131 27.1948 20.0016 27.8909C20.0016 27.8909 21.3128 29.3298 21.6204 29.524C21.8118 29.6364 22.0393 29.6705 22.2553 29.6193L21.9441 26.5005C22.4288 26.6906 22.9606 26.7249 23.4657 26.5988C23.9708 26.4726 24.4241 26.1923 24.7625 25.7967C25.1009 25.4011 25.3077 24.9099 25.3541 24.3914C25.4006 23.8729 25.2843 23.3527 25.0215 22.9033L25.0143 22.9123Z" fill="#263238"/>
<path d="M20.9063 27.4753C20.82 27.6318 20.4819 27.4861 20.2193 27.4105C19.9567 27.335 19.2858 27.4105 19.3469 28.13C19.4081 28.8494 20.356 29.3207 20.8524 29.2091C21.7103 29.0149 21.5466 28.4897 21.5466 28.4897L23.1654 31.1516C24.7374 31.7811 27.3274 30.175 25.5845 29.5761L25.1187 28.7829C25.4208 28.6598 25.708 28.503 25.9748 28.3152C26.4604 27.9213 26.5504 27.3062 26.3759 26.6353C26.0953 25.5562 25.7572 24.754 24.4766 23.0615C23.0826 21.1963 20.7445 22.5291 19.9495 24.0579C19.1545 25.5867 20.9063 27.4753 20.9063 27.4753Z" fill="#FFB573"/>
<path d="M23.405 25.9412C23.4446 26.0689 23.3673 26.5238 23.0903 26.6425C23.1723 26.6443 23.2531 26.6219 23.3224 26.5781C23.3918 26.5343 23.4467 26.4711 23.4803 26.3962C23.5138 26.3214 23.5246 26.2383 23.5112 26.1574C23.4978 26.0764 23.4609 26.0013 23.405 25.9412Z" fill="#AF6152"/>
<path d="M24.3826 25.4106C24.4833 25.497 24.9329 25.6049 25.1506 25.3981C25.1198 25.4739 25.0674 25.5391 24.9998 25.5854C24.9323 25.6317 24.8526 25.6571 24.7707 25.6584C24.6889 25.6598 24.6084 25.637 24.5394 25.5929C24.4704 25.5489 24.4158 25.4855 24.3826 25.4106Z" fill="#AF6152"/>
<path d="M24.6602 27.3798C24.6091 27.3271 24.5446 27.2893 24.4737 27.2703C24.4028 27.2513 24.328 27.2519 24.2574 27.2719C24.1278 27.2943 24.0119 27.3658 23.9337 27.4715C23.9267 27.4789 23.9223 27.4884 23.9211 27.4985C23.9211 27.574 24.083 27.4769 24.101 27.4662C24.1628 27.4371 24.2281 27.416 24.2952 27.4032C24.3543 27.391 24.4148 27.3874 24.475 27.3924C24.5029 27.394 24.5306 27.3982 24.5577 27.405C24.5847 27.4155 24.6133 27.4215 24.6422 27.423C24.671 27.423 24.6656 27.3888 24.6602 27.3798Z" fill="#AF6152"/>
<path d="M23.2893 26.1424C23.2756 26.2125 23.2414 26.2769 23.191 26.3274C23.1407 26.378 23.0764 26.4124 23.0064 26.4263C22.9364 26.4402 22.8638 26.433 22.798 26.4055C22.7321 26.3781 22.6759 26.3317 22.6365 26.2722C22.5971 26.2127 22.5762 26.1428 22.5767 26.0714C22.5771 26.0001 22.5987 25.9304 22.6388 25.8714C22.679 25.8124 22.7357 25.7666 22.8019 25.74C22.8681 25.7133 22.9407 25.7069 23.0106 25.7217C23.103 25.7412 23.184 25.7962 23.2361 25.875C23.2883 25.9537 23.3074 26.0498 23.2893 26.1424Z" fill="#AF6152"/>
<path d="M24.9947 24.943C25.0182 25.0103 25.021 25.0832 25.003 25.1522C24.985 25.2212 24.9468 25.2833 24.8934 25.3306C24.8399 25.3779 24.7736 25.4082 24.7029 25.4177C24.6322 25.4272 24.5603 25.4154 24.4963 25.3839C24.4323 25.3524 24.3791 25.3026 24.3434 25.2408C24.3078 25.179 24.2914 25.108 24.2962 25.0368C24.3011 24.9656 24.327 24.8975 24.3707 24.8411C24.4144 24.7847 24.4738 24.7425 24.5415 24.72C24.6312 24.6902 24.729 24.6968 24.8138 24.7386C24.8986 24.7803 24.9636 24.8537 24.9947 24.943Z" fill="#AF6152"/>
<path d="M24.9947 24.943C25.0182 25.0103 25.021 25.0832 25.003 25.1522C24.985 25.2212 24.9468 25.2833 24.8934 25.3306C24.8399 25.3779 24.7736 25.4082 24.7029 25.4177C24.6322 25.4272 24.5603 25.4154 24.4963 25.3839C24.4323 25.3524 24.3791 25.3026 24.3434 25.2408C24.3078 25.179 24.2914 25.108 24.2962 25.0368C24.3011 24.9656 24.327 24.8975 24.3707 24.8411C24.4144 24.7847 24.4738 24.7425 24.5415 24.72C24.6312 24.6902 24.729 24.6968 24.8138 24.7386C24.8986 24.7803 24.9636 24.8537 24.9947 24.943Z" fill="#AF6152"/>
<path d="M24.6742 25.1497C24.6053 25.1731 24.5299 25.1683 24.4645 25.1363C24.3991 25.1043 24.3491 25.0477 24.3254 24.9788C24.275 24.8368 24.3919 24.7756 24.5358 24.7253C24.6796 24.6749 24.7929 24.657 24.8433 24.8008C24.8663 24.8695 24.8616 24.9445 24.83 25.0097C24.7984 25.075 24.7425 25.1252 24.6742 25.1497Z" fill="#263238"/>
<path d="M22.9913 26.1442C22.9651 26.1689 22.9342 26.1881 22.9005 26.2008C22.8668 26.2135 22.831 26.2193 22.795 26.218C22.759 26.2166 22.7237 26.2081 22.691 26.193C22.6583 26.1779 22.629 26.1564 22.6047 26.1298C22.5022 26.0183 22.5831 25.9158 22.6946 25.8134C22.8061 25.7109 22.9032 25.6461 23.0075 25.7576C23.0318 25.784 23.0507 25.815 23.0631 25.8488C23.0755 25.8825 23.0811 25.9184 23.0796 25.9543C23.0781 25.9902 23.0695 26.0254 23.0544 26.058C23.0392 26.0906 23.0178 26.1199 22.9913 26.1442Z" fill="#263238"/>
<path d="M21.0364 27.6966C20.9717 27.7361 20.4734 27.4628 20.2198 27.4088C19.8709 27.3351 19.0669 25.2774 19.0669 25.2774C18.9121 25.1497 18.798 24.9795 18.7386 24.7878C18.6792 24.5961 18.677 24.3912 18.7324 24.1983C18.8619 23.5886 19.5544 23.1083 20.0364 22.7882C20.3799 22.558 20.7234 22.3259 21.0436 22.0687C21.3638 21.8115 21.6569 21.5166 21.9429 21.227C22.1212 21.0793 22.2561 20.886 22.3332 20.6676C22.336 20.6486 22.3448 20.6309 22.3584 20.6173C22.367 20.6115 22.3767 20.6075 22.3869 20.6057C22.3971 20.6038 22.4076 20.6041 22.4177 20.6065C22.5487 20.6325 22.6653 20.7062 22.7451 20.8133C22.8722 20.9914 22.9638 21.1923 23.0149 21.405C23.08 21.3196 23.1366 21.2281 23.1839 21.1317C23.2214 21.0246 23.2461 20.9135 23.2577 20.8007C23.2586 20.7864 23.2636 20.7727 23.2721 20.7611C23.2775 20.755 23.2841 20.75 23.2915 20.7466C23.299 20.7432 23.3071 20.7414 23.3152 20.7414C23.3402 20.7442 23.3643 20.7522 23.386 20.7649C23.4077 20.7776 23.4265 20.7947 23.4411 20.8151C23.6425 21.0339 23.7778 21.3051 23.8314 21.5975C23.8858 21.8896 23.8635 22.1907 23.7667 22.4716C23.612 22.8997 23.2271 23.2019 22.8674 23.4698C22.0796 24.0688 20.6857 24.7145 20.4914 24.7954C20.2252 24.9051 20.3116 25.1749 20.5598 25.9034C20.79 26.5347 21.2594 27.5617 21.0364 27.6966Z" fill="#263238"/>
<path d="M25.1248 28.774C25.1248 28.774 23.6481 29.2776 23.1032 29.2992C22.7867 29.3135 22.4733 29.232 22.2039 29.0653C22.4088 29.2723 22.6535 29.4357 22.9233 29.5456C23.4539 29.7578 25.3172 29.0905 25.3172 29.0905L25.1248 28.774Z" fill="#AF6152"/>
<path d="M21.9255 25.5885L22.2618 25.0058C22.3383 25.0545 22.3936 25.1303 22.4166 25.218C22.4396 25.3057 22.4286 25.3988 22.3859 25.4788C22.3636 25.517 22.3337 25.5502 22.2982 25.5766C22.2627 25.6029 22.2222 25.6218 22.1792 25.632C22.1361 25.6423 22.0915 25.6437 22.0479 25.6362C22.0043 25.6287 21.9627 25.6125 21.9255 25.5885Z" fill="#263238"/>
<path d="M23.8802 23.9195L24.5563 23.9825C24.5544 24.0269 24.5433 24.0704 24.5239 24.1104C24.5045 24.1504 24.4771 24.1859 24.4434 24.2149C24.4097 24.2439 24.3704 24.2657 24.328 24.2789C24.2856 24.2921 24.2409 24.2965 24.1967 24.2918C24.1068 24.281 24.0242 24.2367 23.9655 24.1677C23.9069 24.0987 23.8764 24.01 23.8802 23.9195Z" fill="#263238"/>
<path d="M23.4612 25.2272L24.3083 26.6913L24.9396 26.042L23.4612 25.2272Z" fill="#AF6152"/>
<path opacity="0.1" d="M32.0007 41.5982C31.3742 41.2324 30.7818 40.8111 30.2308 40.3392C29.7902 39.9399 29.3747 39.4039 29.5582 38.8373L27.0779 40.2762C27.5131 41.1953 28.5491 41.7421 29.4323 42.2547C29.9119 42.5257 30.3915 42.7895 30.8711 43.0461L31.4323 43.3375C34.1698 44.7368 37.0242 45.9077 39.8732 47.075C40.2185 47.217 40.5926 47.3627 40.9524 47.2764L32.0007 41.5982Z" fill="black"/>
<path d="M19.7256 44.616V53.0965L44.6309 67.4602V58.5912C44.2414 58.5994 43.8563 58.5078 43.5122 58.325L19.7256 44.616Z" fill="#2196F3"/>
<path opacity="0.3" d="M19.7256 44.616V53.0965L44.6309 67.4602V58.5912C44.2414 58.5994 43.8563 58.5078 43.5122 58.325L19.7256 44.616Z" fill="black"/>
<path d="M69.7471 44.4776C70.3227 44.143 70.3622 43.6178 69.8604 43.2581C70.1542 43.4766 70.3965 43.7568 70.5702 44.0791C70.7439 44.4013 70.8448 44.7578 70.8659 45.1233V52.3177L44.6313 67.4602V58.5913C45.0208 58.599 45.4058 58.5074 45.7501 58.3251L69.7471 44.4776Z" fill="#2196F3"/>
<path opacity="0.45" d="M69.7471 44.4776C70.3227 44.143 70.3622 43.6178 69.8604 43.2581C70.1542 43.4766 70.3965 43.7568 70.5702 44.0791C70.7439 44.4013 70.8448 44.7578 70.8659 45.1233V52.3177L44.6313 67.4602V58.5913C45.0208 58.599 45.4058 58.5074 45.7501 58.3251L69.7471 44.4776Z" fill="black"/>
<path d="M69.7465 43.1843L45.9599 29.4681L36.2475 35.0582C33.01 34.5852 28.7095 37.5601 27.3138 40.2328L19.7236 44.616L43.5102 58.3322C43.857 58.5078 44.2403 58.5993 44.629 58.5993C45.0177 58.5993 45.4009 58.5078 45.7477 58.3322L69.7447 44.4829C70.3653 44.1196 70.3653 43.5422 69.7465 43.1843Z" fill="#2196F3"/>
<path opacity="0.2" d="M69.7465 43.1843L45.9599 29.4681L36.2475 35.0582C33.01 34.5852 28.7095 37.5601 27.3138 40.2328L19.7236 44.616L43.5102 58.3322C43.857 58.5078 44.2403 58.5993 44.629 58.5993C45.0177 58.5993 45.4009 58.5078 45.7477 58.3322L69.7447 44.4829C70.3653 44.1196 70.3653 43.5422 69.7465 43.1843Z" fill="black"/>
<path opacity="0.1" d="M69.7464 43.1843L45.9598 29.4681L36.2473 35.0582C37.8173 36.0349 39.4384 36.9271 41.1036 37.7309C42.3014 38.4234 45.6271 40.1555 48.8789 41.999C49.9293 42.5944 52.8359 43.1465 54.0949 43.008C55.2026 42.8753 56.2936 42.6282 57.3504 42.2706C57.5481 42.2004 57.7579 42.1704 57.9673 42.1825C58.8774 42.276 58.7839 43.1843 58.6328 43.8282C58.4623 44.6829 58.1315 45.4977 57.658 46.2294C57.4631 46.5709 57.3063 46.9328 57.1903 47.3085C57.0752 47.9902 57.4115 48.51 58.0626 48.7978C58.7137 49.0855 61.275 49.3661 62.5178 48.6485L69.75 44.4739C70.3615 44.1214 70.3615 43.5404 69.7464 43.1843Z" fill="black"/>
<path opacity="0.1" d="M48.1894 51.3968C47.6762 51.0851 47.1702 50.7619 46.6714 50.4274C46.4753 50.2961 45.5922 49.7223 45.3728 49.5281C46.0221 49.814 46.6624 50.1108 47.3045 50.4148C48.006 50.7457 48.7146 51.0623 49.4377 51.3465C50.4089 51.7278 51.7759 52.4382 52.6068 51.4148C53.105 50.8069 53.2219 49.9256 53.3874 49.1558C53.4558 48.8374 53.8532 48.1773 54.1176 47.4363C54.5061 46.3481 54.6446 45.1862 53.3424 45.4992C53.141 45.5477 52.8029 45.706 52.596 45.7672C51.6787 46.0496 50.8442 46.6233 49.8891 46.7186C48.6301 46.8427 47.3549 46.1593 46.4394 45.3733C45.3872 44.474 42.8817 42.9434 41.6821 42.2527C41.5813 42.1951 41.5885 42.2365 41.5022 42.1556C42.0418 42.3588 43.8152 43.3355 44.308 43.625C44.6839 43.8463 45.0455 44.0891 45.4232 44.3085C46.1283 44.731 46.8567 45.1136 47.6049 45.4542C48.3445 45.8088 49.1619 45.9703 49.9808 45.9237C50.9395 45.8391 51.8154 45.3733 52.7093 45.0244C53.0511 44.8613 53.4284 44.7871 53.8065 44.8085C54.4036 44.8859 54.9036 45.6341 54.8713 46.2132C54.8713 46.2312 54.8713 46.2492 54.8713 46.2672C54.7579 47.2438 54.5925 48.2133 54.5007 49.1953C54.4471 49.4859 54.479 49.7858 54.5925 50.0587C54.6859 50.2002 54.8079 50.3205 54.9508 50.4119C55.0936 50.5033 55.254 50.5637 55.4216 50.5893C55.7526 50.6648 56.0961 50.6756 56.4181 50.7799C56.4612 50.79 56.5002 50.8133 56.5296 50.8465C56.5799 50.9184 56.5296 51.0155 56.4774 51.0839C56.1657 51.4613 55.7661 51.7565 55.3137 51.9436C54.8695 52.145 54.4018 52.2889 53.954 52.4832C53.609 52.6554 53.2474 52.7922 52.8748 52.8915C52.6371 52.931 52.3963 52.9484 52.1554 52.9436C51.7363 52.9436 50.9161 52.9436 49.6517 52.2548C49.1607 51.9706 48.6679 51.6846 48.1894 51.3968Z" fill="black"/>
<path opacity="0.2" d="M23.9246 47.0388V55.5372L24.4498 55.8232L24.448 47.341L23.9246 47.0388Z" fill="black"/>
<path opacity="0.1" d="M23.9246 47.0388L30.8798 43.0225C32.5651 40.9793 37.0868 37.0295 40.5635 37.4162L50.1627 31.8909L50.7023 32.2092L41.1031 37.7274C37.621 37.9072 34.4176 40.0889 31.4374 43.312L24.448 47.3373L23.9246 47.0388Z" fill="black"/>
<path d="M28.8579 43.6143C28.2122 43.3967 25.4765 42.51 24.2912 41.8894C23.2282 41.3301 23.1077 41.1394 22.7372 40.4416C22.2642 39.5423 21.4998 38.0854 20.5789 36.0853C19.7245 34.2292 20.4962 33.2255 21.0195 32.6176L23.1347 33.9504L25.8003 39.1178C25.8003 39.1178 28.437 40.7365 29.3345 41.2419C29.7565 41.4732 30.2164 41.6272 30.6925 41.697C31.3161 41.7297 31.9358 41.8151 32.545 41.9524C32.9606 42.0512 33.3859 42.103 33.8131 42.1071C34.1728 42.0855 34.367 42.0153 34.2843 42.2743C34.1764 42.6053 33.867 42.778 33.2663 42.8517C33.6836 43.1449 34.18 43.4452 34.5847 43.7672C34.9893 44.0891 35.4534 44.4237 35.5091 44.6107C35.5232 44.6733 35.5228 44.7383 35.5078 44.8006C35.4928 44.863 35.4638 44.9211 35.4228 44.9705C35.5498 45.0282 35.6627 45.1129 35.7538 45.2187C35.7802 45.2716 35.7914 45.3307 35.7862 45.3896C35.7811 45.4485 35.7597 45.5048 35.7245 45.5523C35.6893 45.5998 35.6417 45.6366 35.5868 45.6587C35.532 45.6807 35.4721 45.6872 35.4138 45.6773C35.3864 45.7418 35.3419 45.7976 35.2852 45.8388C35.2285 45.88 35.1617 45.905 35.0919 45.9111C34.8791 45.8924 34.6711 45.8377 34.4767 45.7493C34.4767 45.7493 34.4983 46.0155 34.1368 45.9471C33.7597 45.8584 33.3917 45.7343 33.0379 45.5766C32.7952 45.4692 32.5436 45.3832 32.286 45.3194C32.0004 45.2947 31.7221 45.216 31.4659 45.0874C31.0029 44.8619 30.5585 44.6003 30.1367 44.305C29.7366 44.0292 29.3079 43.7977 28.8579 43.6143Z" fill="#FFB573"/>
<path d="M31.9985 42.1773C32.2198 42.2708 32.441 42.3572 32.6568 42.4633C32.7651 42.5149 32.8708 42.5719 32.9734 42.6342C33.0769 42.6952 33.175 42.765 33.2666 42.8428C33.0525 42.7349 32.8385 42.6342 32.6245 42.5316C32.5165 42.4777 32.4086 42.4255 32.3043 42.368C32.1972 42.313 32.095 42.2493 31.9985 42.1773Z" fill="#AF6152"/>
<path d="M35.4228 44.9564C35.2237 44.8524 35.0303 44.7377 34.8436 44.6128C34.653 44.4941 34.4533 44.3934 34.2537 44.2855C34.0541 44.1776 33.8634 44.0607 33.6745 43.9366C33.4815 43.8188 33.3038 43.6774 33.1458 43.5157C33.2304 43.5888 33.3213 43.6544 33.4173 43.7117C33.5127 43.7729 33.608 43.8304 33.7051 43.8916C33.8994 44.0049 34.0936 44.1164 34.2915 44.2243C34.4893 44.3322 34.6872 44.4366 34.8742 44.5679C35.0613 44.6992 35.2339 44.8359 35.4228 44.9564Z" fill="#AF6152"/>
<path d="M35.4134 45.6629C35.4134 45.6341 35.3972 45.6108 35.3774 45.591C35.3561 45.5723 35.3332 45.5555 35.3091 45.5406C35.2611 45.5104 35.2113 45.4834 35.1598 45.4597C35.0591 45.4057 34.953 45.3625 34.8504 45.3068C34.649 45.1953 34.4601 45.0622 34.2695 44.9345C34.0823 44.8054 33.8857 44.6905 33.6813 44.5909C33.4765 44.4841 33.2788 44.3639 33.0896 44.2312C33.291 44.3409 33.5015 44.4327 33.7083 44.5316C33.9189 44.6257 34.1211 44.7376 34.3127 44.8661C34.4925 44.9992 34.6868 45.1287 34.8792 45.2492C34.9745 45.3104 35.0789 45.3589 35.1778 45.4201C35.2264 45.4507 35.2749 45.4813 35.3217 45.5172C35.3448 45.5346 35.3659 45.5545 35.3846 45.5766C35.3967 45.5871 35.4057 45.6007 35.4107 45.6158C35.4158 45.631 35.4167 45.6473 35.4134 45.6629Z" fill="#AF6152"/>
<path d="M34.477 45.7349C34.4149 45.6474 34.3277 45.5809 34.227 45.5442C34.1317 45.4956 34.0327 45.4525 33.9338 45.4075C33.7378 45.3122 33.5435 45.2276 33.3475 45.1359C33.1514 45.0442 32.959 44.9561 32.7665 44.8517C32.5735 44.7594 32.3555 44.7329 32.146 44.7762C32.2497 44.7414 32.3586 44.7244 32.4679 44.7258C32.5786 44.7309 32.6876 44.7552 32.7899 44.7978C32.9877 44.8859 33.1838 44.9776 33.3798 45.0676C33.5759 45.1575 33.7737 45.2474 33.959 45.3572C34.0543 45.4075 34.1514 45.4561 34.245 45.5118C34.3445 45.559 34.4259 45.6373 34.477 45.7349Z" fill="#AF6152"/>
<path d="M21.1024 32.1896C19.8344 32.99 19.6275 34.1681 20.2534 35.6555C20.7588 36.857 22.311 39.884 22.311 39.884C22.6834 39.0027 24.4694 37.9541 25.4082 38.2257L23.7068 34.6285C23.7068 34.6285 22.66 32.0007 21.1024 32.1896Z" fill="#37474F"/>
<path d="M38.5364 33.2038C39.1141 33.5644 39.7096 33.8957 40.3206 34.1966C40.8404 34.4502 41.3997 34.5006 42.0005 34.7955C42.4034 34.9916 42.7829 35.3441 43.2919 35.6948C43.8908 36.1067 44.0671 36.2039 43.9286 36.3963C43.9286 36.3963 44.1084 36.5024 44.175 36.5528C44.5077 36.7848 44.4969 36.9557 44.2721 37.0924C44.2721 37.0924 44.675 37.3514 44.5761 37.524C44.4196 37.7956 44.0779 37.6769 43.9106 37.5798C43.9106 37.5798 44.1246 37.7471 43.9879 37.8928C43.8512 38.0384 43.5689 38.0726 43.1534 37.8478C42.7379 37.623 41.9321 37.2003 41.3943 36.8747C40.8566 36.5492 40.9735 36.774 41.1407 36.9071C41.3438 37.0776 41.5208 37.277 41.6659 37.4989C41.73 37.588 41.7683 37.6931 41.7765 37.8025C41.7848 37.912 41.7627 38.0216 41.7127 38.1194C41.6138 38.2759 41.4033 38.0582 41.1731 37.8406C40.9429 37.623 40.5526 37.4503 40.3026 37.2704C40.0526 37.0906 39.8979 37.0546 39.4195 36.3064C39.0004 35.6499 38.5759 35.5761 37.6424 35.2002C36.9967 34.943 35.5633 34.4016 34.4805 33.997C34.1657 33.7667 33.833 33.5149 33.4805 33.2469L35.9464 31.6768C35.9464 31.6768 37.7522 32.7325 38.5364 33.2038Z" fill="#FFB573"/>
<path d="M43.9114 37.58C43.5193 37.348 43.1416 37.0962 42.7567 36.8606L42.1829 36.5009C41.9887 36.3858 41.8142 36.2221 41.5786 36.2131C41.6935 36.2146 41.8064 36.2436 41.9078 36.2976L42.1973 36.4775L42.7819 36.8372L43.3484 37.2131C43.5373 37.321 43.7244 37.4487 43.9114 37.58Z" fill="#AF6152"/>
<path d="M44.272 37.0926C43.9015 36.8857 43.5417 36.6627 43.1802 36.4415C43.0004 36.3281 42.8205 36.2166 42.6496 36.0925C42.5633 36.0296 42.4698 35.9684 42.3942 35.9019C42.3512 35.8691 42.3131 35.8303 42.2809 35.7868C42.2551 35.7397 42.2374 35.6886 42.2288 35.6357C42.2405 35.6869 42.2612 35.7356 42.2899 35.7796C42.3241 35.8194 42.3634 35.8544 42.4068 35.8839C42.4914 35.9468 42.5867 36.0044 42.6676 36.0637C42.8475 36.1825 43.0273 36.294 43.2072 36.4037C43.5633 36.6303 43.9231 36.8533 44.272 37.0926Z" fill="#AF6152"/>
<path d="M43.9284 36.3927C43.6712 36.2668 43.4248 36.1247 43.1784 35.9808C43.0579 35.907 42.9356 35.8333 42.8187 35.7541C42.7611 35.711 42.7018 35.6732 42.6388 35.6246C42.5933 35.5713 42.5574 35.5104 42.5327 35.4448C42.5628 35.5087 42.6042 35.5666 42.655 35.6157C42.7126 35.6576 42.7726 35.6961 42.8349 35.7308L43.1946 35.9502C43.4446 36.0905 43.691 36.2344 43.9284 36.3927Z" fill="#AF6152"/>
<path d="M7.29468 10.9281C7.80728 10.5522 8.25513 10.3328 8.5537 10.3688C9.037 10.4432 9.4967 10.6279 9.89726 10.9084C10.1958 11.1368 9.87568 11.8958 9.61128 11.6782C9.34689 11.4605 8.78752 11.0163 8.58967 10.9839C8.19758 10.9192 7.65979 11.3059 7.51051 11.3616C7.36122 11.4174 7.12741 11.054 7.29468 10.9281Z" fill="black"/>
<path d="M3.09271 13.5037C3.47582 14.2519 3.15566 15.1441 2.86069 15.6045C2.60529 16.002 3.20243 16.4696 3.58014 16.047C4.1431 15.4085 4.03339 14.1332 3.58014 13.5901L3.09271 13.5037Z" fill="black"/>
<path d="M3.57285 14.4407C3.14837 14.822 2.37317 14.6206 2.29763 14.1619C1.75805 14.1907 1.38034 13.822 1.25444 13.2626C1.14652 12.7716 1.29581 12.2302 1.78323 12.0036C1.53682 11.5755 1.59078 10.9982 2.19871 10.428C2.80664 9.85784 3.47752 9.66539 3.81746 9.82906C4.15739 9.28948 5.34448 9.0053 5.79593 9.81467C6.08915 9.66434 6.42672 9.62469 6.7468 9.70297C7.06688 9.78126 7.34804 9.97224 7.53878 10.2409C7.68616 10.4527 7.76367 10.7053 7.76044 10.9633C7.75722 11.2213 7.67343 11.4718 7.52079 11.6798C7.94167 12.1798 7.61072 13.2051 6.59271 13.2986C6.77257 13.7734 5.9542 14.1493 5.63405 13.9479C5.47757 14.6098 3.893 15.0306 3.57285 14.4407Z" fill="#F0F0F0"/>
<path d="M2.17567 13.8761C2.17567 14.7161 1.4958 15.3708 1.02636 15.6514C0.621675 15.8924 0.945425 16.5776 1.46882 16.3708C2.25661 16.0507 2.72785 14.8636 2.56417 14.1711C2.46165 13.815 2.17028 13.7143 2.17567 13.8761Z" fill="black"/>
<path d="M6.78383 12.1368C7.39715 11.9678 7.89357 11.9228 8.15437 12.0595C8.56086 12.2735 8.8846 12.8347 9.08425 13.1566C9.2839 13.4786 8.69215 14.1603 8.52308 13.8617C8.35401 13.5631 8.07703 12.7951 7.90436 12.6944C7.56083 12.4948 6.98707 12.6117 6.8252 12.6063C6.66332 12.6009 6.58418 12.1872 6.78383 12.1368Z" fill="black"/>
<path d="M5.30513 8.67264C5.07491 9.1169 5.52456 9.97303 6.22422 10.509C6.78359 10.9371 7.61095 10.6439 7.61454 9.7662C7.61454 8.96222 7.33576 8.02154 6.85733 7.93701C6.41847 7.85967 5.47779 8.3363 5.30513 8.67264Z" fill="black"/>
<path d="M5.27466 8.7464C5.12178 8.90288 5.19912 9.14929 5.04984 9.43167C4.97668 9.54873 4.88041 9.64962 4.76691 9.72817C4.65341 9.80672 4.52507 9.86129 4.38975 9.88852C4.11456 9.95867 4.16852 10.5558 4.54623 10.5108C4.76121 10.4816 4.96301 10.3904 5.1269 10.2482C5.29079 10.106 5.40965 9.91916 5.46891 9.71046C5.51983 9.47292 5.51614 9.22692 5.45812 8.99102L5.27466 8.7464Z" fill="black"/>
<path d="M6.91528 7.95157C7.13291 7.94078 7.275 8.16021 7.57897 8.23395C7.71541 8.25608 7.85494 8.24993 7.98891 8.2159C8.12288 8.18186 8.24843 8.12067 8.35777 8.03611C8.59159 7.87603 9.00527 8.30949 8.71749 8.5649C8.55429 8.70761 8.35291 8.79949 8.13816 8.82921C7.92341 8.85893 7.70465 8.8252 7.50882 8.73217C7.29449 8.61483 7.10991 8.44993 6.96924 8.25014L6.91528 7.95157Z" fill="black"/>
<path d="M4.94746 8.71046C4.95324 8.75435 4.96859 8.79644 4.99243 8.83374C5.01627 8.87104 5.04801 8.90265 5.08542 8.92633C5.12282 8.95001 5.16497 8.96518 5.20889 8.97077C5.2528 8.97636 5.29741 8.97223 5.33955 8.95867C5.37463 9.03944 5.43669 9.10549 5.51511 9.14552C5.59354 9.18556 5.68344 9.19707 5.76942 9.1781C5.87365 9.16843 5.97152 9.12366 6.04699 9.05112C6.12247 8.97859 6.17109 8.88258 6.1849 8.77881C6.26542 8.83042 6.35905 8.85784 6.45469 8.85784C6.55033 8.85784 6.64396 8.83042 6.72448 8.77881C6.9547 8.63852 6.94571 8.48204 6.87916 8.38312C6.95825 8.40831 7.04303 8.40945 7.12276 8.38639C7.20249 8.36334 7.27358 8.31713 7.32702 8.25362C7.36683 8.18251 7.37948 8.09937 7.36261 8.01965C7.34574 7.93992 7.30049 7.86903 7.23529 7.82015C7.17219 7.78051 7.10125 7.755 7.02736 7.74538C6.95347 7.73575 6.87837 7.74224 6.80722 7.7644C6.75692 7.66592 6.67486 7.58731 6.57432 7.54128C6.47378 7.49526 6.36065 7.48452 6.25325 7.51079C6.02482 7.55216 5.85575 7.65648 5.81978 7.85073C5.74793 7.81381 5.66635 7.8002 5.5864 7.8118C5.50646 7.82341 5.43212 7.85965 5.37373 7.91548C5.30838 7.95586 5.26063 8.01936 5.23997 8.09334C5.2193 8.16733 5.22725 8.24638 5.26221 8.31477C5.2142 8.31649 5.16713 8.32859 5.12424 8.35024C5.08135 8.37188 5.04365 8.40256 5.01374 8.44016C4.98384 8.47776 4.96242 8.52139 4.95098 8.56805C4.93954 8.61471 4.93834 8.66329 4.94746 8.71046Z" fill="#F0F0F0"/>
<path d="M19.5836 3.59158C20.1681 3.34337 20.6538 3.23185 20.9307 3.33257C21.3838 3.51436 21.7897 3.79665 22.1178 4.15814C22.357 4.44771 21.8714 5.1132 21.6628 4.83981C21.4541 4.56642 21.0117 4.00885 20.8264 3.94051C20.4667 3.78762 19.848 4.04303 19.6825 4.06101C19.517 4.079 19.3929 3.67431 19.5836 3.59158Z" fill="black"/>
<path d="M14.7471 5.40093C15.355 5.98008 15.3478 6.92795 15.2219 7.46034C15.114 7.91898 15.8334 8.16359 16.0457 7.6402C16.364 6.85241 15.8406 5.68511 15.2273 5.32359L14.7471 5.40093Z" fill="black"/>
<path d="M15.0597 5.98743C14.5507 6.24463 13.8547 5.85074 13.9014 5.3867C13.3619 5.27159 13.1029 4.82014 13.1298 4.24278C13.1514 3.73917 13.4374 3.25714 13.968 3.16362C13.8421 2.68519 14.0435 2.14201 14.7792 1.74991C15.5148 1.35781 16.2181 1.34522 16.504 1.59343C16.9753 1.15457 18.1947 1.19414 18.4214 2.09344C18.7439 2.0241 19.0806 2.07341 19.3697 2.23233C19.6588 2.39124 19.8808 2.64911 19.9951 2.95857C20.0845 3.20281 20.0946 3.46903 20.0239 3.71931C19.9531 3.96959 19.8052 4.19117 19.6012 4.3525C19.8782 4.94424 19.2919 5.84714 18.2865 5.66548C18.3314 6.17089 17.4501 6.32197 17.1929 6.04319C16.8566 6.64572 15.2162 6.63853 15.0597 5.98743Z" fill="#F0F0F0"/>
<path d="M13.8589 5.07727C13.6467 5.89024 12.8139 6.3363 12.2869 6.49277C11.8337 6.62048 11.9686 7.3669 12.5298 7.29855C13.3733 7.19603 14.1395 6.17082 14.1593 5.46037C14.1503 5.09346 13.8949 4.91899 13.8589 5.07727Z" fill="black"/>
<path d="M18.5275 4.28209C19.0887 4.58426 19.479 4.89362 19.5725 5.1706C19.72 5.60766 19.5725 6.23538 19.4916 6.60949C19.4106 6.9836 18.5149 7.06634 18.5923 6.73359C18.6696 6.40085 19.0059 5.65443 18.952 5.46198C18.8405 5.08067 18.3441 4.76951 18.2325 4.6508C18.121 4.5321 18.3441 4.18497 18.5275 4.28209Z" fill="black"/>
<path d="M18.2251 0.864937C17.8887 1.23545 18.101 2.17972 18.637 2.87758C19.065 3.43695 19.9409 3.3686 20.1712 2.51786C20.3834 1.74266 20.351 0.760618 19.9158 0.555577C19.5201 0.37032 18.4859 0.586153 18.2251 0.864937Z" fill="black"/>
<path d="M18.1829 0.929672C18.003 1.04119 18.003 1.29839 17.7872 1.534C17.6862 1.62773 17.567 1.69985 17.4371 1.74593C17.3072 1.79201 17.1693 1.81109 17.0318 1.802C16.7476 1.802 16.6451 2.39014 17.0228 2.4441C17.2384 2.47078 17.457 2.43393 17.6519 2.33808C17.8468 2.24222 18.0095 2.09153 18.1199 1.90452C18.2335 1.68781 18.2951 1.44766 18.2998 1.20306L18.1829 0.929672Z" fill="black"/>
<path d="M19.9739 0.587848C20.1861 0.634611 20.2617 0.881021 20.5422 1.0339C20.6681 1.09046 20.8042 1.12059 20.9422 1.12245C21.0802 1.12431 21.2171 1.09784 21.3444 1.04469C21.6124 0.949368 21.8984 1.47636 21.5603 1.64903C21.3653 1.74407 21.1469 1.78039 20.9317 1.75356C20.7165 1.72674 20.5137 1.63793 20.348 1.49794C20.1722 1.3279 20.0375 1.11998 19.9541 0.890014L19.9739 0.587848Z" fill="black"/>
<path d="M17.8779 0.808981C17.872 0.852933 17.8759 0.897637 17.8893 0.93992C17.9026 0.982204 17.9251 1.02103 17.9552 1.05365C17.9852 1.08626 18.022 1.11186 18.0631 1.12864C18.1041 1.14542 18.1484 1.15295 18.1927 1.15072C18.2052 1.23826 18.2481 1.31861 18.3139 1.37777C18.3796 1.43693 18.464 1.47115 18.5524 1.47447C18.6555 1.4917 18.7614 1.47375 18.8531 1.42351C18.9447 1.37327 19.0168 1.29366 19.0578 1.19748C19.1224 1.26745 19.2057 1.31737 19.2979 1.34128C19.39 1.3652 19.4871 1.36211 19.5776 1.33238C19.8366 1.25504 19.8708 1.10215 19.8312 0.990641C19.9003 1.03628 19.9813 1.06061 20.0641 1.06061C20.1469 1.06061 20.2279 1.03628 20.297 0.990641C20.3546 0.932628 20.3888 0.855468 20.3931 0.77387C20.3974 0.692271 20.3715 0.611938 20.3204 0.548183C20.2702 0.493329 20.2086 0.450101 20.1399 0.42152C20.0713 0.392939 19.9972 0.379694 19.9229 0.382711C19.8971 0.27607 19.8367 0.180988 19.7511 0.112326C19.6655 0.0436638 19.5596 0.00529074 19.4499 0.00320405C19.2197 -0.014782 19.029 0.0409754 18.9445 0.220836C18.8847 0.166353 18.8095 0.131872 18.7292 0.1222C18.6489 0.112527 18.5676 0.128145 18.4966 0.166877C18.4225 0.189118 18.3594 0.238508 18.3201 0.305189C18.2807 0.371869 18.268 0.450934 18.2844 0.526599C18.2389 0.515594 18.1917 0.514347 18.1457 0.52294C18.0997 0.531533 18.0561 0.549772 18.0177 0.576454C17.9793 0.603135 17.947 0.637653 17.9229 0.677733C17.8988 0.717813 17.8834 0.762546 17.8779 0.808981Z" fill="#F0F0F0"/>
<path d="M33.1333 6.06081C33.7683 6.09319 34.2539 6.2065 34.4571 6.42054C34.7859 6.78065 35.0277 7.21136 35.164 7.67956C35.2521 8.03928 34.5237 8.43138 34.4571 8.09504C34.3906 7.7587 34.2341 7.06264 34.0974 6.91335C33.833 6.61658 33.1729 6.57701 33.0182 6.52126C32.8636 6.4655 32.9265 6.05002 33.1333 6.06081Z" fill="black"/>
<path d="M28.2522 5.40624C28.0723 6.22821 27.2647 6.71743 26.7449 6.8901C26.2971 7.03758 26.4644 7.77681 27.0219 7.68508C27.8601 7.54479 28.5813 6.48721 28.5687 5.77496L28.2522 5.40624Z" fill="black"/>
<path d="M28.0314 6.43141C27.4612 6.45839 26.9864 5.81449 27.2202 5.4098C26.776 5.08605 26.722 4.56805 26.9792 4.05185C27.2058 3.6004 27.6627 3.27665 28.1897 3.40076C28.2706 2.91333 28.6735 2.50145 29.5063 2.4403C30.339 2.37915 30.9793 2.65613 31.1448 3.00146C31.7545 2.79283 32.8517 3.32701 32.6916 4.24071C33.0147 4.31011 33.3019 4.49395 33.5002 4.75836C33.6985 5.02277 33.7946 5.34994 33.7708 5.67959C33.7527 5.93816 33.654 6.18454 33.4885 6.38398C33.3229 6.58341 33.0989 6.72583 32.8481 6.79113C32.8589 7.44403 31.9488 8.03038 31.1124 7.45302C30.9487 7.93325 30.0818 7.71202 29.9595 7.3523C29.4037 7.76958 27.9091 7.0951 28.0314 6.43141Z" fill="#F0F0F0"/>
<path d="M27.3046 5.11495C26.7794 5.77144 25.8351 5.84698 25.2937 5.76784C24.8261 5.69949 24.6462 6.43692 25.1858 6.6024C25.9988 6.8524 27.1157 6.23008 27.4233 5.58798C27.5654 5.24804 27.3981 4.99264 27.3046 5.11495Z" fill="black"/>
<path d="M31.9774 6.6743C32.5602 6.92971 32.9738 7.21389 33.089 7.47828C33.2688 7.90275 33.1663 8.53946 33.1177 8.91717C33.0692 9.29488 32.1807 9.45675 32.2382 9.10962C32.2958 8.76249 32.5656 7.99988 32.4954 7.81462C32.3551 7.44231 31.8353 7.17072 31.7094 7.061C31.5835 6.95129 31.7886 6.58977 31.9774 6.6743Z" fill="black"/>
<path d="M33.0146 3.05206C32.556 3.25351 32.3653 4.20137 32.5703 5.05931C32.734 5.74278 33.5614 6.03775 34.1171 5.35968C34.6279 4.73736 35.0021 3.83086 34.6837 3.46214C34.3923 3.1258 33.3617 2.90098 33.0146 3.05206Z" fill="black"/>
<path d="M32.945 3.09161C32.7292 3.11679 32.632 3.356 32.3389 3.48191C32.2082 3.52632 32.0698 3.54365 31.9322 3.53282C31.7946 3.522 31.6606 3.48326 31.5385 3.41896C31.2795 3.30025 30.9467 3.79846 31.2687 4.00171C31.4537 4.11452 31.6677 4.17087 31.8843 4.16384C32.1009 4.15681 32.3108 4.08671 32.4881 3.96214C32.6793 3.80976 32.8326 3.61524 32.936 3.39378L32.945 3.09161Z" fill="black"/>
<path d="M34.7197 3.5105C34.8995 3.6382 34.8636 3.8954 35.0578 4.14901C35.1499 4.25174 35.262 4.33456 35.3873 4.3924C35.5126 4.45024 35.6483 4.48187 35.7862 4.48535C36.0704 4.50873 36.1172 5.10587 35.7359 5.12565C35.5192 5.13313 35.3051 5.07721 35.1198 4.96475C34.9345 4.85228 34.7861 4.68817 34.6927 4.49254C34.5998 4.26471 34.561 4.01845 34.5794 3.7731L34.7197 3.5105Z" fill="black"/>
<path d="M32.7147 2.85602C32.6913 2.89373 32.6766 2.93612 32.6715 2.98018C32.6663 3.02424 32.671 3.06888 32.6851 3.11094C32.6991 3.153 32.7223 3.19144 32.7529 3.22354C32.7835 3.25564 32.8208 3.28061 32.8621 3.29668C32.8393 3.38096 32.8463 3.47057 32.882 3.55026C32.9178 3.62995 32.98 3.69479 33.0582 3.73374C33.1452 3.79175 33.2493 3.81853 33.3536 3.80971C33.4578 3.80089 33.5559 3.75699 33.632 3.68518C33.661 3.77705 33.7164 3.85838 33.7912 3.91912C33.866 3.97986 33.9569 4.01733 34.0528 4.02691C34.3208 4.06288 34.4125 3.93698 34.4233 3.81827C34.469 3.88711 34.534 3.94091 34.6102 3.97291C34.6863 4.00491 34.7703 4.01369 34.8514 3.99814C34.9274 3.96858 34.9899 3.91213 35.0271 3.83952C35.0642 3.7669 35.0734 3.68317 35.0529 3.60424C35.0296 3.53365 34.9911 3.46903 34.9402 3.41495C34.8892 3.36087 34.827 3.31865 34.7579 3.29128C34.7782 3.18336 34.7619 3.07175 34.7118 2.97405C34.6616 2.87636 34.5804 2.79813 34.4809 2.7517C34.2777 2.64019 34.0798 2.615 33.9305 2.7517C33.8981 2.67729 33.8432 2.6149 33.7735 2.57329C33.7039 2.53167 33.6229 2.51293 33.542 2.51968C33.4659 2.50985 33.3889 2.529 33.3263 2.57331C33.2636 2.61762 33.2199 2.68387 33.2039 2.75889C33.1665 2.73002 33.1233 2.70948 33.0773 2.69868C33.0313 2.68787 32.9835 2.68704 32.9372 2.69624C32.8908 2.70544 32.847 2.72446 32.8086 2.75202C32.7702 2.77958 32.7382 2.81504 32.7147 2.85602Z" fill="#F0F0F0"/>
</svg>
