<svg width="58" height="71" viewBox="0 0 58 71" fill="none" xmlns="http://www.w3.org/2000/svg">
<path d="M30.9032 19.032C28.1848 19.5676 27.2299 20.1755 24.5978 22.9862C21.9657 25.7968 15.0945 32.975 15.0945 32.975C15.0945 32.975 15.6602 34.5257 19.161 34.2529C22.6618 33.9801 24.3149 32.1504 25.7313 30.9588C27.3162 29.6266 30.2833 26.83 30.2833 26.83L30.9032 19.032Z" fill="#F28F8F"/>
<path d="M47.9635 37.6332C47.1048 44.1975 45.4798 49.4015 41.5036 52.7538L26.2385 40.787L26.6658 32.9869L47.9635 37.6332Z" fill="#455A64"/>
<path d="M43.9013 19.7867C41.9938 19.3629 40.0592 19.0719 38.1114 18.916C36.4022 18.7856 34.8895 18.585 30.9032 19.0384C30.9032 19.0384 28.3774 22.1079 27.7796 26.2607C27.3081 29.5388 27.0554 34.7388 27.0554 34.7388C26.9069 36.8553 26.8989 38.4422 26.9189 39.5436C28.5239 40.958 32.2173 41.4956 36.3821 42.0614C39.7685 42.5228 43.9293 45.2713 45.2253 48.0598C47.2315 44.6353 47.9096 38.9417 48.1624 36.5885C48.4453 33.9363 48.5175 31.4587 47.9618 28.4775C46.7821 22.2242 45.6105 20.206 43.9013 19.7867Z" fill="#2196F3"/>
<path opacity="0.1" d="M43.1816 41.0138C42.064 39.2881 40.5606 37.8458 38.79 36.8008C36.993 35.7834 34.9857 35.1937 32.924 35.0775C31.7465 34.9753 30.5603 35.0765 29.4171 35.3764C29.1543 35.4526 29.3168 35.89 29.5576 35.8579C31.5898 35.5951 33.596 35.5569 35.5922 36.0826C37.5339 36.6196 39.3392 37.5633 40.8885 38.8511C41.7171 39.5141 42.4586 40.2792 43.0953 41.1281C43.1434 41.1963 43.2157 41.0659 43.1816 41.0138Z" fill="black"/>
<path d="M31.1382 19.8809C31.7581 18.936 31.4512 18.0151 30.4581 17.2729C28.803 16.017 28.4519 13.1642 28.4238 11.1981C28.3657 10.494 28.2393 8.70044 27.2061 9.19195C27.0857 9.25013 27.168 9.6935 27.184 10.4699C26.9473 10.2512 26.5481 10.2693 26.4799 10.4699C26.4143 10.7671 26.38 11.0703 26.3775 11.3747C26.3595 12.1651 26.0244 13.8383 26.0666 14.7852C26.2331 15.6178 26.536 17.0462 26.6444 18.0733C26.6806 18.3959 26.6385 18.7225 26.5215 19.0254C26.4045 19.3282 26.2161 19.5983 25.9723 19.8127C25.0575 20.6152 24.0724 21.2852 22.5016 22.4207C20.5496 23.825 19.1272 24.6275 17.109 26.2726C15.4599 27.6167 15.0225 28.9167 14.836 31.26C14.6574 33.4668 15.8651 33.8881 17.1631 33.9462C19.9878 34.0786 21.1916 33.2621 22.7965 31.0192C25.4386 27.3138 27.3365 24.8943 28.3837 23.6766C29.6476 22.2061 30.8573 20.246 31.1382 19.8809Z" fill="#FFB573"/>
<path d="M31.4068 18.5269C31.2411 18.0154 30.9065 17.5754 30.4579 17.2791C28.8028 16.0232 28.4517 13.1704 28.4236 11.2043C28.3754 10.6346 28.2852 9.34462 27.6994 9.146C27.4787 10.4861 27.581 13.3329 27.9241 15.0562C28.2872 16.8618 29.2662 18.0254 30.0025 18.3363C30.4563 18.4793 30.9312 18.5438 31.4068 18.5269Z" fill="#F28F8F"/>
<path d="M27.1838 10.4842C27.585 10.6848 27.6312 12.5987 27.6312 12.5987C27.6312 12.5987 27.7114 11.2466 27.6532 10.9336C27.5088 10.1612 27.1677 10.0509 27.1677 10.0509L27.1838 10.4842Z" fill="#F28F8F"/>
<path d="M39.4898 15.9646C39.6282 14.3837 41.0466 12.6303 41.6344 11.2159C42.2021 9.84974 42.5211 8.80853 42.3446 7.57473C42.2403 6.84849 41.7006 5.89756 41.1409 5.73305C41.5421 2.97054 39.4095 1.87717 38.3081 1.70664C37.7925 1.64264 37.2818 1.54411 36.7794 1.41173C36.1776 1.21112 35.999 0.751702 35.4935 0.388582C34.6208 -0.239353 33.2465 -0.143057 32.8072 0.948306C32.2053 0.290278 31.4731 0.368519 30.6405 0.653397C30.2882 0.764137 29.9909 1.00443 29.8089 1.32577C29.6268 1.64711 29.5734 2.02557 29.6595 2.38473C28.4718 1.84106 27.4928 2.7298 27.4527 3.40588C27.4146 3.90542 27.555 4.31468 27.2681 4.78212C26.9431 5.30975 26.255 5.3579 26.0143 4.97271C25.9541 5.6829 26.271 6.19447 27.0274 6.09416C26.9146 6.29973 26.8483 6.52751 26.8331 6.76146C26.8178 6.99542 26.854 7.22987 26.9391 7.44834C27.0531 7.72148 27.2476 7.95342 27.4966 8.11327C27.7457 8.27312 28.0376 8.35328 28.3334 8.3431C28.4457 8.72026 28.4899 9.07134 28.7587 9.38431C29.0148 9.70244 29.3437 9.95428 29.7177 10.1186C30.9214 10.574 32.2013 10.6482 33.4612 10.8047L34.9578 10.9893C35.0441 10.9993 35.4915 10.9893 35.5496 11.0635L39.4898 15.9646Z" fill="#263238"/>
<path d="M41.2152 13.794C40.9545 13.9276 40.6629 13.9892 40.3705 13.9722C40.0781 13.9553 39.7955 13.8605 39.552 13.6977L39.9854 19.7162C39.0645 22.0615 35.7202 22.7255 34.1996 22.4727C32.2335 22.1417 32.7952 20.7895 33.5154 19.7664L33.359 17.9909C33.359 17.9909 32.4582 18.0571 31.7179 18.0411C29.7498 17.9949 28.9955 16.7852 28.6103 15.7841C28.0967 14.446 27.8901 12.2673 28.0546 10.5861C28.1032 10.1565 28.0904 9.72213 28.0165 9.29613C27.8159 8.16865 28.1309 7.45044 28.3475 6.47142C29.6054 5.27975 33.1102 4.73808 36.1536 6.2708C35.953 8.02421 36.3161 9.25801 37.6261 9.81372C37.6061 10.2852 37.6422 11.4668 38.4065 11.3826C38.9582 11.3224 38.9382 10.6262 39.4558 9.97823C39.9733 9.33023 41.2814 9.05137 41.8632 9.91002C42.6857 11.0897 42.457 13.156 41.2152 13.794Z" fill="#FFB573"/>
<path d="M32.3773 14.819C32.4176 14.6952 32.4863 14.5825 32.578 14.49C32.6893 14.3774 32.8188 14.2845 32.9611 14.2151C33.0942 14.1397 33.2445 14.1 33.3975 14.1C33.5504 14.1 33.7008 14.1397 33.8338 14.2151C33.8455 14.2209 33.8558 14.229 33.8641 14.2391C33.8724 14.2491 33.8785 14.2608 33.882 14.2733C33.8833 14.2888 33.8795 14.3042 33.8712 14.3173C33.8629 14.3303 33.8504 14.3403 33.8358 14.3455C33.6886 14.3728 33.5399 14.3915 33.3905 14.4017C33.2568 14.4324 33.1279 14.481 33.0073 14.5462C32.8916 14.606 32.7887 14.6877 32.7043 14.7869C32.6381 14.8712 32.586 14.9654 32.5218 15.0497C32.4977 15.0798 32.4636 15.132 32.4175 15.1279C32.3983 15.1259 32.3804 15.1174 32.3665 15.104C32.3527 15.0905 32.3438 15.0728 32.3412 15.0537C32.3368 14.9738 32.3491 14.8939 32.3773 14.819Z" fill="#B16668"/>
<path d="M33.3589 17.9847C35.2788 17.5975 36.7353 17.2685 37.6301 15.7779C38.1918 14.8471 38.4626 13.4748 38.4626 13.4748C38.4626 13.4748 38.5529 15.1179 38.0152 16.3336C37.6 17.2725 36.4384 18.1192 33.4291 18.6307L33.3589 17.9847Z" fill="#F28F8F"/>
<path d="M33.2565 10.255C33.2621 10.3316 33.2828 10.4064 33.3175 10.4751C33.3521 10.5437 33.4 10.6047 33.4584 10.6547C33.5168 10.7047 33.5845 10.7427 33.6576 10.7663C33.7308 10.79 33.8079 10.7989 33.8845 10.7926C34.0048 10.7867 34.1206 10.7449 34.2169 10.6724C34.3132 10.6 34.3855 10.5003 34.4245 10.3863C34.4635 10.2723 34.4674 10.1492 34.4356 10.033C34.4039 9.91674 34.338 9.81271 34.2465 9.73434C34.1549 9.65597 34.042 9.60688 33.9223 9.59342C33.8025 9.57996 33.6815 9.60275 33.5749 9.65883C33.4682 9.71492 33.3809 9.80172 33.3241 9.90801C33.2674 10.0143 33.2438 10.1352 33.2565 10.255Z" fill="#263238"/>
<path d="M35.2548 8.98115L34.2758 8.07034C34.1558 8.20555 34.0928 8.3819 34.0999 8.5625C34.107 8.7431 34.1837 8.91396 34.3139 9.03933C34.3787 9.09888 34.4549 9.14474 34.5378 9.17414C34.6208 9.20355 34.7089 9.21591 34.7967 9.21048C34.8846 9.20505 34.9704 9.18193 35.0491 9.14253C35.1278 9.10312 35.1978 9.04823 35.2548 8.98115Z" fill="#263238"/>
<path d="M29.3043 8.03404L28.2671 8.89269C28.3195 8.96299 28.3858 9.02187 28.4617 9.06574C28.5376 9.10962 28.6217 9.13757 28.7088 9.14789C28.7959 9.15822 28.8842 9.1507 28.9683 9.12579C29.0524 9.10089 29.1305 9.05912 29.198 9.00303C29.3364 8.88585 29.4246 8.72003 29.4444 8.53974C29.4642 8.35946 29.414 8.17845 29.3043 8.03404Z" fill="#263238"/>
<path d="M28.8145 10.4055C28.8299 10.5173 28.8779 10.6221 28.9524 10.7068C29.0269 10.7916 29.1247 10.8525 29.2335 10.8822C29.3424 10.9118 29.4576 10.9088 29.5648 10.8736C29.672 10.8383 29.7665 10.7723 29.8365 10.6838C29.9065 10.5953 29.9489 10.4881 29.9585 10.3757C29.9681 10.2633 29.9445 10.1505 29.8905 10.0514C29.8366 9.95227 29.7547 9.87119 29.6551 9.81823C29.5554 9.76527 29.4424 9.74276 29.3301 9.75349C29.2532 9.76194 29.1788 9.78558 29.1111 9.82304C29.0434 9.86049 28.9839 9.91102 28.9359 9.97168C28.888 10.0323 28.8525 10.1019 28.8317 10.1764C28.8108 10.2509 28.805 10.3287 28.8145 10.4055Z" fill="#263238"/>
<path d="M29.8176 12.3734L31.7014 13.2842L32.0746 9.67305C31.4426 9.63694 30.5639 10.8788 29.8176 12.3734Z" fill="#F28F8F"/>
<path d="M13.6357 50.5291C13.8865 49.7848 14.5385 47.9672 14.9879 46.6451C13.8183 46.4445 9.82797 45.1505 9.01546 44.7312C8.75667 46.4966 8.61423 47.7525 8.44972 48.6272C7.93213 51.4158 7.71947 53.5544 5.82162 55.4101C4.80998 56.3612 3.71638 57.2212 2.55355 57.98C1.3358 58.8026 0.38286 59.3643 0.0979824 59.8999C-0.407576 60.8489 0.966659 63.0918 6.01622 61.9061C7.93413 61.4587 8.64231 60.4617 9.21608 59.6712C9.91022 58.7103 10.1369 58.1265 11.3346 57.7272C13.7099 56.9368 13.728 55.9217 13.6457 54.8143C13.5374 53.3819 12.8372 52.9184 13.6357 50.5291Z" fill="#FFB573"/>
<path d="M34.322 50.2604C31.6698 54.7643 25.8057 55.1435 22.2548 53.2938C15.9694 50.0337 11.0202 35.192 11.606 31.5648C12.2078 27.8975 16.1239 25.8291 22.2568 31.4665C25.5489 34.4918 27.3585 37.6215 29.7599 41.7382C30.8272 42.1876 34.4363 44.4585 35.3391 47.0345C35.1977 48.1624 34.8531 49.2554 34.322 50.2604Z" fill="#37474F"/>
<path d="M17.3797 32.6158C18.5373 33.9018 21.5285 40.1892 21.9618 44.0791C22.0842 45.1725 23.8035 49.1909 25.3523 50.834C28.0787 53.7309 31.9847 52.81 33.359 51.5682C30.4901 54.8523 25.3924 54.9246 22.2507 53.2935C18.1822 51.183 14.6272 43.8645 12.7795 37.9643L17.3797 32.6158Z" fill="#263238"/>
<path d="M14.4484 28.1481C12.4563 28.5975 10.412 30.8444 9.41893 37.8981C8.51614 44.3059 8.10889 47.929 8.10889 47.929C9.94844 49.2085 12.1812 49.7962 14.4123 49.5881C14.4123 49.5881 15.3432 47.265 16.4807 43.8545C17.6182 40.444 18.535 36.9492 17.7105 33.5768C17.1662 31.4918 16.0339 29.6074 14.4484 28.1481Z" fill="#37474F"/>
<path d="M41.9229 52.5532C37.3087 56.5656 32.6584 56.9668 29.1115 55.1352C22.8281 51.8751 19.883 30.5735 22.2644 30.1502C24.9105 29.6787 27.1113 31.1994 29.3442 33.5707C32.4076 36.8268 34.7147 39.7437 37.6839 44.029C38.7512 44.4783 43.1006 47.4395 43.9973 50.0074C43.3012 51.1108 42.93 51.4578 41.9229 52.5532Z" fill="#455A64"/>
<path d="M24.2432 34.4592C25.4008 35.7431 26.4701 42.9373 26.4902 46.8513C26.5062 50.1656 27.8945 53.0444 31.9069 54.3143C35.7006 55.518 39.1632 54.4086 40.4773 53.6984C36.6394 56.6455 32.2559 56.7659 29.1123 55.1429C25.0457 53.0324 21.4888 45.7138 19.6431 39.8137L24.2432 34.4592Z" fill="#37474F"/>
<path d="M21.5287 53.8292C21.7594 53.0608 22.3733 51.189 22.7926 49.8268C21.5889 49.6523 17.6447 47.1766 16.8041 46.7734C16.5694 48.9481 16.3247 51.1449 16.1842 52.0396C15.7369 54.8984 15.5824 57.0852 13.7046 59.0332C12.7009 60.0325 11.6106 60.9408 10.4466 61.7476C9.23081 62.6223 8.27586 63.2221 8.00101 63.7778C7.51351 64.7588 8.98003 67.0058 14.0938 65.6556C16.0358 65.142 16.7279 64.1048 17.2896 63.2823C17.9697 62.2792 18.1824 61.6773 19.3921 61.24C21.7995 60.3653 21.7795 59.3341 21.6631 58.2006C21.5107 56.7481 20.7904 56.2887 21.5287 53.8292Z" fill="#FFB573"/>
<path d="M22.2649 30.1499C20.2587 30.5773 18.082 32.8121 17.3718 39.1477C16.6516 45.5795 16.0618 51.2349 16.0618 51.2349C17.8738 52.4229 20.0388 52.9527 22.1947 52.7355C22.1947 52.7355 23.3282 49.632 24.5038 46.2315C25.6794 42.831 26.6323 39.3503 25.8459 35.9679C25.0595 32.5855 22.2649 30.1499 22.2649 30.1499Z" fill="#455A64"/>
<path d="M56.6705 37.4266C56.2693 36.1146 55.4969 34.3572 53.5589 30.4933C51.3903 26.1639 50.3631 24.3423 48.4311 22.0071C47.0047 20.2838 43.9012 19.7863 43.9012 19.7863C43.9012 19.7863 43.0766 21.6039 43.3455 24.6011C43.6063 27.5001 45.5523 30.8724 45.5523 30.8724L49.679 37.5631C48.5375 38.3655 46.1441 39.9605 45.0387 39.9263C44.575 39.9329 44.1229 39.7815 43.7567 39.497C42.9081 38.8952 42.6594 38.4538 41.582 38.1047C41.1919 37.9804 40.7873 37.9076 40.3783 37.8881C41.1427 38.6584 42.0655 39.7578 41.1928 40.8171C40.6652 41.4611 39.6862 41.7881 38.8998 41.8884C38.3526 41.9444 37.8003 41.9241 37.2587 41.8282C36.7607 41.7493 36.299 41.5188 35.9366 41.1682C35.8042 41.5273 35.7501 41.8603 35.9366 42.1913C36.161 42.5309 36.4585 42.8161 36.8073 43.0259C36.7838 43.2737 36.8555 43.5212 37.0079 43.718C37.2668 44.039 37.603 44.289 37.9849 44.4443C38.0192 44.6566 38.1307 44.8487 38.2979 44.9839C38.6169 45.2162 39.0049 45.3343 39.3993 45.319C39.6782 45.339 40.1476 45.333 40.1476 45.333C40.6431 45.7924 41.7144 45.8526 42.3103 45.8065C42.9061 45.7603 43.6083 45.6741 44.2202 45.5657C44.832 45.4574 45.4078 45.1946 45.9976 45.008C47.6026 44.4984 49.673 43.7943 49.673 43.7943C51.5982 43.1363 53.4867 42.3755 55.3304 41.5152C57.6897 40.3597 57.3025 39.483 56.6705 37.4266Z" fill="#FFB573"/>
<path d="M49.6794 37.5633C50.7708 36.8371 53.3106 36.0928 54.9176 37.2082C53.3648 35.6735 50.9594 36.1349 49.3564 37.0417L49.6794 37.5633Z" fill="#F28F8F"/>
<path d="M34.8694 61.1646L34.911 61.237L34.916 61.2404C35.6358 62.5323 35.8483 64.0472 35.5103 65.4887L35.3054 66.1598C34.8014 67.5674 33.7862 68.734 32.4616 69.4278C31.1345 70.1228 29.5942 70.2922 28.1479 69.9021C26.7015 69.5121 25.4552 68.5914 24.6574 67.3234C23.8614 66.0581 23.5703 64.5398 23.8418 63.07L24.0076 62.3874C24.3471 61.2796 25.0022 60.2947 25.893 59.5535C26.7863 58.8101 27.8776 58.3442 29.0323 58.2132C30.1871 58.0822 31.3549 58.2919 32.3921 58.8163C33.4292 59.3407 34.2903 60.1569 34.8694 61.1646Z" fill="white" stroke="black" stroke-width="0.711467"/>
<path d="M28.7626 64.1571L26.7203 66.1733C26.5979 66.3021 26.5303 66.4735 26.532 66.6512C26.5337 66.8289 26.6045 66.999 26.7293 67.1255C26.8542 67.2519 27.0234 67.3248 27.2011 67.3287C27.3788 67.3326 27.551 67.2672 27.6813 67.1463L29.7236 65.1401L31.7298 67.1804C31.8572 67.3097 32.0308 67.3831 32.2123 67.3844C32.3938 67.3857 32.5685 67.3149 32.6978 67.1875C32.827 67.06 32.9004 66.8864 32.9017 66.7049C32.9031 66.5234 32.8322 66.3488 32.7048 66.2195L30.6966 64.1712L32.7389 62.165C32.8026 62.1016 32.8531 62.0262 32.8876 61.9433C32.9221 61.8603 32.9398 61.7713 32.9398 61.6815C32.9398 61.5916 32.9221 61.5027 32.8876 61.4197C32.8531 61.3367 32.8026 61.2614 32.7389 61.198C32.6103 61.0703 32.4365 60.9987 32.2554 60.9987C32.0742 60.9987 31.9004 61.0703 31.7719 61.198L29.7296 63.2042L27.7234 61.1639C27.5956 61.0362 27.4226 60.9641 27.2419 60.9633C27.1517 60.9627 27.0623 60.9802 26.979 61.0147C26.8956 61.0491 26.82 61.0998 26.7564 61.1639C26.6927 61.2274 26.6421 61.303 26.6076 61.3861C26.5731 61.4692 26.5553 61.5584 26.5553 61.6484C26.5553 61.7384 26.5731 61.8275 26.6076 61.9107C26.6421 61.9938 26.6927 62.0693 26.7564 62.1329L28.7626 64.1571Z" fill="#2196F3"/>
</svg>
