<svg width="44" height="73" viewBox="0 0 44 73" fill="none" xmlns="http://www.w3.org/2000/svg">
<path d="M11.7468 14.9052C16.9813 14.0114 20.7169 10.3124 20.0904 6.64341C19.4639 2.97437 14.7126 0.724612 9.47802 1.61844C4.24345 2.51226 0.507878 6.21119 1.13438 9.88023C1.76087 13.5493 6.5122 15.799 11.7468 14.9052Z" fill="#2196F3"/>
<path opacity="0.3" d="M11.7468 14.9052C16.9813 14.0114 20.7169 10.3124 20.0904 6.64341C19.4639 2.97437 14.7126 0.724612 9.47802 1.61844C4.24345 2.51226 0.507878 6.21119 1.13438 9.88023C1.76087 13.5493 6.5122 15.799 11.7468 14.9052Z" fill="white"/>
<path d="M27.7324 8.46841C28.3126 9.66548 27.3843 11.2977 25.6748 12.1157C23.9652 12.9337 22.1184 12.6224 21.546 11.4253C20.9735 10.2282 21.896 8.59412 23.6036 7.77802C25.3112 6.96193 27.1523 7.27908 27.7324 8.46841Z" fill="#2196F3"/>
<path opacity="0.5" d="M27.7324 8.46841C28.3126 9.66548 27.3843 11.2977 25.6748 12.1157C23.9652 12.9337 22.1184 12.6224 21.546 11.4253C20.9735 10.2282 21.896 8.59412 23.6036 7.77802C25.3112 6.96193 27.1523 7.27908 27.7324 8.46841Z" fill="white"/>
<path d="M30.7901 13.2043C30.9564 13.9218 30.2583 14.6954 29.2333 14.9313C28.2084 15.1672 27.2434 14.7766 27.079 14.0572C26.9146 13.3378 27.6108 12.5662 28.6261 12.3302C29.6414 12.0943 30.6334 12.4849 30.7901 13.2043Z" fill="#2196F3"/>
<path opacity="0.6" d="M30.7901 13.2043C30.9564 13.9218 30.2583 14.6954 29.2333 14.9313C28.2084 15.1672 27.2434 14.7766 27.079 14.0572C26.9146 13.3378 27.6108 12.5662 28.6261 12.3302C29.6414 12.0943 30.6334 12.4849 30.7901 13.2043Z" fill="white"/>
<path d="M8.796 13.833C8.6761 13.833 8.5562 13.833 8.43823 13.8155C8.09335 13.8058 7.76037 13.6873 7.48677 13.4771C7.32838 13.3371 7.22205 13.1476 7.18509 12.9395C6.96656 12.9395 6.74803 12.924 6.52757 12.9124C6.0441 12.8834 5.54323 12.8293 5.19127 12.5044C5.08574 12.4045 5.001 12.2847 4.94192 12.152C4.88284 12.0192 4.8506 11.8761 4.84704 11.7308C4.65033 11.6804 4.46737 11.5866 4.31147 11.4565C4.15557 11.3264 4.03066 11.1631 3.94585 10.9786C3.88517 10.8176 3.8593 10.6456 3.86997 10.474C3.88064 10.3023 3.92759 10.1348 4.00774 9.98262C3.79584 9.82104 3.60656 9.63177 3.44498 9.41986C3.10236 8.95823 2.924 8.39526 2.93831 7.82055C2.84155 7.77541 2.76407 7.69724 2.71978 7.60009C2.64243 7.40671 2.74105 7.19011 2.99826 6.97932C3.05047 6.93484 3.10656 6.89036 3.1607 6.84782C3.31451 6.51304 3.53819 6.21506 3.81671 5.97389C4.09524 5.73273 4.42215 5.55397 4.77548 5.44963C5.35565 5.28332 5.96095 5.32973 6.54884 5.37614H6.57785C7.00671 5.29622 7.44007 5.24262 7.87548 5.21563C8.11934 5.15902 8.37053 5.14075 8.62002 5.16148C8.8715 5.04594 9.08677 4.8641 9.24272 4.63547C9.32125 4.51222 9.3898 4.38288 9.44771 4.2487C9.50765 4.10503 9.57946 3.9666 9.66237 3.83485C10.0221 3.2953 10.7202 2.98781 11.7413 2.92013C12.9519 2.84277 13.9324 3.05163 14.6556 3.5409C14.9289 3.72367 15.1624 3.95983 15.3421 4.23516C15.7046 4.25563 16.0631 4.32058 16.4096 4.42855C16.8989 4.56972 18.038 4.99904 18.0322 5.9331C18.0103 6.22973 17.921 6.51745 17.7711 6.77433L17.3669 7.60589C17.3876 7.71158 17.396 7.8193 17.3921 7.92692C17.4692 7.95856 17.5442 7.99539 17.6164 8.03715C17.9451 8.23053 18.2855 8.5767 18.2584 9.00408C18.241 9.28256 18.065 9.55137 17.7459 9.82017C17.3423 10.1469 16.884 10.3996 16.3922 10.5666C16.2368 10.8661 16.0556 11.1514 15.8508 11.4195C15.4543 11.9378 14.7929 12.6069 13.8937 12.8486C13.325 13.0066 12.7179 12.948 12.1899 12.6842C12.0178 12.7983 11.8457 12.8989 11.6891 12.984C10.6448 13.5487 9.67978 13.833 8.796 13.833ZM7.3572 12.9395C7.39307 13.0975 7.47762 13.2402 7.59893 13.3476C7.84538 13.5346 8.1444 13.6395 8.4537 13.6473C9.39743 13.7324 10.4533 13.4539 11.5943 12.837C11.7258 12.7655 11.8689 12.6842 12.012 12.5914C11.8539 12.4891 11.7124 12.3633 11.5924 12.2182C11.5262 12.1436 11.478 12.055 11.4512 11.959C11.1979 11.9977 10.9426 12.0267 10.6873 12.048C10.2895 12.2308 9.86953 12.3608 9.43804 12.4348C9.23635 12.5637 9.01937 12.667 8.79213 12.7423C8.32729 12.8836 7.84294 12.9502 7.3572 12.9395ZM7.65888 12.3439C7.55196 12.3941 7.4629 12.4757 7.40361 12.5779C7.37099 12.6376 7.35122 12.7035 7.3456 12.7713C7.81761 12.7798 8.28805 12.7145 8.73992 12.5779C8.81921 12.5508 8.90043 12.5199 8.98359 12.4831C8.53723 12.5174 8.08836 12.4702 7.65888 12.3439ZM5.01915 11.7831C5.03741 12.0112 5.14016 12.2243 5.3073 12.3806C5.61672 12.6668 6.08085 12.7152 6.53724 12.7423C6.7519 12.7539 6.96462 12.7655 7.17542 12.7693C7.1811 12.6736 7.20819 12.5805 7.25471 12.4966C7.30171 12.4084 7.36777 12.3318 7.44809 12.2723C7.37267 12.2433 7.29918 12.2124 7.22763 12.1776V12.2027C7.20879 12.2652 7.17444 12.3219 7.12778 12.3676C7.08112 12.4132 7.02366 12.4463 6.96076 12.4638C6.87487 12.4916 6.78359 12.4986 6.69447 12.4841C6.60536 12.4696 6.52097 12.4342 6.44828 12.3806C6.2657 12.2169 6.14259 11.9972 6.09825 11.756C5.86979 11.8149 5.63397 11.8403 5.39819 11.8314C5.27069 11.8262 5.14387 11.8101 5.01915 11.7831ZM12.335 12.5759C12.8072 12.7858 13.3378 12.8247 13.8357 12.6862C14.6885 12.458 15.3209 11.8159 15.7018 11.3189C15.8643 11.1058 16.0117 10.8816 16.1428 10.6479C15.9184 10.7175 15.6902 10.7774 15.4582 10.8277C15.1328 11.0993 14.7478 11.2901 14.3346 11.3847C13.9675 11.4838 13.594 11.5574 13.2168 11.6051C13.1558 11.715 13.0879 11.8209 13.0138 11.9223C12.8222 12.1736 12.5933 12.394 12.335 12.5759ZM11.6194 11.93C11.6414 11.9971 11.677 12.059 11.7239 12.1118C11.8483 12.2619 11.9982 12.3889 12.1667 12.487C12.4375 12.3048 12.6771 12.0801 12.8765 11.8217C12.9229 11.7598 12.9654 11.696 13.006 11.6283L12.6405 11.6632C12.3082 11.7804 11.9666 11.8696 11.6194 11.93ZM6.2665 11.7076C6.30269 11.9144 6.40519 12.1038 6.55851 12.2472C6.60951 12.2833 6.66815 12.3071 6.72987 12.3168C6.79159 12.3266 6.85472 12.3219 6.91434 12.3033C6.95016 12.2932 6.98297 12.2746 7.00994 12.249C7.0369 12.2234 7.0572 12.1915 7.06905 12.1563C7.07495 12.1368 7.07884 12.1167 7.08066 12.0963C6.90524 12.0013 6.74001 11.8885 6.58752 11.7598C6.53917 11.7192 6.49276 11.6767 6.44828 11.6341C6.38253 11.6612 6.32065 11.6844 6.2665 11.7076ZM7.98377 12.2414C8.45127 12.3326 8.93128 12.3398 9.4013 12.2627C9.4683 12.2178 9.53286 12.1694 9.59469 12.1176H9.53474C9.11315 12.1389 8.67803 12.1602 8.25838 12.2008C8.16353 12.2085 8.06923 12.2221 7.97604 12.2414H7.98377ZM9.85963 12.1041L9.7726 12.1872C9.8867 12.1582 10.0027 12.1273 10.1149 12.0905L9.85963 12.1041ZM7.25471 11.9919C7.38758 12.0578 7.52528 12.1134 7.66662 12.1582C7.85301 12.0888 8.04838 12.0465 8.24678 12.0325C8.66836 11.9919 9.10735 11.9706 9.53087 11.9513L9.79194 11.9378C9.86261 11.8596 9.92726 11.7762 9.98533 11.6883C9.16806 11.6582 8.34971 11.6796 7.53512 11.7521C7.48943 11.75 7.44379 11.7572 7.40093 11.7731C7.35807 11.7891 7.31886 11.8135 7.28565 11.8449C7.25947 11.8894 7.24609 11.9403 7.24697 11.9919H7.25471ZM10.1845 11.6922C10.1348 11.7732 10.0806 11.8513 10.0221 11.9262C10.2309 11.9146 10.4398 11.901 10.6467 11.8817C10.7666 11.8275 10.8807 11.7695 10.9929 11.7057C10.7453 11.7057 10.4997 11.7057 10.2541 11.6941L10.1845 11.6922ZM6.60686 11.551L6.69582 11.6283C6.81632 11.7318 6.94575 11.8243 7.08259 11.9049C7.08843 11.8495 7.10768 11.7964 7.13867 11.7502C7.18384 11.6964 7.24044 11.6534 7.30434 11.6243C7.36824 11.5952 7.43784 11.5807 7.50804 11.5819C8.362 11.5082 9.21971 11.4875 10.0762 11.52C10.1168 11.4439 10.1505 11.3643 10.1768 11.2822C9.99604 11.3391 9.80898 11.3735 9.61983 11.3847C8.74707 11.4628 7.86758 11.4133 7.0091 11.2377C6.88476 11.3573 6.74722 11.4624 6.59912 11.551H6.60686ZM11.3158 11.7076L11.2868 11.727L11.1089 11.8353C11.2269 11.8217 11.3429 11.8043 11.4589 11.785C11.4654 11.7584 11.4744 11.7324 11.486 11.7076H11.3158ZM11.7026 11.7076C11.6883 11.7213 11.6759 11.737 11.6659 11.754L11.9134 11.7038L11.7026 11.7076ZM5.03269 11.6109C5.15962 11.6408 5.28915 11.6583 5.41946 11.6632C5.64022 11.672 5.86107 11.6485 6.07505 11.5935C6.03443 11.4137 5.99382 11.2068 5.95901 10.9998L5.9242 10.9399C5.73082 10.8741 5.55097 10.8045 5.36725 10.7272C5.17884 10.974 5.06359 11.2689 5.03462 11.5781C5.03462 11.5781 5.01528 11.5974 5.01528 11.609L5.03269 11.6109ZM4.13924 10.0832C4.07485 10.2112 4.03765 10.3512 4.03 10.4943C4.02234 10.6374 4.04439 10.7806 4.09476 10.9147C4.16639 11.0708 4.27113 11.2094 4.4017 11.321C4.53227 11.4325 4.68556 11.5143 4.85091 11.5607C4.87937 11.2341 4.99712 10.9217 5.19127 10.6575C5.10618 10.6208 5.02495 10.5821 4.9418 10.5415C4.66182 10.4117 4.39334 10.2583 4.13924 10.0832ZM6.17754 11.3402C6.19108 11.4079 6.20655 11.4736 6.22009 11.5336L6.31291 11.4968C6.2665 11.4524 6.22009 11.4001 6.17754 11.3402ZM10.2638 11.52C10.5926 11.52 10.9252 11.5336 11.2578 11.5336C11.5993 11.3056 11.9191 11.0466 12.2131 10.76C12.0642 10.7327 11.9169 10.6965 11.7722 10.6517C11.4656 10.5599 11.1743 10.423 10.9078 10.2456C10.9045 10.4195 10.8627 10.5905 10.7855 10.7463C10.7082 10.9021 10.5974 11.0389 10.4611 11.1468L10.3798 11.201C10.3517 11.3152 10.3128 11.4266 10.2638 11.5336V11.52ZM12.4259 10.791C12.1569 11.0615 11.8665 11.3098 11.5576 11.5336H11.6156C11.7307 11.4445 11.8621 11.3788 12.0024 11.3402C12.4271 11.2098 12.86 11.1071 13.298 11.0327C13.3464 10.9147 13.3909 10.791 13.4354 10.6633C13.1169 10.7975 12.7681 10.8429 12.4259 10.7948V10.791ZM13.2168 11.2145C12.8213 11.2842 12.4306 11.3785 12.0468 11.4968L11.9675 11.5258C12.1803 11.5258 12.3911 11.5084 12.6038 11.493C12.814 11.4159 13.0183 11.3235 13.2149 11.2164L13.2168 11.2145ZM6.1582 11.0211C6.25004 11.1663 6.3556 11.3022 6.47342 11.4272C6.59185 11.3613 6.7033 11.2836 6.80605 11.1952C6.58752 11.1468 6.37093 11.0849 6.1582 11.0192V11.0211ZM13.3483 11.3402L13.3097 11.4214C13.6395 11.3774 13.9664 11.3128 14.2882 11.228C14.5586 11.1587 14.8187 11.0541 15.0617 10.9167C14.7485 10.9747 14.4352 11.025 14.1219 11.0753L13.6597 11.1487L13.5572 11.2184C13.4895 11.257 13.4218 11.2996 13.3483 11.3402ZM7.15028 11.0927C7.95855 11.248 8.78456 11.2897 9.60436 11.2164C9.81917 11.2073 10.0307 11.1602 10.229 11.0772C10.2692 10.8051 10.2763 10.5291 10.2503 10.2553C10.2503 10.1625 10.2503 10.0619 10.2367 9.97682C10.0914 10.1103 9.92639 10.2205 9.74746 10.3036C9.46299 10.4248 9.15623 10.4849 8.84706 10.4799C8.5379 10.4749 8.23324 10.4049 7.95283 10.2746C7.88315 10.265 7.81406 10.2515 7.74591 10.234L7.67822 10.352C7.52942 10.6172 7.35241 10.8655 7.15028 11.0927ZM6.08665 10.8181C6.37193 10.9107 6.66174 10.9888 6.95496 11.052C7.18051 10.8157 7.37542 10.5519 7.53512 10.2669L7.58153 10.1857C7.38829 10.1175 7.20591 10.0217 7.04005 9.9014C6.69007 9.95311 6.34901 10.0533 6.0267 10.1992C6.03443 10.4139 6.05764 10.6208 6.08665 10.8181ZM13.6287 10.6034C13.6191 10.6266 13.6113 10.6517 13.6017 10.6769C13.563 10.7871 13.5262 10.8935 13.4856 10.9979L13.592 10.9805C13.7227 10.884 13.8414 10.7723 13.9459 10.6479L13.6287 10.6034ZM10.405 9.80857V9.86852C10.405 9.99422 10.405 10.1199 10.4185 10.2553C10.4379 10.4915 10.4379 10.7288 10.4185 10.965C10.5284 10.8559 10.6144 10.7251 10.671 10.5809C10.7276 10.4368 10.7536 10.2824 10.7473 10.1277C10.6277 10.0284 10.5223 9.9132 10.434 9.78536L10.405 9.80857ZM14.147 10.6672C14.0798 10.7604 14.004 10.8472 13.9208 10.9263L14.0967 10.8993C14.5338 10.8297 14.9612 10.762 15.375 10.673C15.3866 10.673 15.3963 10.6517 15.4079 10.6401C15.2019 10.6782 14.9927 10.6963 14.7833 10.6943C14.5705 10.6943 14.3578 10.6865 14.147 10.6672ZM5.46394 10.5899L5.7985 10.7194C5.75209 10.615 5.71148 10.5086 5.67473 10.4023C5.59906 10.4584 5.52851 10.5212 5.46394 10.5899ZM12.5806 10.6382C12.8203 10.6542 13.0607 10.6199 13.2864 10.5376L13.0931 10.4951C12.9848 10.47 12.8823 10.4409 12.7817 10.4119C12.7185 10.488 12.6515 10.5634 12.5806 10.6382ZM10.9078 10.0387C11.1809 10.243 11.488 10.3975 11.8148 10.4951C11.9914 10.5511 12.1726 10.5919 12.3563 10.6169C12.4413 10.5318 12.5226 10.4429 12.6038 10.3539C12.1173 10.2023 11.6738 9.93719 11.31 9.58037C11.1389 9.40333 10.9949 9.20197 10.8826 8.98281C10.8445 9.0873 10.7999 9.18935 10.7492 9.28836C10.8072 9.45076 10.8518 9.61763 10.8826 9.7873C10.8972 9.87036 10.9056 9.95439 10.9078 10.0387ZM15.6825 10.5666L15.6535 10.6053C15.8611 10.555 16.0622 10.497 16.2569 10.4313C16.5008 9.95217 16.6784 9.44211 16.7848 8.91512C16.7085 8.96799 16.6276 9.01394 16.5431 9.05243C16.589 9.22652 16.5976 9.40837 16.5683 9.58601C16.539 9.76366 16.4724 9.93309 16.3729 10.0832C16.2011 10.3148 15.9589 10.4844 15.6825 10.5666ZM14.2495 10.5009C14.4255 10.5144 14.6034 10.5222 14.7813 10.5222C15.0484 10.5256 15.3146 10.4917 15.5723 10.4216C15.5878 10.3945 15.6032 10.3675 15.6168 10.3385C15.6947 10.1641 15.734 9.97502 15.732 9.7841C15.7299 9.59317 15.6867 9.40493 15.6052 9.23228C15.2913 9.22221 14.9792 9.18206 14.673 9.11238L14.5067 9.416C14.4545 9.51076 14.4023 9.60938 14.3481 9.70221C14.3693 9.77532 14.3823 9.85056 14.3868 9.92654C14.3962 10.1283 14.3486 10.3287 14.2495 10.5048V10.5009ZM4.21853 9.92074C4.46962 10.0958 4.73558 10.2485 5.01335 10.3771C5.10811 10.4235 5.20674 10.4661 5.29763 10.5067C5.39018 10.4013 5.49541 10.3078 5.61092 10.2282H5.62445C5.529 9.86578 5.49952 9.48912 5.53743 9.11625C5.22603 9.17376 4.92901 9.29205 4.66332 9.46434C4.48349 9.58696 4.33186 9.74651 4.21853 9.93234V9.92074ZM13.7641 10.4409L14.0639 10.4777C14.1702 10.3147 14.2235 10.1229 14.2166 9.92847V9.913C14.0941 10.1148 13.9415 10.2968 13.7641 10.4525V10.4409ZM5.83524 10.2901C5.84685 10.3288 5.86039 10.3694 5.87392 10.4081C5.87392 10.3636 5.87392 10.3191 5.87392 10.2727L5.83524 10.2901ZM12.919 10.2592L13.1453 10.3191C13.271 10.3481 13.3967 10.3752 13.532 10.3984C13.661 10.0271 13.786 9.65257 13.9072 9.27482C13.8647 9.23228 13.8221 9.19167 13.7796 9.15686C13.4953 9.5475 13.2149 9.92074 12.9132 10.2708L12.919 10.2592ZM16.9917 8.74494C16.8989 9.29638 16.731 9.83252 16.4928 10.3385C16.9068 10.1817 17.2928 9.95897 17.6357 9.679C17.9239 9.44114 18.0708 9.21294 18.0844 8.98281C18.1076 8.63278 17.8117 8.33496 17.5294 8.17252C17.4768 8.14237 17.4226 8.11525 17.3669 8.09129C17.3669 8.11644 17.3553 8.14351 17.3476 8.16865C17.2832 8.39407 17.1581 8.59745 16.9859 8.75655L16.9917 8.74494ZM15.7927 9.22067C15.9392 9.57373 15.9454 9.96936 15.8101 10.3268C15.9811 10.2502 16.1291 10.1302 16.2395 9.97875C16.3229 9.85213 16.3793 9.70969 16.4053 9.5603C16.4312 9.41091 16.4261 9.25778 16.3903 9.11044C16.3188 9.13365 16.2453 9.15492 16.1718 9.17233C16.0454 9.20306 15.9167 9.22311 15.7869 9.23228L15.7927 9.22067ZM8.47304 10.2514C8.87693 10.3465 9.30087 10.3064 9.67978 10.1373C9.89169 10.0385 10.0827 9.89998 10.2425 9.72928C10.2459 9.63142 10.2556 9.53388 10.2715 9.43727C10.2619 9.40633 10.2503 9.37538 10.2425 9.34444C10.2308 9.30711 10.2217 9.26898 10.2155 9.23034C10.0395 9.29029 9.86156 9.34638 9.68365 9.39666C9.43844 9.78826 9.06113 10.0791 8.62002 10.2166C8.57005 10.2351 8.51904 10.2506 8.46724 10.263L8.47304 10.2514ZM14.0271 9.42373C13.942 9.6906 13.855 9.95361 13.7641 10.2166C13.9222 10.0555 14.0582 9.8741 14.1683 9.67707C14.1304 9.59022 14.081 9.5089 14.0213 9.43533L14.0271 9.42373ZM11.0567 8.90932C11.1569 9.10926 11.2874 9.29256 11.4435 9.45274C11.8072 9.80585 12.2522 10.0642 12.7392 10.205C13.0574 9.83437 13.3556 9.44705 13.6326 9.04469C13.5746 9.00601 13.5224 8.97121 13.476 8.94413C13.2121 8.87704 12.9603 8.7694 12.7295 8.62504C12.4677 8.5481 12.1976 8.50266 11.925 8.48967L11.8283 8.53995C11.5692 8.68886 11.312 8.81069 11.0509 8.92092L11.0567 8.90932ZM5.72115 9.0737C5.6817 9.4237 5.70462 9.77792 5.78883 10.1199L5.85265 10.0851C5.83353 9.74003 5.84323 9.39396 5.88166 9.0505C5.82171 9.0679 5.76949 9.07563 5.71535 9.0853L5.72115 9.0737ZM7.99344 10.0967C8.18775 10.1206 8.38486 10.1062 8.57361 10.0542C8.90843 9.95375 9.20332 9.75084 9.41677 9.47401C8.97112 9.5912 8.51915 9.68288 8.06306 9.74862H7.99151L7.85034 10.0252L7.99344 10.0967ZM6.05957 9.02922C6.02095 9.34999 6.00866 9.67338 6.02283 9.99616C6.2951 9.87881 6.57996 9.79316 6.8718 9.74089L6.79251 9.66353C6.60193 9.47538 6.44263 9.25798 6.32065 9.01955L6.05957 9.02922ZM7.49644 9.82017C7.56606 9.86659 7.63568 9.91107 7.7053 9.94974C7.73624 9.89366 7.76525 9.83758 7.79426 9.7815L7.69756 9.79503L7.49644 9.82017ZM10.5558 9.62679C10.6113 9.71301 10.6761 9.79279 10.7492 9.86465C10.7492 9.84725 10.7492 9.82984 10.7492 9.81244C10.7285 9.70155 10.702 9.59182 10.6699 9.48368L10.5558 9.62679ZM3.10849 7.8863C3.1093 8.39963 3.27469 8.89917 3.58035 9.31157C3.72709 9.50546 3.89949 9.67851 4.09283 9.82598C4.21725 9.6255 4.38187 9.45298 4.5763 9.3193C4.87771 9.12379 5.21602 8.99216 5.57031 8.93253C5.59603 8.77903 5.63353 8.62774 5.68247 8.48C4.80171 8.38287 3.93489 8.18563 3.09882 7.89211L3.10849 7.8863ZM6.63587 8.99054C6.82393 9.25148 7.04789 9.48455 7.30112 9.68287C7.42489 9.66353 7.55059 9.64806 7.67629 9.63259L7.88515 9.60358C7.94123 9.49142 7.99538 9.37925 8.04953 9.26902L8.10561 9.15492C7.88557 9.11285 7.67676 9.02525 7.49257 8.89772C7.20577 8.94622 6.91656 8.97914 6.6262 8.99635L6.63587 8.99054ZM8.28739 9.17039C8.25838 9.22648 8.23131 9.28449 8.2023 9.34251C8.17329 9.40052 8.12688 9.49722 8.0882 9.57651C8.59206 9.50162 9.0907 9.39505 9.58115 9.25742C9.81754 8.87488 9.99854 8.46079 10.1188 8.02748L10.1865 7.79928C10.2893 7.4249 10.4139 7.05683 10.5597 6.69698C10.5384 6.65636 10.5152 6.61575 10.4901 6.57708C10.3573 6.64988 10.2282 6.72927 10.1033 6.81494C10.0878 6.83428 10.0724 6.85555 10.0549 6.87489C10.055 7.19272 9.99253 7.50745 9.87123 7.80121C9.58695 8.50321 8.99712 9.17039 8.28933 9.17039H8.28739ZM14.089 9.23421C14.164 9.31436 14.2289 9.40333 14.2824 9.49915C14.3114 9.44307 14.3423 9.38892 14.3733 9.33284C14.4042 9.27676 14.4603 9.17039 14.5067 9.08917C14.4371 9.08917 14.3675 9.08917 14.2979 9.08917H14.1509L14.089 9.23421ZM10.4475 9.4276C10.4515 9.44031 10.4567 9.45262 10.463 9.46434C10.5036 9.40439 10.5423 9.34058 10.579 9.27096C10.5636 9.22454 10.5462 9.18006 10.5307 9.13365C10.4899 9.22926 10.4601 9.32916 10.4417 9.43147L10.4475 9.4276ZM10.2541 8.16091C10.1471 8.51781 10.0019 8.8621 9.82095 9.1878C9.94665 9.14912 10.0704 9.10851 10.1942 9.06597C10.1821 8.85751 10.2158 8.64893 10.2928 8.45486C10.2621 8.36124 10.2464 8.26332 10.2464 8.16478L10.2541 8.16091ZM13.8975 9.04663L13.9575 9.09884L13.971 9.0563L13.8975 9.04663ZM15.638 8.91319C15.669 8.9613 15.6974 9.01101 15.7231 9.0621C15.8595 9.05988 15.9954 9.04564 16.1292 9.01955C16.2016 9.00419 16.2727 8.9835 16.342 8.95767C16.3034 8.83036 16.2536 8.70675 16.1931 8.5883C16.0254 8.73095 15.8335 8.8423 15.6264 8.91706L15.638 8.91319ZM15.2106 9.03116C15.3158 9.04631 15.4217 9.05599 15.5278 9.06016C15.5104 9.02922 15.4911 8.99828 15.4717 8.96927C15.3821 8.99612 15.2911 9.01807 15.199 9.03502L15.2106 9.03116ZM10.3914 8.75074C10.374 8.83533 10.3663 8.92161 10.3682 9.00795L10.4166 8.98861C10.4282 8.9654 10.4398 8.9422 10.4533 8.91899L10.3914 8.75074ZM8.70704 8.36397C8.58908 8.56896 8.48078 8.77975 8.37442 8.99248C8.96618 8.94026 9.46319 8.35043 9.71266 7.73353C9.79676 7.52609 9.85206 7.30812 9.87703 7.08568C9.6423 7.37747 9.37571 7.64212 9.08221 7.8747C9.07061 7.89984 9.059 7.92305 9.04547 7.94625C8.95632 8.1092 8.83762 8.25413 8.69544 8.37364L8.70704 8.36397ZM7.74011 8.84164C7.87161 8.91616 8.01592 8.96536 8.16556 8.98668H8.1907C8.25645 8.85131 8.32414 8.71787 8.38409 8.58443C8.30515 8.63014 8.22308 8.67021 8.13848 8.70433C8.0046 8.7641 7.86623 8.81325 7.72464 8.85131L7.74011 8.84164ZM14.2128 8.82617C14.3423 8.86484 14.47 8.89578 14.5899 8.92286C14.6827 8.76486 14.7902 8.61594 14.9109 8.47807L14.938 8.44713C14.7829 8.33594 14.6178 8.23947 14.4448 8.15898L14.3888 8.24601C14.3307 8.43939 14.2727 8.63278 14.2128 8.82617ZM15.0733 8.55156L15.0366 8.59023C14.9491 8.69256 14.8684 8.80044 14.7949 8.91319C14.9842 8.90271 15.1721 8.87356 15.3557 8.82617C15.2699 8.72699 15.1754 8.63573 15.0733 8.55349V8.55156ZM5.84685 8.50514C5.80079 8.63685 5.76523 8.772 5.74049 8.90932C5.7927 8.90932 5.84685 8.89385 5.89906 8.88612C5.9184 8.76235 5.94161 8.64051 5.96868 8.51675L5.84685 8.50514ZM10.786 8.76428C10.7403 8.8031 10.6989 8.84652 10.6622 8.89385L10.7569 8.85711L10.786 8.76428ZM16.3226 8.4626C16.3951 8.59923 16.4546 8.74231 16.5005 8.88998C16.6199 8.83198 16.7311 8.75851 16.8312 8.67146C16.8486 8.55736 16.8641 8.44133 16.8757 8.32723C16.8368 8.34632 16.795 8.35874 16.7519 8.36397C16.7121 8.36737 16.6722 8.3598 16.6364 8.34207C16.6006 8.32434 16.5703 8.29713 16.5489 8.26341L16.5257 8.23053L16.576 8.07389C16.5189 8.20218 16.4433 8.32142 16.3516 8.42779L16.3226 8.4626ZM6.13886 8.53995C6.11372 8.64825 6.09245 8.75848 6.07505 8.86871L6.24909 8.85324C6.20784 8.75268 6.17045 8.64825 6.13693 8.53995H6.13886ZM13.5417 8.80683C13.6191 8.82617 13.6964 8.84357 13.7738 8.85904C13.3873 8.71095 13.0705 8.42315 12.8861 8.05262C12.8519 7.9753 12.8247 7.89504 12.8049 7.81282C12.6991 7.94729 12.5769 8.06811 12.4413 8.17252C12.5424 8.29514 12.6618 8.40146 12.7952 8.48774C13.0403 8.56193 13.2769 8.66175 13.5011 8.78555L13.5417 8.80683ZM6.35159 8.54576C6.40213 8.64455 6.45764 8.74072 6.5179 8.8339H6.53337C6.78284 8.81843 7.03425 8.80103 7.28371 8.76428L7.13867 8.65792L6.99363 8.54962C6.78864 8.55542 6.57398 8.55542 6.34965 8.54576H6.35159ZM14.0407 8.77008H14.0542L14.0677 8.72561C14.0561 8.74301 14.0465 8.75655 14.0387 8.77008H14.0407ZM15.201 8.43552C15.3215 8.53656 15.431 8.64999 15.5278 8.77395C15.7423 8.70115 15.9397 8.58533 16.108 8.43359C16.0404 8.31695 15.9648 8.20516 15.8817 8.09903L15.8488 8.05649C15.609 8.141 15.3877 8.27102 15.1971 8.43939L15.201 8.43552ZM10.9716 8.74301L10.9832 8.76815C11.1766 8.68693 11.3603 8.60184 11.544 8.51095C11.3563 8.51936 11.1716 8.56128 10.9987 8.63471C10.9851 8.67146 10.9774 8.70627 10.9677 8.74301H10.9716ZM10.4707 8.47614C10.4978 8.56896 10.5307 8.66952 10.5636 8.75268C10.5997 8.70844 10.6406 8.66824 10.6854 8.63278L10.7337 8.59217C10.6909 8.45398 10.6605 8.31225 10.6428 8.16865C10.5727 8.26411 10.5136 8.36728 10.4669 8.47614H10.4707ZM7.25471 8.52835C7.34366 8.59604 7.43262 8.66372 7.52158 8.72174C7.70971 8.68646 7.89375 8.63203 8.0708 8.55929C8.25082 8.48622 8.41847 8.38576 8.5678 8.26148L8.62582 8.16091C8.19476 8.36898 7.72823 8.49365 7.25084 8.52835H7.25471ZM12.9635 7.71419C12.9793 7.80682 13.0066 7.89712 13.0447 7.983C13.2211 8.32157 13.5198 8.58021 13.8801 8.70626C14 8.53028 14.118 8.35237 14.236 8.17445L14.265 8.07776L14.1664 8.03715C13.7783 7.88224 13.3732 7.77383 12.9596 7.71419H12.9635ZM17.0594 8.17445C17.0594 8.26534 17.0459 8.35624 17.0343 8.44713C17.1013 8.35287 17.1511 8.24744 17.1813 8.13577C17.1904 8.10403 17.1975 8.07173 17.2025 8.03908L17.1581 8.02554C17.1305 8.07943 17.0961 8.12949 17.0556 8.17445H17.0594ZM11.047 7.76254C11.047 7.81862 11.0567 7.87277 11.0586 7.92885C11.0646 8.09892 11.0549 8.26917 11.0296 8.43746C11.2198 8.37354 11.4188 8.33961 11.6194 8.3369C11.7058 8.3369 11.7929 8.3369 11.8805 8.3369C11.9927 8.27815 12.1018 8.2136 12.2073 8.14351C12.1325 8.02405 12.077 7.89351 12.043 7.75674C12.043 7.72579 12.0275 7.69485 12.0217 7.66584C11.6945 7.66811 11.3683 7.70048 11.047 7.76254ZM10.7937 7.97526C10.8018 8.12537 10.8245 8.27433 10.8614 8.42005C10.885 8.2594 10.8941 8.09694 10.8884 7.93465C10.8884 7.91725 10.8884 7.89791 10.8884 7.87857C10.8536 7.90951 10.8227 7.94239 10.7937 7.97526ZM12.1764 8.36204C12.2557 8.36204 12.335 8.38331 12.4143 8.39685C12.3756 8.35857 12.3395 8.31788 12.306 8.27501L12.1764 8.36204ZM6.2665 8.37171C6.43281 8.38073 6.59332 8.3846 6.74803 8.38331C6.59689 8.28779 6.42883 8.22214 6.25296 8.18992H6.23556C6.23556 8.18992 6.23556 8.20733 6.23556 8.217C6.23556 8.26534 6.25683 8.31369 6.26843 8.3601C6.2665 8.35623 6.2665 8.36397 6.2665 8.37171ZM6.29357 8.01587C6.56609 8.07762 6.82121 8.1999 7.04005 8.37364C7.66696 8.36264 8.27966 8.1851 8.81534 7.85923C8.86755 7.78188 8.92363 7.70646 8.98165 7.63297C9.05377 7.3408 9.08693 7.04038 9.08028 6.73952C9.08294 6.46596 9.11208 6.1933 9.1673 5.92536C8.97922 5.89003 8.78686 5.88351 8.59681 5.90602C8.38855 5.98027 8.18566 6.0688 7.98958 6.17096C7.61337 6.36103 7.27205 6.61342 6.9801 6.91744C6.68206 7.23477 6.45002 7.60814 6.29744 8.01587H6.29357ZM5.9068 8.3427H6.00349L6.0383 8.2228C6.03743 8.21057 6.03743 8.19829 6.0383 8.18606C6.02702 8.18994 6.01654 8.19583 6.00736 8.20346C5.96373 8.24042 5.93097 8.28855 5.9126 8.3427H5.9068ZM14.5338 8.01781C14.7171 8.10524 14.8919 8.20947 15.0559 8.32916C15.2508 8.15308 15.4772 8.0153 15.7231 7.92305C15.5297 7.72966 15.2203 7.4976 14.9167 7.62523C14.7566 7.71804 14.6259 7.8541 14.5396 8.01781H14.5338ZM3.10462 7.71226L3.1491 7.72966C3.98512 8.02719 4.85275 8.22706 5.73468 8.32529C5.76619 8.23271 5.82235 8.15046 5.89713 8.08743C5.92695 8.0659 5.95946 8.04835 5.99382 8.03521C5.98609 7.97849 5.98029 7.9224 5.97642 7.86697C5.97325 7.77457 5.97778 7.68207 5.98995 7.59042C5.98237 7.28523 6.02751 6.98101 6.12339 6.69117C6.28947 6.23531 6.60153 5.84711 7.01104 5.58693C6.8718 5.58693 6.73063 5.56953 6.59332 5.55986C5.39856 5.76474 4.2674 6.24328 3.28834 6.95805C3.26384 7.01606 3.24064 7.07601 3.21872 7.1379C3.15684 7.32383 3.11851 7.51679 3.10462 7.71226ZM16.0248 8.00427C16.0997 8.10063 16.1688 8.20137 16.2317 8.30595C16.3238 8.1963 16.3969 8.07214 16.4483 7.93852C16.3053 7.94592 16.1634 7.96796 16.0248 8.00427ZM16.7152 8.19766C16.7222 8.19955 16.7295 8.19955 16.7365 8.19766C16.7968 8.18554 16.8512 8.15353 16.8912 8.10677V7.96753L16.7887 7.95399L16.7152 8.19766ZM10.6196 7.89791C10.5416 7.93305 10.4786 7.99472 10.4417 8.07196C10.4248 8.11176 10.4156 8.15442 10.4146 8.19766C10.4749 8.09791 10.5434 8.00345 10.6196 7.91531V7.89791ZM12.1957 7.65811C12.1978 7.67524 12.2017 7.6921 12.2073 7.70839C12.2356 7.82419 12.2812 7.93504 12.3427 8.03715C12.4728 7.93521 12.5891 7.81691 12.6889 7.68518C12.5245 7.66584 12.3601 7.65424 12.1957 7.65231V7.65811ZM10.6486 6.91357C10.5268 7.21719 10.4321 7.54014 10.3373 7.85923L10.3102 7.95206C10.3845 7.83888 10.4939 7.75325 10.6216 7.70839C10.6216 7.66391 10.6216 7.62137 10.6351 7.57689C10.6523 7.42495 10.6854 7.27523 10.7337 7.13016C10.7144 7.05087 10.6815 6.97739 10.6506 6.90777L10.6486 6.91357ZM12.9693 7.54981C13.3999 7.61176 13.8218 7.72405 14.2263 7.88437L14.3075 7.91918L14.3423 7.80315C14.3761 7.72027 14.3822 7.62871 14.3597 7.54208C14.3133 7.44152 14.1664 7.40864 14.0291 7.3893C13.8511 7.36609 13.6674 7.33902 13.4798 7.31775L13.4276 7.33902L13.4179 7.31195C13.298 7.29841 13.1762 7.28874 13.0544 7.281C13.0365 7.37172 13.0079 7.46001 12.9693 7.54401V7.54981ZM15.0965 7.42411C15.4292 7.42411 15.727 7.68325 15.8972 7.8689C16.0914 7.81137 16.2923 7.77951 16.4947 7.77414C16.5457 7.5275 16.5473 7.27321 16.4995 7.02594C16.4517 6.77868 16.3554 6.54331 16.2163 6.33341C15.9813 6.16967 15.7306 6.02974 15.4679 5.91569L15.404 5.90409C15.269 6.15813 15.0865 6.38395 14.8664 6.56934C14.5472 6.82647 14.1904 7.03321 13.8086 7.18238L14.0523 7.21525C14.1446 7.21517 14.2354 7.23877 14.3159 7.28381C14.3965 7.32884 14.4642 7.39379 14.5125 7.47246C14.5478 7.55763 14.5546 7.65192 14.5319 7.74126C14.6155 7.62541 14.7273 7.53288 14.8567 7.47246C14.9345 7.43715 15.0189 7.41869 15.1043 7.41831L15.0965 7.42411ZM6.15627 7.59816C6.15627 7.68325 6.15627 7.76834 6.17174 7.8573C6.32851 7.47139 6.55464 7.11745 6.83892 6.81301C7.14376 6.49801 7.4994 6.23652 7.89095 6.03946C7.53052 6.11942 7.18902 6.2685 6.88534 6.47845C6.50874 6.74139 6.24987 7.14115 6.164 7.59236L6.15627 7.59816ZM17.0382 7.22686C17.0382 7.25973 17.0382 7.29261 17.0382 7.32355C17.0517 7.48793 17.0556 7.65037 17.0556 7.81282L17.1639 7.58849C17.1403 7.4615 17.1006 7.33803 17.0459 7.22105L17.0382 7.22686ZM16.8448 7.79155H16.897C16.897 7.7374 16.897 7.68132 16.897 7.62717L16.8448 7.79155ZM16.545 6.59448C16.7045 6.96406 16.749 7.37312 16.6727 7.76834L16.866 7.18818C16.855 7.0843 16.8356 6.98147 16.808 6.88069C16.7809 6.84588 16.75 6.81107 16.7191 6.77626C16.6881 6.74145 16.6088 6.64476 16.5489 6.58868L16.545 6.59448ZM10.8227 7.45699C10.8227 7.5034 10.8072 7.54981 10.8014 7.59816V7.65037L10.8556 7.63684C10.8493 7.57447 10.8396 7.5125 10.8266 7.45118L10.8227 7.45699ZM3.03113 7.16691C2.92864 7.26553 2.81647 7.40864 2.86869 7.53628C2.88403 7.57295 2.90953 7.60448 2.94218 7.62717C2.95743 7.47131 2.98721 7.31722 3.03113 7.16691ZM12.0062 7.32355C11.8542 7.35257 11.7048 7.39396 11.5595 7.44732C11.4937 7.47246 11.428 7.5034 11.3661 7.53628C11.579 7.50728 11.7934 7.48985 12.0082 7.48406C12.0036 7.43067 12.003 7.37703 12.0062 7.32355ZM12.1725 7.48213C12.3659 7.48213 12.5709 7.49566 12.7682 7.51694C12.7669 7.43228 12.7715 7.34764 12.7817 7.2636C12.5801 7.25998 12.3784 7.27096 12.1783 7.29647C12.1725 7.35818 12.1706 7.42018 12.1725 7.48213ZM10.9078 7.12629C10.9458 7.24018 10.9761 7.35647 10.9987 7.47439L11.0451 7.41251C11.125 7.29458 11.1779 7.16045 11.2 7.01971C11.2221 6.87896 11.2127 6.73508 11.1727 6.59835C11.0635 6.76302 10.9745 6.94029 10.9078 7.12629ZM17.0962 6.99092C17.1705 7.10609 17.2315 7.22937 17.278 7.35836L17.599 6.70084C17.7351 6.46362 17.8183 6.19972 17.8426 5.9273C17.8426 5.10927 16.7926 4.71669 16.34 4.58519C16.0405 4.49234 15.7319 4.43204 15.4195 4.40534C15.5287 4.61884 15.5889 4.85406 15.5955 5.0938C15.5998 5.22397 15.5861 5.35412 15.5549 5.48057C15.6574 5.53789 15.7556 5.60252 15.8488 5.67396L16.2066 5.69717C16.5586 5.72037 17.044 5.79773 17.1909 6.18257C17.2536 6.40941 17.2345 6.6511 17.1368 6.86522L17.0962 6.99092ZM9.32201 5.97758C9.27661 6.22765 9.25524 6.4815 9.25819 6.73565C9.25597 6.94117 9.24306 7.14644 9.21952 7.35062C9.41661 7.13644 9.63424 6.94212 9.8693 6.77046C9.86436 6.63957 9.83142 6.51126 9.77271 6.39417C9.714 6.27708 9.63087 6.17393 9.52894 6.09167C9.4655 6.04437 9.39587 6.00598 9.32201 5.97758ZM11.2946 6.4301C11.3999 6.70863 11.3999 7.01602 11.2946 7.29454C11.5786 7.18767 11.8513 7.05293 12.1087 6.8923C12.1998 6.67622 12.3311 6.47936 12.4955 6.31214C12.3575 6.19328 12.2039 6.09374 12.0391 6.01625C11.8999 6.0472 11.7548 6.08587 11.6098 6.12842C11.4953 6.21864 11.3897 6.31966 11.2946 6.4301ZM12.0256 7.13403L11.9927 7.15337H12.0236L12.0256 7.13403ZM13.0621 7.10502C13.1936 7.10502 13.3232 7.12629 13.4489 7.13983C13.9209 6.98033 14.3623 6.74163 14.7543 6.43397C14.9422 6.27395 15.1006 6.08217 15.2222 5.86735C14.6126 5.74006 13.9813 5.76062 13.3812 5.9273C13.3329 6.03753 13.2864 6.15162 13.24 6.26572C13.1646 6.45911 13.0892 6.6525 13.0331 6.84588C13.0491 6.91376 13.0582 6.98309 13.0602 7.05281L13.0621 7.10502ZM12.2402 6.99866C12.2248 7.03927 12.2131 7.07988 12.2015 7.12049C12.3999 7.09797 12.5995 7.08892 12.7991 7.09342C12.8146 7.01026 12.8359 6.92517 12.8591 6.84008C12.8286 6.73652 12.7816 6.63856 12.7198 6.55C12.5857 6.72216 12.4267 6.87338 12.248 6.99866H12.2402ZM7.32626 5.58693C6.84004 5.82314 6.46483 6.23927 6.28004 6.74726C6.25669 6.81045 6.23731 6.87504 6.22202 6.94064C6.36735 6.70167 6.55942 6.49448 6.78671 6.33147C7.27834 6.00248 7.84507 5.80293 8.43437 5.75131L8.54266 5.73971C8.78357 5.65635 9.03055 5.5917 9.2814 5.54632L9.293 5.52505C9.19675 5.48062 9.09718 5.44376 8.99519 5.41482C8.93717 5.39742 8.87722 5.38388 8.81727 5.37227H8.58714C8.18673 5.52231 7.76152 5.59515 7.33399 5.58693H7.32626ZM10.7376 6.69891C10.7685 6.76079 10.7976 6.82268 10.8246 6.8923C10.9007 6.71801 10.9967 6.55317 11.1108 6.40109C11.0973 6.37015 11.0818 6.34114 11.0664 6.3102L10.9097 6.37595C10.8464 6.48035 10.789 6.58817 10.7376 6.69891ZM16.9666 6.78787C16.9732 6.79726 16.9803 6.80629 16.9879 6.81494C17.0687 6.63815 17.0884 6.43949 17.044 6.25025C16.9318 5.95437 16.5121 5.89249 16.2066 5.86348H16.0712L16.1292 5.92536C16.4096 6.02751 16.6514 6.21396 16.8216 6.45911C16.8844 6.5617 16.9332 6.67228 16.9666 6.78787ZM9.36456 5.82093C9.54025 5.883 9.695 5.9931 9.81123 6.13873C9.92747 6.28437 10.0005 6.45968 10.0221 6.64476C10.111 6.53646 10.2019 6.42623 10.2947 6.31794C10.1017 6.06425 9.8646 5.84741 9.59469 5.67783C9.53281 5.67783 9.46899 5.69523 9.4013 5.70684C9.39163 5.73198 9.37809 5.77452 9.36069 5.8132L9.36456 5.82093ZM5.71148 5.51151C5.40878 5.50553 5.10674 5.54198 4.81416 5.61981C4.26141 5.78252 3.78526 6.13791 3.47206 6.62155C4.23401 6.10907 5.08052 5.73525 5.97255 5.51732C5.88617 5.50829 5.79915 5.50378 5.71148 5.50378V5.51151ZM12.6173 6.42043C12.5612 6.48111 12.5095 6.54574 12.4626 6.61382C12.5193 6.55359 12.571 6.48892 12.6173 6.42043ZM12.8281 6.40883C12.8728 6.46988 12.9122 6.53457 12.9461 6.60222C12.9925 6.47265 13.0408 6.34501 13.0931 6.21544L13.1685 6.02206C13.0917 6.05843 13.0174 6.09977 12.9461 6.14582C12.9154 6.23466 12.8759 6.32018 12.8281 6.40109V6.40883ZM10.6312 6.50552V6.51713L10.6409 6.49585L10.6312 6.50552ZM10.521 6.31214C10.5307 6.32567 10.5403 6.33921 10.5481 6.35275C10.6332 6.3102 10.7163 6.26959 10.7995 6.23285C10.8382 6.17096 10.8768 6.11295 10.9194 6.05686C10.8962 6.02786 10.871 5.99885 10.8459 5.97177C10.7241 6.08394 10.6158 6.19997 10.521 6.31214ZM11.2327 6.23671L11.2443 6.22318L11.2327 6.23671ZM9.86736 5.63915C10.074 5.79189 10.2587 5.97211 10.4166 6.17483C10.5152 6.0646 10.61 5.95824 10.7221 5.85574C10.7036 5.83985 10.6843 5.825 10.6641 5.81126C10.5671 5.73646 10.4628 5.67166 10.3528 5.61788C10.1874 5.61781 10.0221 5.62685 9.8577 5.64495L9.86736 5.63915ZM12.304 5.9389C12.4186 6.00689 12.5267 6.08522 12.627 6.1729C12.6852 6.1208 12.7465 6.07236 12.8107 6.02786C12.8262 5.96984 12.8397 5.91182 12.8494 5.85381C12.7314 5.86928 12.6154 5.88475 12.4994 5.90409L12.304 5.9389ZM11.1302 6.06073L11.1476 6.08781C11.2791 6.03946 11.4067 5.99498 11.5344 5.9563C11.5808 5.91763 11.6291 5.88088 11.6794 5.84607H11.662C11.5827 5.82093 11.5015 5.79773 11.4203 5.77645C11.3107 5.86267 11.2103 5.95987 11.1205 6.06653L11.1302 6.06073ZM10.9716 5.86735L11.0258 5.93116C11.0852 5.86191 11.1499 5.79726 11.2191 5.73778L11.1553 5.72424C11.0844 5.76678 11.0199 5.8132 10.9619 5.86348L10.9716 5.86735ZM13.0234 5.84414C13.0234 5.86735 13.0234 5.88862 13.0234 5.91182C13.0648 5.88886 13.1074 5.86821 13.1511 5.84994L13.1975 5.82867L13.0234 5.84414ZM11.5982 5.65075L11.7123 5.68556C11.8337 5.72304 11.9525 5.76825 12.0681 5.82093C12.2073 5.78999 12.3427 5.76485 12.4723 5.74358C12.6019 5.72231 12.7334 5.70297 12.8591 5.6875C12.8618 5.59518 12.8527 5.5029 12.832 5.41289C12.8261 5.38196 12.8177 5.35156 12.8068 5.32199C12.378 5.31592 11.9561 5.42979 11.5885 5.65075H11.5982ZM9.1441 5.75325L9.21178 5.76678C9.21178 5.75518 9.21178 5.74551 9.21178 5.73584L9.1441 5.75325ZM10.7337 5.65655L10.7647 5.67976L10.8478 5.74551L10.9252 5.67976C10.8517 5.67203 10.7879 5.66236 10.7241 5.65655H10.7337ZM12.9886 5.32199C12.9943 5.33974 12.9988 5.35783 13.0022 5.37614C13.0232 5.47205 13.0336 5.56998 13.0331 5.66816L13.3425 5.64302C13.3889 5.54632 13.4354 5.44963 13.4856 5.36261C13.3176 5.33982 13.1485 5.32627 12.979 5.32199H12.9886ZM15.5259 5.65849H15.5452L15.5278 5.64688L15.5259 5.65849ZM15.2822 5.64495H15.346C15.3576 5.61594 15.3673 5.58693 15.377 5.55986C14.8875 5.31813 14.3538 5.17926 13.8086 5.15181L13.7583 5.22723C13.9362 5.25818 14.1045 5.29685 14.2611 5.3336C14.6042 5.4171 14.9419 5.52107 15.2725 5.64495H15.2822ZM13.6655 5.38968C13.621 5.46704 13.5785 5.54826 13.5378 5.63141C13.913 5.61208 14.2901 5.61014 14.6653 5.61981C14.5145 5.57726 14.3675 5.53859 14.2263 5.50571C14.0213 5.45737 13.8337 5.41869 13.6558 5.38968H13.6655ZM11.3448 5.58307H11.3797C11.4601 5.5235 11.5448 5.46985 11.633 5.42256C11.5711 5.45221 11.5066 5.48315 11.4396 5.51538C11.4067 5.53859 11.3719 5.56373 11.3352 5.58693L11.3448 5.58307ZM10.3914 5.4593C10.6296 5.46873 10.8668 5.49523 11.1012 5.53859C11.1848 5.47864 11.272 5.42375 11.3622 5.37421C11.7534 5.17115 12.1803 5.04634 12.6193 5.00677C12.569 4.95377 12.511 4.90877 12.4471 4.87334C12.2357 4.77627 12.0048 4.72928 11.7722 4.73603C11.078 4.70702 10.2116 4.78631 9.70685 5.26398C9.93926 5.30195 10.166 5.36887 10.3818 5.46317L10.3914 5.4593ZM9.55408 5.4477L9.63917 5.49604C9.72039 5.48702 9.80161 5.47928 9.88283 5.47284C9.78227 5.44963 9.68945 5.43029 9.57728 5.41482L9.55408 5.4477ZM13.9343 4.99904C14.4494 5.03591 14.9528 5.17045 15.4176 5.39548C15.4369 5.29938 15.446 5.20149 15.4446 5.10347C15.4348 4.85709 15.3651 4.61681 15.2416 4.40341C14.9699 4.39933 14.701 4.45894 14.4564 4.57745C14.2532 4.68001 14.0735 4.82355 13.9285 4.99904H13.9343ZM8.90623 5.19243C9.10724 5.19496 9.30798 5.20787 9.50766 5.2311C10.0395 4.62967 11.0141 4.53104 11.7877 4.56198C12.046 4.55702 12.302 4.61126 12.5361 4.72056C12.6525 4.78518 12.7529 4.87505 12.8301 4.98357C12.979 4.9739 13.1163 4.97003 13.242 4.9681C13.4109 4.9681 13.5733 4.97196 13.7293 4.9797C13.9013 4.74638 14.1242 4.55526 14.381 4.42081C14.616 4.30393 14.873 4.23803 15.1352 4.22742C14.9765 4.00926 14.78 3.82128 14.5551 3.6724C13.8627 3.20247 12.919 3.00329 11.7452 3.08064C10.7782 3.14252 10.1265 3.42487 9.79774 3.91994C9.72058 4.04366 9.65271 4.17294 9.59469 4.30671C9.53475 4.45038 9.46295 4.58881 9.38003 4.72056C9.25521 4.9116 9.09104 5.0738 8.89849 5.19629L8.90623 5.19243ZM12.9674 5.14601C13.174 5.15019 13.3801 5.16828 13.5843 5.20016C13.5959 5.18082 13.6075 5.16148 13.621 5.14214C13.4992 5.14214 13.3754 5.14214 13.2497 5.14214C13.1491 5.15181 13.0544 5.15181 12.9538 5.15181L12.9674 5.14601Z" fill="white"/>
<path d="M30.0142 28.3988C29.7257 28.2606 29.4127 28.1806 29.0931 28.1634C28.7736 28.1463 28.4538 28.1923 28.1521 28.2988C27.8503 28.4053 27.5726 28.5702 27.3346 28.7842C27.0967 28.9981 26.9032 29.2568 26.7653 29.5456L26.7015 29.681L26.6106 29.8744L26.5004 30.0968L26.2683 30.5512C26.1078 30.8529 25.9493 31.1565 25.7771 31.4466C25.9106 30.9999 26.0556 30.5512 26.2045 30.1045C26.3534 29.6578 26.5139 29.1666 26.6783 28.6986C26.9974 27.7645 27.3436 26.815 27.6665 25.8925L27.6781 25.8616C27.7758 25.5852 27.7703 25.2828 27.6628 25.0101C27.5552 24.7374 27.3527 24.5127 27.0927 24.3774C26.8326 24.242 26.5325 24.2052 26.2474 24.2736C25.9623 24.342 25.7115 24.511 25.5412 24.7496C24.9204 25.616 24.3809 26.4901 23.8413 27.3835C23.3018 28.277 22.8183 29.2033 22.3523 30.1528C21.8783 31.1207 21.4606 32.1151 21.101 33.131C20.9231 33.657 20.7549 34.1985 20.6156 34.7748C20.462 35.3971 20.3713 36.0334 20.3449 36.6738C20.3249 37.1784 20.4876 37.6732 20.8031 38.0675C21.1185 38.4618 21.5655 38.7292 22.0622 38.8204L22.2208 38.8494C22.8905 38.9699 23.577 38.9613 24.2436 38.8243C24.8537 38.6937 25.4406 38.4714 25.9841 38.1649C26.8931 37.6429 27.7066 36.97 28.3898 36.1749C28.703 35.825 28.9961 35.4576 29.2678 35.0745C29.5327 34.7013 29.786 34.3281 30.0123 33.9432C30.2386 33.5584 30.459 33.1697 30.6544 32.7829C30.753 32.5895 30.8477 32.3865 30.9425 32.1815L31.0759 31.8701L31.221 31.5182C31.4548 30.9423 31.4602 30.2989 31.236 29.7193C31.0117 29.1396 30.5748 28.6674 30.0142 28.3988Z" fill="#263238"/>
<path d="M25.4895 22.2916L25.4373 23.2585C25.4207 23.6438 25.4867 24.0282 25.6307 24.386L26.0175 25.378C26.1067 25.6039 26.2582 25.7997 26.4543 25.9429C26.6505 26.086 26.8833 26.1704 27.1256 26.1864C27.4548 26.2087 27.7798 26.1025 28.0323 25.89C28.2848 25.6776 28.445 25.3755 28.4793 25.0474C28.5085 24.551 28.4635 24.053 28.3459 23.5699L28.2376 22.3419C28.2193 22.1406 28.1302 21.9523 27.986 21.8106C27.8418 21.6689 27.6521 21.5831 27.4505 21.5683L26.4043 21.489C26.2914 21.4812 26.1781 21.4957 26.0709 21.5319C25.9637 21.568 25.8647 21.6251 25.7796 21.6997C25.6946 21.7743 25.6252 21.865 25.5754 21.9666C25.5256 22.0682 25.4964 22.1787 25.4895 22.2916Z" fill="#FFB573"/>
<path opacity="0.2" d="M28.348 23.568L28.2397 22.3419C28.2211 22.141 28.1321 21.9532 27.9884 21.8117C27.8448 21.6701 27.6556 21.5839 27.4545 21.5684L26.4412 21.491C26.3271 23.0729 27.1374 24.8327 28.025 25.9002C28.1541 25.7958 28.2609 25.6665 28.3389 25.52C28.417 25.3735 28.4648 25.2128 28.4795 25.0474C28.5102 24.5504 28.4659 24.0517 28.348 23.568Z" fill="black"/>
<path d="M37.0518 26.258C34.2593 26.4668 30.7629 26.695 28.2547 27.8882C27.017 28.478 26.6844 29.7176 26.8681 31.0772C27.1601 33.2354 27.4115 34.9584 27.9491 36.7801C29.1945 40.9824 26.6979 43.9915 29.4962 47.2462C30.7242 48.6425 38.2528 49.9536 43.5844 48.2016C44.358 45.0203 43.3582 37.1089 42.2888 29.9072C41.9155 27.3641 39.6181 26.0665 37.0518 26.258Z" fill="#2196F3"/>
<path d="M33.586 22.8757C33.7214 24.0592 34.3074 25.7959 35.3091 26.3373C35.4178 26.397 35.5106 26.4819 35.5797 26.5849C35.6487 26.6879 35.692 26.806 35.7058 26.9292C35.7196 27.0525 35.7037 27.1772 35.6592 27.293C35.6147 27.4087 35.5431 27.5121 35.4503 27.5944C34.8605 28.1107 33.9496 28.5613 32.7274 28.8146C31.1339 29.1395 30.7935 28.658 30.8167 28.1629C30.8405 27.924 30.9378 27.6983 31.0952 27.517C31.6096 26.8827 31.0952 26.3896 30.7761 26.0183L33.586 22.8757Z" fill="#FFB573"/>
<path opacity="0.2" d="M32.8715 24.6605C32.8404 24.5941 32.8055 24.5295 32.7671 24.4671L30.7791 26.0238C30.9724 26.2656 31.2741 26.5615 31.3109 26.9115C32.3378 26.2946 33.1732 25.3025 32.8715 24.6605Z" fill="black"/>
<path d="M20.4824 65.471C20.8692 65.0745 23.3291 64.3107 23.3291 64.3107C23.9735 66.1618 24.5056 68.0501 24.9226 69.9653L21.7375 70.2902C21.7375 70.2902 21.2096 67.0626 20.4824 65.471Z" fill="#FFB573"/>
<path d="M34.5689 45.6894C25.3579 45.8209 13.2364 45.3277 16.0908 53.7227C17.313 57.3158 17.2144 58.6366 18.6435 62.9898C19.2585 64.8637 19.4673 65.4148 19.914 66.7125C20.4033 67.8728 23.3351 67.6601 24.418 67.2056C25.7195 66.5133 24.6114 64.6432 24.4664 63.5912C23.7257 58.4549 25.2631 56.492 23.6464 53.1251C26.5859 53.5506 34.8493 53.2527 36.0793 48.2015C36.0793 48.2015 37.7733 46.1883 34.5689 45.6894Z" fill="#263238"/>
<path d="M20.6644 67.3315L21.0512 68.1051C21.0745 68.1514 21.1121 68.189 21.1584 68.2123C21.2047 68.2357 21.2573 68.2435 21.3084 68.2346C21.8305 68.1437 23.3854 67.8943 24.2904 68.0045C24.3231 68.008 24.356 68.0048 24.3874 67.9952C24.4188 67.9856 24.4479 67.9697 24.473 67.9486C24.4981 67.9275 24.5187 67.9015 24.5335 67.8722C24.5483 67.8429 24.5571 67.811 24.5592 67.7782C24.5766 67.4727 24.5728 67.0763 24.5689 66.8268C24.5669 66.7633 24.5404 66.7031 24.495 66.6588C24.4496 66.6144 24.3887 66.5894 24.3252 66.5889C23.1472 66.6009 21.9733 66.7305 20.8211 66.9757C20.7844 66.9844 20.7503 67.0014 20.7213 67.0255C20.6923 67.0496 20.6694 67.0801 20.6542 67.1146C20.639 67.1491 20.632 67.1866 20.6338 67.2243C20.6356 67.2619 20.6461 67.2986 20.6644 67.3315Z" fill="#2196F3"/>
<path d="M25.6056 71.9881L25.273 69.7429C25.2607 69.6908 25.2301 69.6448 25.1868 69.6132C25.1436 69.5816 25.0904 69.5666 25.037 69.5708L21.7707 69.5843C21.5087 69.5661 21.248 69.634 21.0281 69.7777C20.2933 70.385 19.1542 70.967 17.4988 71.2881C16.9747 71.3906 17.1971 72.431 18.4251 72.4252C20.4557 72.4155 20.3706 72.3517 22.0995 72.3459C23.5808 72.3459 23.9521 72.4136 25.1279 72.4252C25.1884 72.4297 25.2491 72.4217 25.3064 72.4019C25.3637 72.3821 25.4164 72.3507 25.4611 72.3098C25.5058 72.2688 25.5417 72.2192 25.5666 72.1639C25.5914 72.1086 25.6047 72.0488 25.6056 71.9881Z" fill="#263238"/>
<path d="M32.4515 19.7698C33.3159 21.7501 33.9231 22.864 33.461 24.4111C32.7686 26.7491 29.9606 27.2751 28.5238 25.6391C27.232 24.1655 26.0349 21.1718 27.5143 19.2999C28.9724 17.4588 31.587 17.7876 32.4515 19.7698Z" fill="#FFB573"/>
<path d="M30.8612 24.5311C30.9679 24.5286 31.0745 24.5344 31.1803 24.5485C31.1876 24.5494 31.1947 24.5519 31.2011 24.5556C31.2074 24.5594 31.2129 24.5644 31.2173 24.5704C31.2216 24.5764 31.2247 24.5832 31.2263 24.5904C31.228 24.5976 31.2281 24.6051 31.2267 24.6123C31.226 24.6196 31.2238 24.6266 31.2203 24.633C31.2167 24.6393 31.2119 24.6449 31.206 24.6492C31.2002 24.6536 31.1935 24.6567 31.1864 24.6584C31.1793 24.66 31.172 24.6601 31.1648 24.6587C30.9302 24.619 30.6894 24.6356 30.4624 24.7072C30.2355 24.7788 30.0288 24.9034 29.8595 25.0707C29.8489 25.0812 29.8347 25.0871 29.8198 25.0871C29.8049 25.0871 29.7907 25.0812 29.7802 25.0707C29.775 25.0656 29.7709 25.0596 29.7681 25.0529C29.7654 25.0463 29.7639 25.0392 29.7639 25.032C29.7639 25.0248 29.7654 25.0176 29.7681 25.011C29.7709 25.0044 29.775 24.9983 29.7802 24.9933C30.0666 24.7044 30.4544 24.5386 30.8612 24.5311Z" fill="#263238"/>
<path d="M29.9703 22.1699C29.8717 22.2259 29.8639 22.3942 29.9509 22.545L30.3067 22.3381C30.2197 22.1873 30.0689 22.1119 29.9703 22.1699Z" fill="#263238"/>
<path d="M28.1192 23.2199C28.0206 23.276 28.011 23.4442 28.0999 23.595L28.4557 23.3881C28.357 23.2373 28.2082 23.1619 28.1192 23.2199Z" fill="#263238"/>
<path d="M29.4865 21.2299C29.4987 21.2141 29.5153 21.2022 29.5342 21.1956C29.5531 21.1891 29.5735 21.1883 29.5929 21.1932C29.7163 21.2283 29.8463 21.2334 29.9721 21.2082C30.0979 21.183 30.2158 21.1281 30.3162 21.0481C30.3257 21.0386 30.337 21.031 30.3494 21.0259C30.3619 21.0207 30.3752 21.0181 30.3887 21.0181C30.4022 21.0181 30.4155 21.0207 30.4279 21.0259C30.4404 21.031 30.4517 21.0386 30.4612 21.0481C30.4707 21.0576 30.4783 21.069 30.4835 21.0814C30.4886 21.0938 30.4913 21.1072 30.4913 21.1206C30.4913 21.1341 30.4886 21.1475 30.4835 21.1599C30.4783 21.1723 30.4707 21.1837 30.4612 21.1932C30.3357 21.2962 30.1872 21.3675 30.0284 21.4012C29.8695 21.4348 29.7049 21.4298 29.5484 21.3866C29.5224 21.3797 29.5 21.3629 29.4863 21.3397C29.4725 21.3166 29.4685 21.2889 29.4749 21.2628C29.477 21.2513 29.4809 21.2402 29.4865 21.2299Z" fill="#263238"/>
<path d="M27.8774 22.1389C27.8968 22.1245 27.9211 22.1182 27.9451 22.1215C27.9719 22.1239 27.9967 22.1369 28.0141 22.1575C28.0315 22.1782 28.04 22.2048 28.0379 22.2317C28.0281 22.3939 27.9794 22.5513 27.896 22.6906C27.8125 22.83 27.6967 22.9472 27.5583 23.0323C27.5344 23.0447 27.5066 23.0471 27.4809 23.0392C27.4552 23.0312 27.4337 23.0135 27.421 22.9898C27.4145 22.9781 27.4105 22.9653 27.409 22.9521C27.4076 22.9388 27.4088 22.9254 27.4126 22.9126C27.4164 22.8999 27.4226 22.888 27.431 22.8776C27.4395 22.8673 27.4498 22.8588 27.4616 22.8525C27.5697 22.7832 27.6598 22.6892 27.7244 22.5783C27.7889 22.4673 27.8261 22.3425 27.8329 22.2143C27.8344 22.1993 27.8392 22.1847 27.8469 22.1717C27.8545 22.1587 27.8649 22.1475 27.8774 22.1389Z" fill="#263238"/>
<path opacity="0.2" d="M28.5236 23.3301C28.5312 23.48 28.501 23.6294 28.4358 23.7646C28.3706 23.8998 28.2724 24.0164 28.1504 24.1037C29.0516 23.9567 28.5236 23.3301 28.5236 23.3301Z" fill="black"/>
<path opacity="0.2" d="M29.7268 22.661C29.8556 22.7344 30.0006 22.7746 30.1488 22.7779C30.2971 22.7813 30.4438 22.7478 30.5758 22.6803C30.0846 23.3011 29.7268 22.661 29.7268 22.661Z" fill="black"/>
<path d="M34.0856 19.8354C33.9889 18.9419 33.753 18.2748 33.4397 17.8222C33.5764 17.8659 33.7169 17.897 33.8593 17.9151C33.0626 16.7064 31.763 16.9327 31.3453 17.4219C30.8367 16.3099 30.1173 17.0526 29.2993 17.1937C28.4812 17.3349 26.9593 16.7431 26.9593 16.7431C26.9593 16.7431 27.2938 17.3233 27.8392 17.4123C26.7814 17.8899 26.3907 18.7118 26.1103 19.3461C25.8299 19.9804 24.979 20.7404 24.979 20.7404C25.334 20.7442 25.678 20.6176 25.9459 20.3846C25.8396 21.0305 25.3929 22.2353 25.1724 22.5119C25.7526 22.3185 26.296 21.6087 26.296 21.6087C26.296 21.6087 26.4004 22.7691 26.9457 23.5542C26.8336 22.5505 28.4406 20.5413 28.4406 20.5413C28.3693 20.9721 28.3693 21.4118 28.4406 21.8427C29.1658 21.2297 30.3474 19.2224 30.3474 19.2224C30.3624 19.8056 30.4448 20.3851 30.593 20.9493C30.6616 20.6116 30.8028 20.2929 31.0069 20.0152C30.7941 20.7346 31.3356 22.3978 31.3356 22.3978C31.3084 21.9634 31.3364 21.5274 31.4188 21.1001C31.5716 21.5952 32.5095 22.1406 32.8943 22.1966C32.8905 22.2005 34.3583 22.3146 34.0856 19.8354Z" fill="#263238"/>
<path d="M34.0665 21.6381C34.036 22.1651 33.7982 22.6587 33.4052 23.0111C32.8792 23.4733 32.3145 23.0769 32.2081 22.431C32.1114 21.8412 32.2681 20.8839 32.9159 20.6808C33.5637 20.4778 34.0975 20.9922 34.0665 21.6381Z" fill="#FFB573"/>
<path d="M29.0359 23.1154C29.0359 23.1154 29.3279 24.1578 29.2718 24.8076C29.6953 24.8521 30.0454 24.4324 30.0454 24.4324L29.0359 23.1154Z" fill="#ED893E"/>
<path opacity="0.2" d="M27.9724 53.1523C27.8603 51.874 27.6978 50.5957 27.4812 49.331C27.3842 48.7531 27.1976 48.194 26.9281 47.6737C20.7398 46.8498 20.1925 51.9939 24.2826 61.7735C24.066 57.9328 25.0562 56.0628 23.6483 53.1252C25.0839 53.2998 26.5348 53.3089 27.9724 53.1523Z" fill="black"/>
<path opacity="0.2" d="M33.3407 21.3306L33.7527 22.1873C33.9132 22.5125 33.9954 22.8708 33.9925 23.2335L33.9712 24.2004C33.9614 24.4247 33.8769 24.6392 33.7311 24.8099C33.5854 24.9806 33.3867 25.0975 33.1667 25.1422C32.8277 25.2234 32.4716 25.1937 32.1507 25.0576C31.8298 24.9215 31.561 24.6862 31.3837 24.3861C31.1715 23.9605 31.0298 23.5033 30.964 23.0324L30.614 21.9107C30.5848 21.8224 30.5747 21.7288 30.5844 21.6363C30.594 21.5437 30.6232 21.4543 30.67 21.3739C30.7168 21.2934 30.7801 21.2238 30.8558 21.1697C30.9315 21.1156 31.0178 21.0781 31.1091 21.0598L32.1243 20.7852C32.3589 20.7288 32.6055 20.7518 32.8255 20.8504C33.0456 20.9491 33.2268 21.118 33.3407 21.3306Z" fill="black"/>
<path d="M33.5768 21.4445L33.894 22.3592C34.0214 22.7219 34.0683 23.1079 34.0313 23.4905L33.9288 24.5542C33.9061 24.7957 33.8151 25.0258 33.6665 25.2176C33.5178 25.4094 33.3177 25.5549 33.0895 25.6371C32.7788 25.7518 32.4357 25.741 32.1329 25.6071C31.83 25.4732 31.5912 25.2266 31.467 24.9197C31.3002 24.4512 31.2051 23.9603 31.1846 23.4635L30.9487 22.2529C30.9092 22.0539 30.9419 21.8474 31.0407 21.6702C31.1396 21.4931 31.2982 21.3569 31.4882 21.2859L32.4726 20.9204C32.5794 20.881 32.693 20.8633 32.8068 20.8684C32.9205 20.8735 33.0321 20.9013 33.1349 20.9501C33.2378 20.999 33.3299 21.0678 33.4058 21.1527C33.4816 21.2376 33.5398 21.3368 33.5768 21.4445Z" fill="#FFB573"/>
<path d="M40.0961 27.3661C39.4709 27.2092 38.8089 27.3071 38.2559 27.6382C37.7028 27.9693 37.3039 28.5065 37.1469 29.1317L37.0986 29.3251L37.0096 29.6886L36.8994 30.0986C36.8201 30.379 36.7427 30.6614 36.6518 30.9398C36.4797 31.4968 36.2747 32.0344 36.0601 32.543L36.0485 32.5701C35.8338 31.9223 35.6346 31.2473 35.4567 30.5608C35.3252 30.0754 35.1995 29.5823 35.0835 29.0872C34.9675 28.5921 34.8437 28.0932 34.7335 27.5904C34.5053 26.5925 34.2925 25.5676 34.0759 24.5735V24.5445C34.0123 24.2579 33.8472 24.004 33.611 23.8296C33.3748 23.6552 33.0835 23.5721 32.7908 23.5957C32.4982 23.6193 32.2239 23.7479 32.0187 23.9578C31.8134 24.1677 31.691 24.4448 31.6741 24.7379C31.6083 25.8364 31.6103 26.8961 31.6373 27.9791C31.6644 29.0621 31.7398 30.1373 31.8578 31.2261C31.9158 31.7714 31.9951 32.3187 32.0841 32.8698C32.173 33.421 32.2774 33.9799 32.4225 34.5446C32.5653 35.1358 32.7462 35.7172 32.964 36.2851C33.0875 36.6075 33.2322 36.9215 33.3971 37.2249C33.5967 37.5941 33.836 37.9404 34.1107 38.2576C34.4438 38.6371 34.901 38.8857 35.4005 38.959C35.9001 39.0324 36.4094 38.9256 36.8375 38.6579L36.969 38.5748C37.3697 38.3224 37.7488 38.0371 38.1023 37.7219C38.4343 37.4228 38.7439 37.0996 39.0286 36.755C39.2996 36.4248 39.5532 36.0807 39.7886 35.7242C40.0148 35.3703 40.216 35.0145 40.4055 34.6548C40.5931 34.3012 40.7628 33.9385 40.9141 33.568C41.0649 33.2025 41.21 32.837 41.3299 32.4657C41.4498 32.0944 41.5658 31.725 41.6586 31.346C41.7051 31.1526 41.7534 30.9592 41.7921 30.7658L41.8501 30.4854L41.9081 30.145C42.0123 29.5387 41.8835 28.9153 41.5475 28.3999C41.2114 27.8846 40.693 27.5152 40.0961 27.3661Z" fill="#263238"/>
<path d="M29.6819 65.2951C30.0203 64.8619 32.3893 63.8582 32.3893 63.8582C33.2172 65.6349 33.9373 67.4599 34.5456 69.3233L31.4088 69.9634C31.4088 69.9634 30.5676 66.8093 29.6819 65.2951Z" fill="#FFB573"/>
<path d="M35.7503 45.0727C26.6979 45.6896 19.6992 45.7089 23.6907 53.6262C25.4003 57.0143 25.7387 58.8302 27.601 63.0151C28.4016 64.8175 28.6666 65.3454 29.2409 66.5928C29.8462 67.7009 32.7412 67.1884 33.772 66.6276C34.9961 65.8057 33.712 64.0575 33.4548 63.0267C32.1997 57.9987 33.48 56.2021 31.5616 52.9977C34.5262 53.1505 42.3584 53.253 43.5883 48.2017C43.5902 48.2017 42.1147 45.0727 35.7503 45.0727Z" fill="#263238"/>
<path d="M30.053 67.1303L30.523 67.8652C30.5512 67.909 30.5927 67.9426 30.6415 67.961C30.6902 67.9795 30.7435 67.9818 30.7937 67.9677C31.3023 67.8246 32.8243 67.4204 33.737 67.4359C33.7698 67.4362 33.8022 67.4298 33.8324 67.4172C33.8626 67.4045 33.89 67.3859 33.9128 67.3624C33.9355 67.3389 33.9533 67.311 33.965 67.2804C33.9767 67.2498 33.982 67.2172 33.9807 67.1845C33.9672 66.8789 33.9246 66.4844 33.8937 66.2388C33.8864 66.1753 33.8542 66.1172 33.8042 66.0773C33.7542 66.0374 33.6904 66.019 33.6268 66.0261C32.456 66.157 31.3015 66.4058 30.1807 66.7687C30.1454 66.7802 30.1133 66.7997 30.0868 66.8255C30.0602 66.8514 30.04 66.8831 30.0277 66.9181C30.0154 66.953 30.0112 66.9903 30.0156 67.0271C30.02 67.064 30.0328 67.0993 30.053 67.1303Z" fill="#2196F3"/>
<path d="M35.4444 71.1199L34.7927 68.8515C34.7735 68.8011 34.7365 68.7596 34.6888 68.7346C34.641 68.7097 34.5858 68.7031 34.5335 68.7161L31.304 69.2034C31.0415 69.2247 30.7933 69.3321 30.5981 69.509C29.7774 70.4599 28.65 71.0941 27.4111 71.3017C26.889 71.4042 27.1114 72.4446 28.3374 72.4388C30.3699 72.4291 30.281 72.17 31.9944 71.9205C33.2901 71.7271 33.8393 71.7271 35.0112 71.615C35.0732 71.614 35.1343 71.6001 35.1906 71.5741C35.2469 71.548 35.2971 71.5105 35.3379 71.4638C35.3788 71.4171 35.4093 71.3624 35.4277 71.3032C35.446 71.2439 35.4517 71.1815 35.4444 71.1199Z" fill="#263238"/>
</svg>
